<?xml version="1.0" encoding="UTF-8"?><svg id="Disenoweb-04" xmlns="http://www.w3.org/2000/svg" width="166.42" height="97.56" viewBox="0 0 166.42 97.56"><defs><style>.cls-1,.cls-2{fill:#fff;}.cls-3{fill:#f7b234;}.cls-4{fill:#169dec;}.cls-2{stroke:#fff;stroke-miterlimit:10;}</style></defs><path class="cls-3" d="M16.13,54.34c.05-3.93,.47-15,3.34-17.78,.11-.11,.24-.19,.38-.24,.14-.05,.29-.08,.44-.07,.15,0,.3,.04,.43,.11s.26,.16,.36,.27c1.23,1.37,3.52,5.63,2.54,17.9-.02,.18-.07,.36-.14,.53-.08,.17-.18,.32-.3,.46-.12,.14-.27,.25-.43,.34-.16,.09-.33,.15-.52,.19-1.51,.28-3.03,.28-4.55,0-.21-.02-.41-.08-.6-.18-.19-.1-.35-.22-.5-.38s-.25-.33-.33-.53c-.08-.19-.12-.4-.13-.61Z"/><path class="cls-4" d="M152.61,25.77H28.5l4.31-14.18h123.51l-3.7,14.18Z"/><path d="M149.41,23.03H25.29c-.08,0-.14-.03-.18-.09-.04-.06-.06-.13-.04-.2l4.31-14.19c.03-.11,.11-.16,.22-.17h123.51c.08,0,.13,.03,.18,.09,.05,.06,.06,.12,.04,.2l-3.69,14.19c-.03,.11-.11,.17-.23,.17Zm-123.8-.46h123.62l3.58-13.72H29.78l-4.17,13.72Z"/><path class="cls-4" d="M102.85,18.63c0,.23-.02,.45-.06,.67-.04,.22-.11,.43-.2,.64-.09,.21-.19,.41-.32,.59-.13,.19-.27,.36-.43,.52-.16,.16-.33,.3-.52,.43-.19,.12-.39,.23-.6,.32-.21,.09-.42,.15-.64,.19-.22,.04-.45,.06-.67,.06s-.45-.02-.67-.07c-.22-.05-.44-.11-.64-.2-.21-.09-.41-.19-.6-.32-.19-.12-.36-.27-.52-.43-.16-.16-.3-.33-.43-.52-.12-.19-.23-.39-.31-.6-.09-.21-.15-.42-.19-.64-.04-.22-.06-.45-.06-.67,0-.23,.03-.45,.07-.67,.05-.22,.11-.44,.2-.64s.19-.41,.32-.59,.27-.36,.43-.52,.34-.3,.53-.42,.39-.23,.6-.31c.21-.09,.43-.15,.65-.19,.22-.04,.45-.06,.67-.06s.45,.03,.67,.07c.22,.04,.43,.11,.64,.2,.21,.09,.4,.19,.59,.32,.18,.12,.36,.27,.52,.42,.16,.16,.3,.33,.42,.52s.23,.38,.31,.59,.15,.42,.19,.64,.06,.44,.06,.67Z"/><path d="M133.59,8.69l-4.81,14.2c-.04,.1-.11,.16-.22,.15-.02,0-.05,0-.07,0-.06-.02-.11-.06-.13-.11s-.03-.11-.01-.18l4.81-14.18c.02-.06,.06-.11,.12-.13,.06-.03,.11-.03,.18-.01,.06,.02,.1,.06,.13,.12s.03,.12,.01,.18v-.03Zm9.64,11.9s-.08,.04-.13,.04c-.08,0-.14-.04-.19-.11l-1.7-2.46c-.52,.28-1.07,.41-1.66,.41-.28,0-.56-.03-.83-.1-.27-.06-.54-.16-.78-.29-.25-.13-.48-.28-.7-.46-.21-.18-.4-.39-.57-.62-.16-.23-.3-.47-.41-.73-.11-.26-.18-.53-.23-.81s-.05-.56-.03-.84c.02-.28,.08-.55,.17-.82,.09-.27,.2-.52,.35-.76,.15-.24,.32-.46,.52-.65,.2-.2,.42-.37,.66-.52,.24-.14,.49-.26,.76-.35,.27-.09,.54-.14,.82-.16,.28-.02,.56,0,.84,.04,.28,.04,.55,.12,.81,.23s.5,.25,.73,.41c.23,.17,.43,.36,.61,.57s.33,.45,.46,.7,.22,.51,.28,.79c.06,.27,.09,.55,.09,.83,0,.28-.04,.56-.1,.83-.07,.27-.17,.53-.3,.78s-.29,.48-.47,.69c-.18,.21-.39,.4-.62,.56l1.69,2.46c.03,.05,.04,.11,.03,.17s-.04,.11-.09,.14Zm-3.69-2.59c.2,0,.4-.02,.6-.06,.2-.04,.39-.1,.58-.18,.19-.08,.36-.17,.53-.28,.17-.11,.32-.24,.47-.38s.27-.3,.38-.47,.21-.34,.28-.53,.13-.38,.18-.58c.04-.2,.06-.4,.06-.6,0-.2-.02-.4-.06-.6-.04-.2-.1-.39-.18-.58s-.17-.36-.28-.53c-.11-.17-.24-.32-.38-.47-.14-.14-.3-.27-.47-.38-.17-.11-.34-.21-.53-.28-.19-.08-.38-.13-.58-.18-.2-.04-.4-.06-.6-.06s-.4,.02-.6,.06c-.2,.04-.39,.1-.58,.18s-.36,.17-.53,.28c-.17,.11-.32,.24-.47,.38-.14,.14-.27,.3-.38,.47-.11,.17-.21,.35-.28,.53s-.14,.38-.18,.58c-.04,.2-.06,.4-.06,.6,0,.2,.02,.4,.06,.6s.1,.39,.18,.57,.17,.36,.29,.53,.24,.32,.39,.46c.14,.14,.3,.27,.47,.38s.35,.2,.53,.28c.19,.08,.38,.13,.58,.17,.2,.04,.4,.06,.6,.05v.03Z"/><path class="cls-1" d="M43.91,20.19c-.08,0-.17,0-.25,0-.26-.03-.5-.13-.71-.3-.21-.17-.36-.37-.45-.62-.09-.33-.09-.66,0-.99,.09-.33,.26-.61,.5-.85,.41-.39,.87-.68,1.4-.87,.53-.2,1.07-.28,1.63-.26-.26-1.01-1.13-1.85-2.52-2.28-4.6-1.53-8.98,3.64-9.03,3.69s-.1,.06-.16,.06-.12-.02-.16-.06-.07-.1-.07-.16,.02-.12,.07-.16c.19-.23,4.62-5.49,9.52-3.85,1.79,.62,2.61,1.65,2.84,2.73,.78,.03,1.55,.15,2.3,.35,1.62,.42,2.8,.79,3.75,1.08,2.64,.82,3.19,.99,5.49-.15,.06-.02,.11-.02,.17,0,.05,.02,.1,.06,.12,.12,.03,.05,.03,.11,.01,.17-.02,.06-.05,.1-.1,.13-2.46,1.23-3.17,1-5.82,.18-.95-.3-2.12-.66-3.73-1.07-.69-.19-1.4-.3-2.12-.34,.02,.33-.02,.66-.09,.99-.38,1.42-1.5,2.48-2.59,2.48Zm2.19-3.45c-1.64,0-2.46,.62-2.75,.99-.19,.18-.32,.39-.39,.64s-.08,.5-.01,.75c.06,.17,.16,.31,.3,.42s.31,.17,.48,.19c.91,.14,1.98-.84,2.29-2.1,.07-.3,.1-.59,.08-.89Zm25.03,2.34c-.13,0-.25-.02-.37-.07-.2-.05-.36-.14-.5-.3-.14-.15-.21-.33-.24-.53,.03-.35,.15-.67,.35-.96,.2-.29,.45-.52,.76-.68,.31-.17,.64-.3,.99-.38-.27-.31-.6-.54-.99-.69-2.68-1.08-5.78,2.3-5.81,2.34-.05,.04-.1,.06-.16,.06s-.12-.02-.16-.06c-.05-.05-.07-.1-.07-.16s.02-.12,.07-.16c.13-.15,3.35-3.65,6.33-2.46,.56,.19,1.01,.53,1.35,1.02,1.56-.22,3.35,.21,4.86,.61,.45,.11,.87,.21,1.23,.29,1.74,.35,2.86-.09,4.23-.96,.05-.04,.11-.05,.17-.03,.06,.01,.11,.05,.15,.1s.05,.11,.03,.17c-.02,.06-.05,.11-.11,.14-1.43,.92-2.69,1.41-4.58,1.03-.39-.08-.81-.18-1.23-.3-1.43-.34-3.11-.76-4.56-.62,.12,.42,.1,.83-.06,1.23-.12,.38-.33,.69-.64,.93-.31,.25-.66,.39-1.05,.42Zm1.23-2.51c-.35,.07-.69,.2-1,.37-.23,.12-.42,.3-.58,.51-.15,.22-.25,.46-.28,.72,0,.07,0,.28,.43,.43,.43,.15,1.15-.3,1.41-1,.14-.34,.15-.69,.03-1.03Z"/><path class="cls-4" d="M101.06,84.54l8.47-34.78,5.96,.12-8.13,34.66h-6.3Zm-25.31-1.11l3.65-15.6-5.95-.11-3.84,15.76,6.14-.05Zm22.56,.23l3.66-15.59-5.95-.12-3.84,15.76,6.14-.05Zm-35.16,1.23l2.28-9.73-5.95-.11-2.39,9.84h6.07Zm21.96,0l6.1-25.97-5.96-.11-6.35,26.08h6.22Z"/><path d="M122.54,84.58h-25.79l3.62-15.45c.02-.07,0-.14-.04-.2-.04-.06-.1-.09-.18-.09l-5.95-.11c-.12,0-.2,.06-.22,.18l-3.83,15.67h-15.48l3.6-15.33c.02-.07,0-.14-.04-.19-.05-.06-.1-.09-.18-.09l-5.96-.12c-.12,0-.2,.06-.23,.18l-3.79,15.56h-19.09l6.94-28.7c.02-.06,0-.12-.03-.18-.03-.05-.08-.09-.14-.1-.06-.02-.12,0-.18,.03-.06,.03-.09,.08-.11,.14l-7.03,29c-.02,.07,0,.14,.04,.2,.05,.06,.11,.09,.19,.09h19.47s.08,0,.11,0h54.29c.06,0,.12-.02,.17-.07,.05-.05,.07-.1,.07-.17,0-.06-.02-.12-.06-.17-.05-.05-.1-.07-.17-.07Zm-28.16-15.37l5.48,.11-3.55,15.14-5.66,.04,3.73-15.29Zm-22.11,.11l5.49,.11-3.55,15.15h-5.65l3.72-15.26Z"/><path d="M113.06,47.57c0,.06-.01,.12-.05,.17-.04,.05-.09,.08-.16,.09-.06,0-.11-.02-.16-.06-.04-.04-.07-.09-.07-.15l-.2-2-15.64,17.53c-.05,.06-.11,.09-.18,.08-.08,0-.14-.04-.18-.11l-6.16-8.98-10.34,15.69c-.05,.08-.11,.11-.2,.1-.09,0-.15-.04-.2-.12l-4.63-8.25-10.1,14.96c-.04,.06-.1,.1-.17,.1-.07,0-.13-.02-.17-.08l-5.34-6.01-4.64,4.14c-.11,.07-.21,.06-.3-.04-.09-.1-.09-.2,0-.3l4.81-4.3s.1-.06,.17-.06c.06,0,.12,.03,.16,.08l5.3,5.95,10.14-15.02s.05-.06,.09-.08c.03-.02,.07-.03,.11-.03s.08,.01,.11,.03,.06,.05,.09,.08l4.63,8.23,10.27-15.64c.04-.07,.11-.1,.19-.11,.08,0,.14,.04,.19,.11l6.19,9.02,15.39-17.22-1.85,.62c-.06,.03-.13,.04-.19,0-.06-.03-.11-.07-.13-.14-.02-.07-.02-.13,.02-.19,.03-.06,.09-.1,.16-.11l2.46-.86c.07-.03,.13-.03,.2,0,.06,.04,.1,.1,.11,.17l.28,2.71Z"/><path d="M127.49,90.63H40.77c-.11,0-.19-.04-.25-.13-.06-.08-.09-.17-.06-.27l11.84-48.98c.04-.16,.14-.24,.3-.25h85.89c.1,0,.18,.05,.25,.13,.07,.07,.09,.16,.07,.26l-10.99,49.02c-.05,.15-.16,.22-.32,.21Zm-86.32-.64H127.23l10.85-48.38H52.83l-11.66,48.38Z"/><path class="cls-3" d="M130.61,55.84c-.66-.53-1.26-1.11-1.81-1.76-.55-.64-1.02-1.34-1.43-2.07-.41-.74-.74-1.51-.99-2.32-.26-.8-.43-1.63-.53-2.46s-.11-1.68-.04-2.52c.07-.84,.22-1.67,.46-2.48s.54-1.59,.93-2.34,.84-1.46,1.37-2.12,1.11-1.26,1.76-1.81,1.34-1.02,2.07-1.43,1.51-.74,2.32-1c.81-.26,1.63-.44,2.47-.53s1.68-.11,2.52-.04c.84,.07,1.67,.22,2.48,.45,.81,.23,1.59,.54,2.34,.93,.75,.39,1.46,.84,2.12,1.37,.66,.53,1.26,1.11,1.81,1.76,.55,.64,1.02,1.34,1.43,2.07,.41,.74,.74,1.51,1,2.32,.26,.8,.43,1.63,.53,2.46s.11,1.68,.04,2.52c-.07,.84-.22,1.67-.46,2.48-.24,.81-.54,1.59-.93,2.34s-.84,1.46-1.37,2.12-1.11,1.26-1.76,1.81-1.34,1.02-2.07,1.43c-.74,.41-1.51,.74-2.32,1-.81,.26-1.63,.44-2.47,.53s-1.68,.11-2.52,.04c-.84-.07-1.67-.22-2.48-.45-.81-.23-1.59-.54-2.34-.93-.75-.39-1.46-.84-2.12-1.37Z"/><path class="cls-2" d="M143.44,48.42c-.05,.01-.1,.01-.15,0-.2,0-.33-.09-.4-.28l-2.85-7.72-2.27,11.66c-.02,.1-.07,.18-.15,.25s-.17,.1-.27,.1h-.09c-.12-.03-.21-.09-.28-.19-.07-.1-.09-.21-.07-.32l2.31-11.84-5.76,5.48c-.08,.09-.19,.13-.3,.13s-.22-.04-.31-.13c-.08-.08-.13-.18-.13-.3s.04-.22,.13-.3l6.76-6.42c.11-.11,.24-.15,.39-.11,.15,.04,.26,.13,.31,.28l3.38,9.15c.04,.11,.04,.22,0,.33-.05,.11-.13,.19-.24,.23Z"/><path d="M25.46,54.8c-.14-.94-.42-1.84-.84-2.69-.42-.85-.96-1.62-1.62-2.31,0-8.1-1.69-11.37-2.84-12.66-.26-.29-.57-.44-.96-.45-.38-.01-.71,.11-.98,.38-.96,.93-1.65,2.72-2.15,4.86-.02,.02-.03,.04-.04,.06-.03,.06-.03,.12,0,.18-.5,2.44-.83,4.89-.99,7.38-.74,.7-1.34,1.5-1.81,2.4-.47,.9-.78,1.85-.93,2.86-.42,3.3-.42,5.25,2.79,1.19,.29,.46,.7,.76,1.23,.89-.14,.37-.13,.74,.04,1.09,.12,.18,.28,.33,.48,.43s.41,.15,.63,.14h.36c.62,.04,1.16,.08,1.65,.08,.86,0,1.5-.12,1.71-.62,.17-.38,.25-.77,.23-1.18,.56-.16,.97-.5,1.23-1.03,3.23,4.3,3.23,2.32,2.81-1.01Zm-6.94-17.38c.17-.17,.38-.25,.62-.25,.25,.01,.45,.11,.62,.29,.53,.61,1.38,1.9,2,4.57-.86,.28-1.74,.41-2.64,.41s-1.78-.16-2.63-.46c.51-2.03,1.19-3.71,2.04-4.56Zm-.72,20.7h-.36c-.31,.03-.55-.09-.74-.33-.11-.26-.11-.52,0-.77,.76,.11,1.52,.17,2.29,.17,.63,0,1.26-.04,1.88-.15,0,.31-.06,.6-.19,.88-.18,.42-1.68,.3-2.88,.2h0Zm4.48-2.91c-.04,.33-.17,.61-.4,.85-.23,.24-.5,.39-.83,.45-1.49,.27-2.97,.27-4.46,0-.18-.02-.35-.07-.52-.15-.16-.08-.31-.19-.43-.33s-.22-.29-.29-.46c-.07-.17-.11-.35-.11-.53,.04-2.29,.21-8.13,1.18-12.59,.88,.32,1.78,.47,2.72,.46,.93,0,1.85-.15,2.74-.42,.59,2.72,.89,6.76,.42,12.71h0Zm-3.37-10.92c-.26,0-.51,.05-.75,.15-.24,.1-.45,.24-.63,.42-.18,.18-.32,.39-.42,.63-.1,.24-.15,.49-.15,.75s.05,.51,.15,.75c.1,.24,.24,.45,.42,.63s.39,.32,.63,.42c.24,.1,.49,.15,.75,.15s.51-.05,.75-.15c.24-.1,.45-.24,.63-.42,.18-.18,.32-.39,.42-.63,.1-.24,.15-.49,.15-.75,0-.26-.05-.5-.15-.75-.1-.24-.24-.45-.42-.63-.18-.18-.39-.32-.63-.42-.24-.1-.49-.15-.75-.15Zm0,3.44c-.2,0-.39-.04-.57-.11-.18-.08-.34-.18-.48-.32s-.25-.3-.32-.48c-.08-.18-.11-.37-.11-.57s.04-.39,.11-.57c.08-.18,.18-.34,.32-.48s.3-.25,.48-.32c.18-.08,.37-.11,.57-.11s.39,.04,.57,.11c.18,.08,.34,.18,.48,.32s.25,.3,.32,.48c.08,.18,.11,.37,.11,.57s-.04,.39-.11,.57c-.08,.18-.18,.34-.32,.48s-.3,.25-.48,.32c-.18,.08-.37,.11-.57,.11Z"/><path d="M34.08,89.07h-.04c-2.81-.5-6.77-1.52-8.91-4.65-.45-.66-.78-1.37-.99-2.14-.21-.77-.29-1.55-.24-2.34-.67-.1-1.28-.33-1.85-.69-1.67-1.15-2.43-3.13-2.78-4.6-.98-4.55-1.28-9.14-.89-13.78,0-.06,.03-.12,.08-.16,.05-.04,.11-.06,.17-.05,.06,0,.12,.03,.16,.08,.04,.05,.06,.1,.05,.17-.38,4.59-.08,9.14,.88,13.64,.33,1.38,1.05,3.26,2.59,4.3,.5,.32,1.05,.52,1.63,.62,.14-.99,.5-1.88,1.11-2.68,.3-.41,.68-.71,1.15-.91,.47-.19,.96-.25,1.46-.16,.38,.05,.73,.2,1.03,.45,.3,.25,.52,.55,.65,.91,.09,.35,.07,.7-.05,1.05s-.32,.63-.61,.85c-.98,.93-2.75,1.23-4.31,1.06-.08,1.51,.3,2.89,1.14,4.15,2.02,2.98,5.89,3.97,8.62,4.46,.13,.03,.19,.11,.18,.25-.01,.13-.09,.21-.23,.21l-.02-.03Zm-9.64-9.52c1.45,.16,3.08-.12,3.97-.93,.22-.17,.38-.38,.48-.63,.1-.26,.12-.52,.06-.79-.11-.28-.28-.52-.52-.7s-.51-.3-.81-.34c-.41-.08-.82-.03-1.21,.13-.39,.16-.71,.41-.95,.76-.56,.75-.9,1.58-1.02,2.5Z"/></svg>