<?xml version="1.0" encoding="UTF-8"?><svg id="Disenoweb-02" xmlns="http://www.w3.org/2000/svg" width="166.42" height="97.56" viewBox="0 0 166.42 97.56"><defs><style>.cls-1{fill:#fff;}.cls-2{fill:#f7c36f;}.cls-3{fill:#169dec;}</style></defs><path class="cls-1" d="M66.33,65.87h4.65v26.89h-4.65v-26.89Z"/><path d="M71.17,91.04v-25.17c0-.05-.02-.1-.06-.13-.04-.04-.08-.05-.13-.05h-4.65c-.05,0-.1,.02-.13,.05s-.05,.08-.05,.13v25.17h-5v4.51h15.01v-4.51h-4.99Zm-4.66-24.99h4.29v24.99h-4.29v-24.99Z"/><path d="M87.64,56.1v4.83c0,.21-.02,.41-.06,.61s-.1,.4-.18,.59c-.08,.19-.17,.37-.29,.54-.11,.17-.24,.33-.39,.47-.15,.15-.3,.28-.47,.39s-.35,.21-.54,.29c-.19,.08-.38,.14-.59,.18s-.4,.06-.61,.06h-10.83v3.61h-10.21v-3.62h-8.73c-.35,0-.69-.06-1.02-.17-.33-.11-.64-.28-.91-.5-.28-.22-.51-.47-.7-.77-.19-.3-.32-.62-.41-.96l-8.82-36.58c-.05-.23-.08-.46-.09-.7,0-.23,.02-.47,.07-.7,.05-.23,.13-.45,.23-.66,.1-.21,.22-.41,.37-.6s.31-.35,.49-.5c.18-.15,.38-.27,.59-.38,.21-.1,.43-.18,.66-.23,.23-.05,.46-.08,.7-.08h20.85c.34,0,.66,.06,.98,.16,.32,.11,.61,.26,.88,.47,.27,.2,.5,.44,.69,.72,.19,.28,.34,.58,.43,.9l9.55,32.62h8.34Z"/><path d="M110.83,95.53h-14c-.1,0-.2-.02-.3-.07-.09-.04-.17-.11-.23-.19-.06-.08-.11-.17-.13-.28-.02-.1-.02-.2,0-.3l.8-3.06-.53-5.01h6.45l.45,4.22,7.65,3.99c.15,.1,.21,.23,.17,.41-.04,.18-.15,.27-.34,.29Zm16.49-33.85l-8.53,1.32-2.86-3.13-5.2,3.83,3.43,3.73,1.16,2.94c.04,.1,.1,.18,.17,.25,.08,.07,.17,.12,.27,.15s.2,.03,.3,.02,.2-.06,.28-.12l11.27-8.3c.08-.05,.14-.12,.17-.21s.02-.18-.01-.27-.1-.15-.19-.19-.17-.05-.26-.02Z"/><path class="cls-1" d="M95.04,87.61l-5.32-29.09-20.71-.91,29.1-9.5s7.3,39.14,7.45,39.45l-10.53,.05Z"/><path d="M95.04,87.77c-.1,0-.16-.05-.18-.15l-5.29-28.95-20.58-.9c-.1,0-.16-.06-.17-.16-.01-.1,.03-.17,.13-.2l29.08-9.48c.05-.01,.1,0,.15,.02,.05,.03,.08,.07,.09,.12,2.49,13.39,7.27,38.85,7.44,39.41,.03,.06,.03,.11,0,.17-.04,.06-.09,.08-.16,.08l-10.51,.04h0Zm-24.99-30.32l19.7,.87c.1,0,.15,.05,.17,.15l5.29,28.95,10.12-.04c-.66-3.11-6.13-32.38-7.35-39.02l-27.93,9.1Z"/><path class="cls-1" d="M81.18,37.17l-.45,3.31h20.41l15.68,20.36-7.05,8.57-12.15-18.18-26.95,6.08c-3.15,.6-6.9,.45-9.01-4.51-2.1-4.96,6.16-16.68,6.16-16.68l13.36,1.06Z"/><path d="M109.78,69.59c-.06,0-.11-.03-.14-.09l-12.09-18.07-26.82,6.06c-2.89,.55-6.97,.67-9.21-4.62-2.12-5,5.83-16.38,6.17-16.86,.04-.06,.09-.09,.17-.08l13.36,1.05c.05,0,.1,.03,.13,.07,.04,.04,.05,.09,.04,.14l-.42,3.09h20.21c.06,0,.11,.02,.14,.07l15.68,20.36c.06,.08,.06,.15,0,.23l-7.05,8.56s-.09,.07-.15,.07Zm-12.15-18.55c.06,0,.12,.03,.15,.09l12.02,17.97,6.8-8.26-15.54-20.17h-20.33c-.06,0-.1-.02-.14-.06s-.05-.09-.04-.15l.43-3.11-13.06-1.03c-.74,1.07-8.02,11.83-6.08,16.42,2.14,5.04,6.05,4.9,8.82,4.41l26.95-6.08,.02-.02Z"/><path d="M85.08,2.16c4.05,1.35,5.7,7.21,6.6,9.77,.9,2.56-.6,3.31-.6,3.31-2.1,1.5-8.26,.75-8.26,.75-4.21-.45-5.1-1.2-5.1-1.2-3.75-5.11,.6-10.82,.6-10.82,0,0,2.7-3.15,6.75-1.81Z"/><path class="cls-2" d="M91.72,33.96c-.2,2.48-.45,4.54-.57,5.54-.3,2.39-.37,2.45-.45,2.54s-.14,.14-4.28,.15h-8.82c-6.33,0-12.72-.05-12.78-.06h-.56l6.25-9.32-5.09-1.79,7.84-12.65c.2-.31,.46-.57,.77-.77,.31-.2,.65-.33,1.01-.38,1.7-.24,3.07,.27,3.86,1.47,1.68,2.52,4.76,4.97,5.48,5.52,3.05-1.74,2.68-5.73,2.67-5.77l-.05-.47,2.38,.83c.29,.1,.56,.24,.82,.41s.48,.38,.68,.61,.37,.49,.5,.76c.13,.28,.23,.57,.29,.87,.61,3.28,.36,8.62,.04,12.52Z"/><path class="cls-1" d="M82.87,35.88c-.39,.67-1.4,1.03-1.93,1.14-.66,.06-1.32,0-1.96-.19-.03,.49-.18,.95-.46,1.36-.28,.41-.65,.71-1.1,.92l-.06,.03h-13.87c-.35,0-.68-.09-.98-.27s-.54-.43-.7-.74c-.17-.31-.24-.64-.22-1,.02-.35,.12-.67,.32-.97l4.92-7.38,5.02,3.04-2.31,3.9,6.1,.55,1.71-2.69c.17-.28,.39-.49,.68-.64,.29-.14,.6-.2,.92-.16h.06l1.53,.49c.37,.15,2.17,.87,2.45,1.7,.11,.33,.07,.64-.12,.93Z"/><path d="M77.35,39.31h-13.87c-.38,0-.74-.1-1.07-.3-.33-.2-.59-.47-.77-.81-.18-.34-.26-.7-.24-1.09,.02-.39,.13-.74,.35-1.06l4.9-7.36s.06-.07,.11-.08c.05-.01,.09,0,.13,.02l5.02,3.04s.07,.06,.09,.11,0,.1-.02,.14l-2.16,3.65,5.69,.49,1.65-2.6c.19-.31,.44-.54,.76-.7,.32-.16,.66-.22,1.02-.18h.08l1.55,.49c.53,.21,2.26,.93,2.56,1.81,.13,.37,.09,.72-.11,1.05-.42,.73-1.47,1.11-2.05,1.23-.62,.07-1.23,.02-1.84-.15-.07,.49-.25,.93-.54,1.32-.3,.39-.66,.69-1.11,.9l-.06,.02s-.03,.03-.05,.04Zm-10.48-10.3l-4.83,7.24c-.18,.27-.27,.56-.29,.87-.01,.32,.05,.62,.2,.9,.15,.28,.36,.5,.63,.67,.27,.16,.57,.25,.89,.25h13.85c.42-.19,.77-.47,1.03-.85,.26-.38,.41-.8,.44-1.26,0-.06,.03-.11,.07-.14,.05-.03,.1-.04,.16-.03,.62,.18,1.25,.24,1.89,.19,.49-.09,1.47-.43,1.81-1.05,.15-.24,.17-.49,.09-.75-.19-.58-1.38-1.21-2.33-1.58l-1.56-.49c-.28-.03-.55,.01-.81,.13-.26,.12-.46,.31-.61,.55l-1.71,2.7c-.04,.07-.1,.1-.17,.08l-6.1-.54c-.07,0-.11-.04-.15-.1-.03-.06-.03-.12,0-.18l2.22-3.74-4.71-2.85Z"/><path d="M112.48,24.96l-5.18,14.17h-32.59v-1.53h10.91l4.9-13.43c.08-.23,.22-.42,.43-.56s.42-.21,.67-.21h19.75c.09,0,.19,0,.28,.03,.09,.02,.18,.05,.26,.1,.09,.04,.16,.09,.23,.16,.07,.06,.13,.13,.19,.21,.05,.08,.1,.16,.13,.25,.04,.09,.06,.18,.07,.27,.01,.09,.01,.19,0,.28-.01,.09-.03,.19-.06,.27Z"/><path class="cls-3" d="M113.75,24.96l-5.17,14.17h-22.22l5.48-14.97c.08-.23,.22-.42,.43-.56,.2-.14,.42-.21,.67-.21h19.75c.09,0,.18,.01,.27,.04,.09,.02,.18,.06,.26,.1,.08,.04,.16,.1,.23,.16,.07,.06,.13,.13,.18,.21,.05,.08,.1,.16,.13,.25,.03,.09,.06,.18,.07,.27,.01,.09,.01,.19,0,.28-.01,.09-.03,.18-.06,.27Z"/><path d="M102.19,31.89c-.44,.9-1.34,1.37-2.03,1.04s-.89-1.33-.46-2.23c.43-.9,1.34-1.37,2.02-1.03,.68,.33,.89,1.32,.46,2.23Z"/><path class="cls-1" d="M95.81,43.03v48.01h.76c.3,0,.59,.03,.88,.09,.29,.06,.57,.15,.84,.26,.27,.11,.53,.25,.78,.42,.24,.16,.47,.35,.68,.56s.4,.44,.56,.68c.17,.25,.3,.51,.42,.78,.11,.27,.2,.55,.26,.84,.06,.29,.09,.58,.09,.88h-15.01c0-.3,.03-.59,.09-.88,.06-.29,.14-.57,.26-.85,.11-.27,.25-.53,.42-.78,.16-.25,.35-.47,.56-.68s.44-.4,.68-.56c.25-.16,.5-.3,.78-.42,.28-.11,.55-.2,.85-.26,.29-.06,.58-.09,.88-.09h.61V43.03H52.82v-4.48h81.08v4.51l-38.08-.02Z"/><path d="M101.06,95.74h-15c-.05,0-.1-.02-.13-.06s-.05-.08-.05-.13c0-.31,.03-.61,.09-.92,.06-.3,.15-.59,.27-.88,.12-.28,.26-.55,.43-.81,.17-.26,.36-.49,.58-.71s.45-.41,.71-.58c.26-.17,.53-.32,.81-.43,.28-.12,.58-.21,.88-.27s.61-.09,.91-.09h.43V43.22H52.82c-.05,0-.09-.02-.13-.06s-.05-.08-.05-.13v-4.48s.02-.09,.05-.13,.08-.05,.13-.05h81.08s.09,.02,.13,.05c.04,.04,.05,.08,.06,.13v4.51s-.02,.09-.05,.13-.08,.05-.13,.06h-37.89v47.64h.56c.31,0,.61,.03,.92,.09s.6,.15,.88,.27c.28,.12,.55,.26,.81,.43,.26,.17,.49,.37,.71,.58,.22,.22,.41,.45,.58,.71,.17,.26,.32,.53,.43,.81s.21,.58,.27,.88,.09,.61,.09,.92c0,.05-.03,.09-.06,.12s-.08,.04-.13,.04Zm-14.82-.37h14.63c-.01-.28-.05-.55-.11-.82-.06-.27-.15-.53-.27-.78-.11-.25-.25-.49-.41-.71-.16-.23-.34-.43-.54-.62-.2-.19-.41-.36-.65-.51-.23-.15-.47-.28-.73-.38-.26-.11-.52-.18-.79-.23-.27-.05-.54-.08-.82-.08h-.74s-.09-.02-.13-.06c-.04-.04-.05-.08-.05-.13V43.03s.02-.09,.06-.13c.03-.04,.08-.05,.13-.05h37.87v-4.14H53v4.14h38.17c.05,0,.09,.02,.13,.05,.04,.04,.06,.08,.06,.13v48.01c0,.05-.02,.1-.05,.13s-.08,.06-.13,.06h-.61c-.28,0-.55,.03-.82,.08-.27,.05-.53,.13-.79,.23-.26,.1-.5,.23-.73,.38-.23,.15-.45,.32-.65,.51-.2,.19-.38,.4-.54,.62s-.3,.46-.41,.72c-.11,.25-.2,.51-.27,.78-.06,.27-.1,.54-.11,.82h0Z"/><path class="cls-1" d="M85.38,17.83l2.59,.46-.12,2.56c-.01,.3-.05,.59-.12,.87-.07,.29-.16,.57-.27,.84-.12,.27-.25,.53-.42,.78-.16,.25-.34,.48-.55,.69-.2,.21-.42,.41-.66,.59-.24,.18-.49,.33-.75,.46-.27,.13-.54,.24-.82,.32s-.57,.14-.87,.17c-.48,.05-.96,.03-1.44-.06-.48-.09-.93-.25-1.37-.47-.43-.22-.82-.5-1.17-.84-.35-.34-.65-.72-.89-1.14l-3.25-5.75,4.01,.16,.54-4.33c-.43-.24-1.4-.89-1.54-1.82-.03-.33,.01-.65,.14-.96s.32-.56,.58-.77l.09-.08h.12c.57,0,1.05,.21,1.44,.61,.96-.73,4.18-3.43,3.23-6.07l-.75-2.05,1.27,1.77c.2,.27,4.8,6.75,3.29,9.57-.46,.85-1.38,1.28-2.74,1.29l.42,3.19Z"/><path d="M82.84,25.79c-.46,0-.91-.06-1.35-.18-.44-.12-.86-.3-1.25-.53-.4-.23-.75-.51-1.08-.83s-.6-.69-.82-1.09l-3.26-5.76c-.04-.06-.04-.13,0-.19,.04-.06,.09-.09,.16-.09l3.85,.15,.49-4.04c-.49-.29-1.38-.95-1.52-1.89-.04-.36,.02-.72,.16-1.05s.36-.62,.66-.84l.09-.08s.08-.05,.12-.05h.12c.56,0,1.05,.19,1.47,.55,1.09-.86,3.92-3.37,3.04-5.76l-.75-2.05c-.04-.1,0-.18,.09-.23s.17-.03,.23,.05l1.27,1.77c.2,.28,4.88,6.84,3.3,9.76-.47,.86-1.37,1.32-2.7,1.37l.34,2.85,2.45,.44c.11,.02,.16,.08,.15,.19l-.12,2.56c-.01,.31-.05,.61-.12,.91-.07,.3-.16,.59-.28,.87-.12,.28-.26,.55-.43,.81-.17,.26-.36,.5-.57,.72-.21,.22-.44,.43-.68,.61-.25,.18-.51,.34-.78,.48-.27,.14-.56,.25-.85,.33-.3,.09-.6,.14-.9,.17-.17,.02-.35,.03-.53,.03Zm-7.27-8.28l3.09,5.47c.26,.45,.58,.86,.96,1.21s.82,.63,1.3,.84c.48,.21,.98,.34,1.49,.38,.52,.05,1.03,0,1.54-.11s.98-.32,1.42-.6c.44-.28,.83-.62,1.16-1.02,.33-.4,.59-.85,.78-1.33,.19-.49,.29-.99,.32-1.51l.12-2.39-2.45-.43c-.09-.01-.14-.07-.15-.16l-.39-3.19c0-.06,0-.1,.05-.14,.03-.04,.08-.06,.13-.06,1.29,0,2.16-.41,2.58-1.18,1.47-2.73-3.22-9.32-3.27-9.37l-.49-.69,.28,.79c.98,2.72-2.27,5.5-3.29,6.28-.04,.03-.09,.04-.13,.03s-.09-.03-.12-.07c-.36-.36-.79-.54-1.29-.54h-.04l-.03,.03c-.24,.18-.43,.41-.55,.69s-.17,.57-.15,.87c.13,.85,1.06,1.47,1.47,1.69,.07,.04,.1,.1,.09,.19l-.54,4.33s-.02,.09-.06,.12-.08,.04-.13,.04l-3.69-.15Z"/></svg>