<?xml version="1.0" encoding="UTF-8"?><svg id="Disenoweb-05" xmlns="http://www.w3.org/2000/svg" width="166.42" height="97.56" viewBox="0 0 166.42 97.56"><defs><style>.cls-1{fill:#fff;}.cls-2{fill:#f7c36f;}.cls-3{fill:#f7b234;}.cls-4{fill:#169dec;}</style></defs><path class="cls-1" d="M63.91,65.43c-1.89,7.67-7.34,21.75-7.34,21.75,0,0-5.26,.53-8.4-1.89l2.21-19.23-.08-.25-4.22,18.64c-5.36,1.69-8.19-.42-8.19-.42l2.42-18.38,9.87-.2-.84-2.54-2.68-11.76s12.34,1.26,14.96,2.31c2.62,1.05,4.18,4.32,2.29,11.99Z"/><path d="M118.75,66.16l-5.78,26.79m.21,.05l5.77-26.79c.01-.06,0-.11-.03-.16-.03-.05-.07-.08-.13-.09-.06-.01-.11,0-.16,.03-.05,.03-.08,.08-.09,.13l-5.77,26.79c-.01,.06,0,.11,.03,.16,.03,.05,.07,.08,.13,.09h.04c.1-.01,.16-.07,.18-.16h.03Zm22.38-26.83l5.76,26.79m.04,.21c.06-.01,.1-.05,.13-.09,.03-.05,.04-.1,.03-.16l-5.8-26.79c-.01-.06-.04-.1-.09-.13-.05-.03-.1-.04-.16-.03-.06,.01-.1,.04-.13,.09-.03,.05-.04,.1-.03,.16l5.77,26.79s.04,.09,.07,.12c.04,.03,.08,.05,.13,.05h.06Z"/><path class="cls-1" d="M137.52,30.76c20.52-.91,5.15,26.47,.76,33.68-.16,.26-.35,.5-.57,.71-.22,.21-.47,.39-.74,.54-.27,.15-.55,.26-.85,.34-.3,.07-.6,.11-.91,.11h-20.69l23-35.38Z"/><path d="M135.21,66.38h-20.69c-.08,0-.14-.04-.18-.11-.05-.07-.05-.14,0-.21l22.99-35.41c.04-.06,.1-.09,.17-.1,4.69-.21,7.87,1.04,9.45,3.73,4.54,7.68-5.36,25.11-8.5,30.27-.17,.28-.37,.53-.6,.76-.23,.23-.49,.42-.78,.58-.28,.16-.58,.28-.9,.36s-.63,.12-.96,.12Zm-20.32-.42h20.32c.29,0,.58-.04,.86-.11s.55-.18,.8-.32c.25-.14,.48-.31,.69-.51,.21-.2,.39-.43,.54-.68,3.11-5.11,12.92-22.36,8.5-29.84-1.49-2.52-4.51-3.71-8.96-3.53l-22.74,34.99Z"/><path class="cls-1" d="M81.84,46.88h-22.83l7.57-15.86c.09-.19,.22-.34,.4-.45,.18-.11,.37-.17,.57-.16h20.45c.09,0,.18,.01,.27,.03s.17,.05,.25,.1,.15,.1,.22,.16c.07,.06,.12,.13,.17,.21,.05,.08,.09,.16,.12,.25,.03,.09,.04,.18,.05,.26,0,.09,0,.18-.02,.27-.02,.09-.05,.18-.09,.26l-7.13,14.93Z"/><path d="M81.84,47.08h-22.83c-.08,0-.14-.04-.18-.1-.04-.07-.04-.14,0-.2l7.57-15.86c.11-.22,.26-.4,.48-.53s.44-.2,.69-.2h20.45c.11,0,.21,.02,.32,.05,.1,.03,.2,.07,.29,.13,.09,.05,.18,.12,.25,.19,.08,.07,.14,.16,.2,.25s.1,.19,.13,.29c.03,.1,.05,.21,.06,.32s0,.21-.02,.32c-.02,.11-.05,.21-.1,.3l-7.13,14.92c-.03,.07-.09,.12-.17,.12Zm-22.5-.42h22.36l7.07-14.81c.03-.07,.05-.13,.07-.21s.02-.14,.01-.22c0-.07-.02-.14-.04-.21-.02-.07-.05-.14-.09-.2-.04-.06-.09-.12-.14-.17-.05-.05-.11-.09-.18-.13-.06-.04-.13-.06-.2-.08-.07-.02-.14-.03-.21-.03h-20.45c-.17,0-.32,.05-.46,.13s-.25,.21-.32,.36l-7.42,15.56Z"/><path class="cls-1" d="M80.25,45.21h-18.18l6.03-12.63c.07-.15,.18-.27,.32-.36,.14-.09,.29-.13,.46-.13h16.28c.07,0,.14,0,.21,.02,.07,.02,.14,.04,.2,.08s.12,.08,.18,.13c.05,.05,.1,.11,.14,.17,.04,.06,.07,.13,.09,.19,.02,.07,.04,.14,.04,.21,0,.07,0,.14-.02,.21-.01,.07-.04,.14-.07,.2l-5.68,11.89Z"/><path d="M80.25,45.42h-18.18c-.08,0-.14-.04-.18-.1s-.04-.14,0-.2l6.03-12.63c.09-.19,.22-.34,.39-.44,.17-.11,.36-.16,.57-.16h16.28c.18,0,.35,.04,.52,.13,.16,.09,.29,.21,.39,.37s.15,.32,.16,.51c.01,.18-.02,.36-.1,.53l-5.68,11.89c-.04,.09-.11,.13-.2,.12Zm-17.85-.42h17.71l5.64-11.77c.1-.21,.09-.42-.04-.62-.06-.1-.14-.17-.24-.22s-.21-.08-.32-.07h-16.29c-.12,0-.23,.04-.33,.11-.1,.07-.18,.15-.23,.26l-5.9,12.33Z"/><path class="cls-1" d="M83.89,49.25H49.37v-.83c0-.12,.01-.23,.03-.35s.06-.22,.1-.33c.04-.11,.1-.21,.16-.3,.07-.1,.14-.19,.22-.27,.08-.08,.17-.16,.27-.22,.1-.06,.2-.12,.31-.16s.22-.08,.33-.1c.11-.02,.23-.03,.34-.03h30.99c.12,0,.23,.01,.34,.03,.11,.02,.22,.06,.33,.1,.11,.04,.21,.1,.3,.16,.1,.07,.19,.14,.27,.22s.16,.17,.22,.27c.07,.1,.12,.2,.16,.3,.04,.11,.08,.22,.1,.33s.03,.23,.03,.35v.83Z"/><path d="M83.89,49.46H49.37c-.06,0-.11-.02-.15-.06-.04-.04-.06-.09-.06-.15v-.83c0-.13,.01-.26,.04-.39,.02-.13,.06-.25,.11-.37,.05-.12,.11-.23,.18-.34,.07-.11,.15-.21,.25-.3,.09-.09,.19-.17,.3-.25,.11-.07,.22-.13,.34-.18,.12-.05,.24-.09,.37-.11,.13-.03,.26-.04,.39-.04h30.99c.13,0,.26,.01,.39,.04,.13,.02,.25,.06,.37,.11,.12,.05,.23,.11,.34,.18,.11,.07,.21,.16,.3,.25s.17,.19,.25,.3c.07,.11,.13,.22,.18,.34,.05,.12,.09,.24,.11,.37,.03,.13,.04,.26,.04,.39v.83c0,.06-.02,.11-.06,.15s-.09,.06-.15,.06Zm-34.31-.42h34.09v-.62c0-.1,0-.2-.03-.3-.02-.1-.05-.2-.09-.29-.04-.09-.09-.18-.14-.27-.06-.09-.12-.16-.19-.24-.07-.07-.15-.14-.24-.19-.08-.06-.17-.11-.27-.14-.09-.04-.19-.07-.29-.09-.1-.02-.2-.03-.3-.03h-30.99c-.1,0-.2,0-.3,.03s-.2,.05-.29,.09c-.09,.04-.18,.09-.27,.14-.09,.06-.16,.12-.24,.19-.07,.07-.14,.15-.19,.24-.06,.09-.1,.17-.14,.27-.04,.09-.07,.19-.09,.29-.02,.1-.03,.2-.03,.3v.62Z"/><path class="cls-4" d="M115.46,65.54c2.13,4.14,8.09,15.94,8.09,15.94l-3.28,3.33-3.65,2.26c-1.58-1.37-3.04-2.65-4.41-3.88l.11,2.94c-.66,.37-1.36,.68-2.07,.93-.72,.25-1.45,.44-2.2,.56-.75,.12-1.51,.18-2.27,.18-.76,0-1.52-.08-2.26-.22-2.04-5.73-3.49-11.6-4.32-17.62-5.19-6.55-5.02-9.99-3.87-13.79,1.89-6.21,19.92-5.46,19.92-5.46,9.22,7.34,16.93,6.38,16.93,6.38-1.86,7.51-11.29,8.53-16.72,8.47Z"/><path class="cls-2" d="M120.74,38.64l-1.03,3.15c-1.01,1.22-2.19,2.25-3.54,3.07-1.81,.95-4.17,.56-5.75-2.44-1.57-3-3.95-8.91-5.36-9.06s-4.88,1.34-5.04,.94c-.16-.4,.56-1.18,.56-1.18,0,0-.87,.32-1.13-.16-.26-.48,.79-1.26,.79-1.26,0,0-1.1,.32-1.18-.32s1.13-1.18,1.13-1.18c0,0-1.18-.4-1.18-.95s5.35-1.13,5.35-1.13c-1.65-1.42-.07-1.57-.07-1.57,6.21,.32,11.1,12.84,11.1,12.84l1.42-2.82,3.92,2.07Z"/><path d="M124.91,14.13s1.97-4.65,7.56-3.31c5.59,1.34,2.91,10.96,2.91,10.96l-7.64,.56-2.84-8.21Z"/><path class="cls-1" d="M132.4,26.11c13.39,1.57,6.61,17.97,6.61,17.97l-2.21-.24-4.64,13.24c-10,.08-16.93-6.38-16.93-6.38,2.91-1.73,5.51-12.06,5.51-12.06l-5.75-3.15s2.6-4.18,4.88-7.49c2.28-3.31,7.72-2.82,7.72-2.82l4.8,.93Z"/><path d="M131.98,57.28c-9.87,0-16.82-6.37-16.9-6.44-.05-.05-.07-.11-.06-.18,0-.07,.04-.13,.1-.16,2.61-1.55,5.03-10.46,5.37-11.76l-5.61-3.07c-.05-.03-.09-.07-.1-.14-.02-.05-.02-.11,0-.16,0-.05,2.63-4.22,4.89-7.49,2.37-3.43,7.69-2.95,7.9-2.93l4.8,.94c3.39,.4,5.81,1.79,7.18,4.13,3.15,5.36-.26,13.77-.41,14.12-.04,.09-.12,.14-.22,.13l-2.04-.22-4.59,13.08c0,.16-.17,.16-.32,.16Zm-16.4-6.57c1.2,1.02,7.64,6.14,16.4,6.14h.03l4.6-13.09c.04-.1,.11-.15,.22-.14l2.05,.22c.44-1.13,3.19-8.8,.37-13.61-1.3-2.21-3.61-3.54-6.87-3.92l-4.81-.94c-.25,0-5.33-.42-7.51,2.74-1.98,2.87-4.22,6.44-4.76,7.29l5.55,3.04s.07,.06,.09,.1c.02,.05,.02,.09,0,.14-.1,.41-2.52,9.89-5.37,12.03Z"/><path class="cls-2" d="M130.66,14.29c-.56,2.21,1.81,3.86,1.81,3.86l-.24,2.21s3.54-.79,3.15,1.42c-.39,2.21-2.91,1.73-2.91,1.73l-.48,4.33c-1.81,1.1-4.57-.47-4.57-.47l.24-3.15c-7.48-.71-2.6-10.45-2.6-10.45l5.59,.52Z"/><path class="cls-2" d="M136.94,42.71c-.23,1.27-.6,2.5-1.13,3.68-.84,1.78-1.84,2.1-4.04,2.31-2.2,.21-10.29,0-12.13-.1-1.83-.1-1.78,.1-2.78,.21-1,.11-.95-.56-.95-.56-.06,.11-.14,.21-.24,.3-.09,.09-.2,.16-.32,.22-.12,.06-.24,.09-.37,.11-.13,.02-.26,.02-.39,0-.89-.16-.06-1.89-.11-2.57s-.89-.94-.89-.94c.05-.41,.19-.78,.41-1.13,.12-.2,.26-.38,.43-.54,.17-.16,.36-.29,.57-.39,.21-.1,.43-.17,.66-.2,.23-.04,.46-.04,.69,0,.63,.13,1.2,.39,1.71,.78,.51,.39,.91,.87,1.21,1.44,0,0,9.76-1.37,11.13-1.47,1.37-.11,.94-1.89,.94-1.89l5.59,.76Z"/><path d="M119.38,40.7c.1-.08,.21-.13,.32-.16s.24-.04,.36-.03,.24,.05,.35,.11c.11,.06,.2,.14,.28,.23,.08,.1,.14,.21,.18,.34,.04,.12,.05,.25,.03,.38-.01,.13-.05,.25-.12,.36-.06,.11-.14,.21-.25,.29l-7.26,5.6-1.75,.32c-.05,.01-.09,0-.12-.05-.03-.04-.04-.08-.01-.13l.94-1.83,7.04-5.42Z"/><path d="M115.88,48.43s-.06,0-.09,0c-.05-.03-.09-.07-.11-.12-.02-.05-.02-.11,0-.16,.47-.92,1.15-1.66,2.03-2.21,.05-.03,.1-.04,.16-.02,.06,.01,.1,.05,.13,.1,.03,.05,.04,.1,.02,.16-.01,.06-.04,.1-.09,.13-.8,.51-1.42,1.19-1.86,2.03-.04,.07-.11,.11-.19,.1Z"/><path d="M108.29,52.77c0,.06-.02,.11-.07,.15-.05,.04-.1,.05-.16,.04-.76-.03-1.52,.05-2.26,.25-.74,.2-1.43,.51-2.07,.93-3.39,2.08-5.02,5.13-5.08,9.6-.03,2.21,.21,4.38,.72,6.53,.02,.06,0,.11-.02,.16-.03,.05-.08,.08-.13,.09h-.05s-.09-.02-.13-.05c-.04-.03-.06-.07-.08-.12-.52-2.18-.77-4.39-.73-6.64,.07-4.62,1.75-7.78,5.29-9.95,.68-.44,1.41-.76,2.2-.97,.78-.21,1.58-.3,2.39-.26,.06,0,.11,.03,.14,.07s.05,.1,.04,.15Zm5.46,12.29c-.36-.07-.71-.05-1.07,.05-.35,.1-.66,.27-.93,.52v-.98c0-.06-.02-.11-.07-.15-.04-.04-.09-.06-.15-.06s-.11,.02-.15,.06c-.04,.04-.06,.09-.06,.15l.24,16.78c0,.06,.02,.11,.06,.15,.04,.04,.09,.06,.15,.06,.06,0,.11-.02,.15-.07,.04-.04,.06-.09,.06-.15l-.21-15s.04-.06,.05-.09c0-.04,.17-.98,1.9-.85,.06,.01,.11,0,.16-.04,.05-.04,.07-.09,.07-.15,0-.06,0-.12-.05-.16-.04-.05-.09-.07-.15-.07Z"/><path class="cls-1" d="M112.32,86.09s.24,1.39,.32,2.65,.23,1.42-2.92,2.99c-3.15,1.58-8.11,3.63-8.03,2.76,.08-.86,2.21-4.57,2.21-4.57l-.39-2.36c5.36,.32,8.82-1.47,8.82-1.47Zm4.3,.95l.5,1.08s-2.67,4.65-1.81,5.2,10.32-7.96,10.32-7.96l-2.08-3.88s-3.8,4.41-6.93,5.57Z"/><path d="M102.01,94.91c-.13,0-.26-.02-.38-.09-.12-.08-.18-.2-.16-.34,.07-.85,1.85-3.99,2.2-4.59l-.38-2.29c-.01-.07,0-.12,.05-.18,.04-.05,.1-.08,.17-.07,1.49,.11,2.97,.05,4.44-.19,1.47-.24,2.9-.66,4.27-1.25,.06-.03,.13-.03,.19,0,.06,.03,.1,.08,.11,.15,0,0,.24,1.42,.32,2.68v.15c.09,1.26,0,1.51-3.04,3.04-.08,.04-6.02,2.98-7.79,2.98Zm-.11-.42c.56,.2,4.31-1.23,7.72-2.93,2.89-1.45,2.88-1.6,2.82-2.64v-.16c-.06-.9-.2-1.89-.26-2.35-1.33,.54-2.7,.93-4.12,1.17-1.42,.23-2.84,.31-4.28,.22l.35,2.1s.02,.09,0,.14c-.61,1.01-2.12,3.73-2.22,4.48v-.03Zm13.47-.95c-.06,0-.11-.01-.16-.04-.94-.6,.98-4.16,1.69-5.39l-.45-.98c-.03-.06-.03-.11,0-.17,.02-.06,.07-.1,.12-.12,3.04-1.13,6.8-5.47,6.84-5.51,.05-.05,.11-.08,.19-.07,.07,.01,.13,.05,.16,.11l2.07,3.88s.03,.09,.02,.14c0,.05-.03,.09-.07,.12-2.77,2.47-9.07,8.02-10.42,8.02Zm1.55-6.38l.41,.88c.03,.06,.03,.13,0,.19-1.39,2.43-2.26,4.67-1.88,4.92,.63,.12,5.53-3.86,9.94-7.83l-1.85-3.47c-.83,.91-3.91,4.2-6.62,5.33v-.02Z"/><path class="cls-1" d="M145.78,50.82H46.17v-2.37h99.61c.16,0,.31,.03,.45,.09,.14,.06,.27,.15,.38,.26s.2,.24,.26,.38,.09,.29,.09,.45c0,.16-.03,.31-.09,.45s-.14,.27-.25,.39c-.11,.11-.24,.2-.38,.26-.14,.06-.3,.09-.45,.09Z"/><path d="M145.78,51.03H46.17c-.06,0-.11-.02-.15-.06-.04-.04-.06-.09-.06-.15v-2.37c0-.06,.02-.11,.06-.15s.09-.06,.15-.06h99.61c.09,0,.19,0,.28,.01s.19,.04,.28,.07,.18,.07,.26,.12c.08,.05,.16,.11,.23,.17,.07,.07,.13,.14,.19,.21s.1,.16,.14,.25c.04,.09,.07,.18,.09,.27,.02,.09,.03,.19,.03,.28s0,.19-.03,.28-.05,.18-.09,.27c-.04,.09-.08,.17-.14,.25s-.12,.15-.19,.21c-.07,.07-.14,.12-.23,.17-.08,.05-.17,.09-.26,.12s-.18,.05-.28,.07-.19,.02-.28,.01Zm-99.4-.42h99.4c.13,.01,.26,0,.39-.05,.13-.04,.24-.11,.34-.2s.18-.2,.23-.32c.05-.12,.08-.25,.08-.39s-.03-.26-.08-.39c-.05-.12-.13-.23-.23-.32-.1-.09-.21-.16-.34-.2s-.26-.06-.39-.05H46.38v1.94Z"/><path d="M56.57,87.17l-.37,1.69s4.14,1.83,3.67,2.82c-.47,.99-8.66-.94-10.76-1.32-2.1-.37,.1-4.3,.1-4.3l7.35,1.1Zm-17.43-2.42c-.17,1.01-.24,2.03-.21,3.05,.11,1.26,8.5,1.99,8.93,.63,.42-1.37-2.1-2.31-2.1-2.31l.32-1.69s-4.06,1.38-6.93,.33Z"/><path d="M61.68,53.25c-2.63-1.05-14.52-2.26-15.02-2.33-.06,0-.11,.01-.15,.05s-.07,.08-.08,.14c0,.06,.01,.11,.05,.16,.04,.04,.09,.07,.14,.08,.12,0,12.34,1.27,14.9,2.3,3.06,1.23,3.8,5.17,2.18,11.73-1.77,7.19-6.77,20.19-7.3,21.6-.81,.06-5.24,.27-8.02-1.79l2.19-19.1s0-.06,0-.09l-.07-.2,.07-.32c.01-.07,0-.13-.05-.18-.04-.05-.1-.08-.17-.08h-.05l-.79-2.38c-.02-.05-.06-.09-.11-.12-.05-.02-.1-.03-.16,0-.05,.02-.09,.05-.12,.1-.03,.05-.03,.1-.02,.16l.75,2.26-9.59,.2c-.05,0-.1,.02-.14,.06-.04,.04-.06,.08-.07,.13l-2.42,18.39c-.01,.08,.02,.15,.08,.2,.09,.06,1.55,1.13,4.33,1.13,1.38-.02,2.73-.24,4.05-.67,.07-.02,.12-.08,.14-.15l3.59-15.86-1.91,16.63c0,.08,.02,.14,.08,.19,2.26,1.69,5.46,1.99,7.25,1.99,.74,0,1.24-.05,1.3-.06,.09,0,.15-.05,.18-.13,.05-.14,5.48-14.18,7.34-21.77,1.7-6.81,.88-10.93-2.41-12.24Zm-15.8,31.02c-4.56,1.39-7.25-.03-7.79-.36l2.38-18.07,9.53-.2,.06,.16-4.18,18.47Z"/><path class="cls-3" d="M47.03,12.07s1.03,3.78,.95,5.43c0,.18-.01,.36-.05,.54-.04,.18-.1,.35-.18,.51-.08,.16-.18,.32-.29,.46-.12,.14-.25,.26-.4,.37-.15,.11-.31,.2-.48,.27-.17,.07-.34,.12-.52,.15s-.36,.03-.54,.02c-.18-.02-.36-.05-.53-.11-1.58-.47-1.73-6.62-1.73-6.62l3.78-1.02Zm-8.66,8.89v2.37l4.51,.16,.08-2.91s-4.2-1.27-4.59,.39Zm13.39,11.9s8.86-7.76,8.62-8.31c-.03-.07-.07-.14-.13-.2-.06-.06-.12-.1-.19-.14s-.15-.05-.23-.05-.16,0-.23,.04c0,0,.63-.74,.12-1.13-.2-.11-.41-.18-.64-.2-.23-.02-.45,0-.66,.08,0,0,.56-.71-.16-1.06-.72-.35-3.39,2.26-3.39,2.26,0,0,.53-1.99,.11-1.99s-6.09,5.65-6.09,5.65l2.87,5.06Zm10.67,7.01c2.82-3.86,8.5-6.9,8.39-7.64,0-.1-.03-.19-.07-.28-.04-.09-.09-.17-.16-.24-.07-.07-.15-.12-.24-.16-.09-.04-.18-.06-.28-.07,0,0,.67-.56,.28-1.13-.39-.56-1.38-.12-1.38-.12,0,0,.71-.51-.04-.91-.75-.4-3.62,1.54-3.62,1.54,0,0,.43-.75-.32-.95s-6.06,6.73-6.06,6.73c0,0,3.3,3.15,3.5,3.23Z"/><path class="cls-4" d="M31.6,30.34s1.27-6.78,6.77-7.01c5.51-.24,9.77,1.1,10.87,2.52,1.1,1.42,6.3,12.42,6.3,12.42l2.36-2.82s4.33,1.13,5.36,4.73c0,0-4.18,7.01-7.34,6.86-3.31-.16-7.34-5.75-7.34-5.75,0,0-.56,2.6-1.96,9.85-.24-.16-6.93,4.41-15.04,.63l.02-21.42Z"/><path d="M45.14,16.39c-.07,1.65,.79,4.26-.15,4.96-.94,.71-3.08-.32-5.04-.47-1.96-.16-3.07,.71-5.51,.16-2.44-.55-1.65-2.44-.79-4.73s.08-6.46,3.39-8.59c3.31-2.13,6.85-.17,6.85-.17,0,0,3.86-.86,4.25,1.81,.39,2.68-2.75,3.72-2.75,3.72,0,0-.16,1.65-.24,3.31Z"/><path class="cls-1" d="M46.64,51.14l-2.26,1.05"/><path d="M44.39,52.4c-.05,0-.09-.01-.14-.04-.04-.03-.07-.07-.08-.12-.01-.05,0-.1,.02-.14,.02-.04,.06-.08,.1-.1l2.26-1.05c.05-.02,.11-.03,.16,0s.09,.06,.12,.11c.02,.05,.02,.11,0,.16-.02,.05-.06,.09-.11,.12l-2.26,1.05s-.05,.02-.09,.02Z"/><path class="cls-1" d="M25.59,65.15c-.32-.02-.62-.08-.92-.2s-.56-.28-.81-.48c-.24-.2-.45-.44-.61-.71-.16-.27-.28-.56-.35-.87-1.26-5.65-4.22-20.53-4.34-22.59-.19-2.82-.21-9.66,8.92-10.09,9.13-.42,14.39,.11,16.07,2.1,2.63,3.13,.76,21.04,0,27.57-.02,.15-.02,.31,0,.46,.01,.16,.04,.31,.08,.46,.04,.15,.1,.29,.17,.43,.07,.14,.16,.26,.26,.39,.1,.12,.21,.23,.33,.33,.12,.1,.25,.18,.39,.26,.14,.07,.28,.13,.43,.17,.15,.04,.3,.07,.46,.08l8.93,.74s1.37,0,.84,1.78c-.44,1.51-22.66,.5-29.83,.16Z"/><path d="M55.5,63.46c-.24-.29-.54-.44-.92-.46l-8.93-.74c-.14-.01-.28-.04-.42-.08-.14-.04-.26-.09-.39-.16s-.24-.14-.35-.23-.21-.19-.3-.3c-.09-.11-.17-.23-.23-.35-.07-.12-.12-.25-.16-.39s-.06-.27-.08-.42c-.01-.14,0-.28,0-.42,.88-7.29,2.61-24.58-.03-27.73-1.66-1.97-6.52-2.62-16.24-2.17-3.19,.15-5.59,1.1-7.13,2.82-2.31,2.59-2.07,6.29-1.99,7.5,.14,2.08,3.14,17.14,4.35,22.59,.08,.33,.2,.64,.38,.94,.18,.29,.4,.55,.66,.77,.26,.22,.55,.39,.87,.52,.32,.13,.65,.2,.99,.22h.32l-3.65,26.4c0,.06,0,.11,.04,.16s.08,.08,.14,.09c.05,0,.1-.02,.14-.05,.04-.04,.06-.08,.07-.13l3.67-26.45c3.9,.2,10.65,.5,16.7,.6,1.46,0,2.75,.04,3.89,.04h.33l4.07,26.87c0,.05,.03,.1,.07,.13,.04,.04,.09,.05,.14,.05,.06,0,.11-.04,.14-.08s.05-.1,.04-.16l-4.05-26.81c7.68-.04,7.86-.63,7.95-.94,.11-.26,.16-.53,.15-.81-.01-.28-.09-.55-.23-.79Zm-.3,1.47c-.5,.88-12.12,.86-29.6,0-.3-.02-.58-.08-.85-.19-.27-.11-.53-.26-.75-.45s-.41-.41-.57-.66-.26-.52-.33-.81c-1.21-5.43-4.2-20.45-4.34-22.51-.07-1.17-.31-4.73,1.89-7.18,1.46-1.64,3.76-2.54,6.84-2.68,1.91-.09,3.63-.14,5.18-.14,6.11,0,9.48,.69,10.72,2.16,2.61,3.11,.61,21.76-.06,27.41-.04,.34-.01,.67,.09,1s.26,.62,.48,.89c.22,.27,.48,.48,.78,.64,.3,.16,.63,.26,.97,.28l8.92,.77c.23,.02,.42,.11,.56,.29,.1,.18,.16,.38,.17,.59s-.02,.41-.1,.61h0Z"/><path d="M78.54,31.42h-2.76c-.05,0-.1-.03-.13-.07-.03-.04-.05-.09-.05-.14s.02-.1,.05-.14c.03-.04,.08-.06,.13-.07h2.76c.05,0,.09,.03,.13,.07,.04,.04,.05,.09,.05,.14s-.02,.1-.05,.14c-.03,.04-.08,.06-.13,.07Z"/></svg>