<?xml version="1.0" encoding="UTF-8"?><svg id="Disenoweb-01" xmlns="http://www.w3.org/2000/svg" width="166.42" height="97.56" viewBox="0 0 166.42 97.56"><defs><style>.cls-1{fill:#fff;}.cls-2{fill:#f7b233;stroke:#fff;stroke-miterlimit:10;}.cls-3{fill:#e4e4e4;}.cls-4{fill:#169dec;}</style></defs><g><path d="M32.38,60.86H121.91V9.93c0-.82-.68-1.49-1.53-1.49H33.9c-.84,0-1.53,.67-1.53,1.49V60.86Z"/><rect class="cls-1" x="34.41" y="10.56" width="85.37" height="48.03"/><path d="M32.38,60.44v7.1c0,1.4,1.12,2.53,2.5,2.53h31.94v12.31h-.03c-.38,0-.69,.31-.69,.7v.92c0,.39,.31,.7,.69,.7h20.72c.38,0,.69-.31,.69-.7v-.92c0-.39-.31-.7-.69-.7h-.03v-12.31h31.94c1.38,0,2.5-1.14,2.5-2.53v-7.1H32.38Zm87.03,8.78h-32.78v14.01h.72v.61h-20.41v-.61h.72v-14.01H34.88c-.91,0-1.66-.75-1.66-1.68v-6.24H121.07v6.24c0,.93-.74,1.68-1.66,1.68Z"/></g><g><path d="M159.69,42.38h-.34v-9.41c0-3.01-2.44-5.44-5.44-5.44h-19.93c-3.01,0-5.44,2.44-5.44,5.44h0v51.6c0,3.01,2.44,5.44,5.44,5.44h19.93c3.01,0,5.44-2.44,5.44-5.44h0V49.07h.34v-6.69Z"/><path class="cls-1" d="M157.77,32.95v51.56c0,2.25-1.8,4.07-4.02,4.07h-19.79c-2.22,0-4.02-1.82-4.02-4.07V32.95c0-2.25,1.8-4.07,4.02-4.07h2.4c-.4,.99,.07,2.12,1.05,2.52,.23,.09,.47,.14,.72,.14h11.28c1.05,0,1.91-.87,1.91-1.93,0-.25-.05-.5-.14-.73h2.57c2.22,0,4.02,1.82,4.02,4.07Z"/></g><path class="cls-4" d="M65.05,14.98h-6.92c-.72,0-1.31,.59-1.31,1.31v6c0,.72,.59,1.31,1.31,1.31h6.92c.72,0,1.31-.59,1.31-1.31v-6c0-.72-.59-1.31-1.31-1.31Z"/><path class="cls-3" d="M100.49,17.3h-30.02c-.41,0-.74,.27-.74,.6,0,.33,.33,.59,.74,.59h30.02c.41,0,.74-.27,.74-.6,0-.33-.33-.59-.74-.59Z"/><path class="cls-3" d="M79.49,20.09h-9.16c-.33,0-.59,.27-.59,.6,0,.33,.27,.59,.59,.59h9.16c.33,0,.59-.27,.59-.6,0-.33-.27-.59-.59-.59Z"/><path class="cls-2" d="M65.05,30.98h-6.92c-.72,0-1.31,.59-1.31,1.31v6c0,.72,.59,1.31,1.31,1.31h6.92c.72,0,1.31-.59,1.31-1.31v-6c0-.72-.59-1.31-1.31-1.31Z"/><path class="cls-3" d="M100.49,33.3h-30.02c-.41,0-.74,.27-.74,.6,0,.33,.33,.59,.74,.59h30.02c.41,0,.74-.27,.74-.6,0-.33-.33-.59-.74-.59Z"/><path class="cls-3" d="M79.49,36.09h-9.16c-.33,0-.59,.27-.59,.6,0,.33,.27,.59,.59,.59h9.16c.33,0,.59-.27,.59-.6,0-.33-.27-.59-.59-.59Z"/><path class="cls-4" d="M65.05,46.98h-6.92c-.72,0-1.31,.59-1.31,1.31v6c0,.72,.59,1.31,1.31,1.31h6.92c.72,0,1.31-.59,1.31-1.31v-6c0-.72-.59-1.31-1.31-1.31Z"/><path class="cls-3" d="M100.49,49.3h-30.02c-.41,0-.74,.27-.74,.6,0,.33,.33,.59,.74,.59h30.02c.41,0,.74-.27,.74-.6,0-.33-.33-.59-.74-.59Z"/><path class="cls-3" d="M79.49,52.09h-9.16c-.33,0-.59,.27-.59,.6,0,.33,.27,.59,.59,.59h9.16c.33,0,.59-.27,.59-.6,0-.33-.27-.59-.59-.59Z"/><path class="cls-4" d="M146.28,37.27h-4.83c-.5,0-.91,.41-.91,.91v4.19c0,.5,.41,.91,.91,.91h4.83c.5,0,.91-.41,.91-.91v-4.19c0-.5-.41-.91-.91-.91Z"/><path class="cls-3" d="M152.29,46.02h-16.85c-.23,0-.42,.19-.42,.42s.19,.42,.42,.42h16.85c.23,0,.42-.19,.42-.42s-.19-.42-.42-.42Z"/><path class="cls-3" d="M141.84,47.97h-6.4c-.23,0-.42,.19-.42,.42s.19,.42,.42,.42h6.4c.23,0,.42-.19,.42-.42s-.19-.42-.42-.42h0Z"/><path class="cls-2" d="M146.28,55.38h-4.83c-.5,0-.91,.41-.91,.91v4.19c0,.5,.41,.91,.91,.91h4.83c.5,0,.91-.41,.91-.91v-4.19c0-.5-.41-.91-.91-.91Z"/><path class="cls-3" d="M152.29,64.13h-16.85c-.23,0-.42,.19-.42,.42s.19,.42,.42,.42h16.85c.23,0,.42-.19,.42-.42s-.19-.42-.42-.42Z"/><path class="cls-3" d="M141.84,66.07h-6.4c-.23,0-.42,.19-.42,.42s.19,.42,.42,.42h6.4c.23,0,.42-.19,.42-.42s-.19-.42-.42-.42h0Z"/><path class="cls-4" d="M146.28,73.48h-4.83c-.5,0-.91,.41-.91,.91v4.19c0,.5,.41,.91,.91,.91h4.83c.5,0,.91-.41,.91-.91v-4.19c0-.5-.41-.91-.91-.91Z"/><path class="cls-3" d="M152.29,82.23h-16.85c-.23,0-.42,.18-.42,.41s.18,.42,.41,.42h16.85c.23,0,.42-.18,.42-.41s-.18-.42-.41-.42h0Z"/><path class="cls-3" d="M141.84,84.18h-6.4c-.23,0-.42,.18-.42,.41s.18,.42,.41,.42h6.4c.23,0,.42-.18,.42-.41s-.18-.42-.41-.42h0Z"/><g><path d="M60,24.05l.07,11.8,.54,.03v4.32l-.51,.03v2.62s.51,0,.51,0v4.37s-.47,0-.47,0l.22,37.64c.01,2.1-1.79,3.81-4.02,3.82l-45.19,.23c-2.23,0-4.05-1.68-4.06-3.78l-.35-60.81c0-2.1,1.79-3.81,4.02-3.82l45.19-.23c2.23,0,4.05,1.68,4.06,3.78Z"/><path class="cls-1" d="M56.99,86.96l-46.74,.24c-.71,0-1.29-.53-1.29-1.19l-.37-62.48c0-.66,.57-1.2,1.28-1.2l46.74-.24c.71,0,1.29,.53,1.29,1.19l.37,62.48c0,.66-.57,1.2-1.28,1.2Z"/></g><path class="cls-4" d="M22.62,41.31h-7.31c-.76,0-1.38-.62-1.38-1.38v-6.34c0-.76,.62-1.38,1.38-1.38h7.31c.76,0,1.38,.62,1.38,1.38v6.34c0,.76-.62,1.38-1.38,1.38Z"/><path class="cls-3" d="M52.79,35.92H27.29c-.35,0-.63-.28-.63-.63s.28-.63,.63-.63h25.49c.35,0,.63,.28,.63,.63s-.28,.63-.63,.63Z"/><path class="cls-3" d="M36.98,38.86h-9.68c-.35,0-.63-.28-.63-.63,0-.35,.28-.63,.63-.63h9.68c.35,0,.63,.28,.63,.63,0,.35-.28,.63-.63,.63,0,0,0,0,0,0h0Z"/><path class="cls-2" d="M22.62,60.07h-7.31c-.76,0-1.38-.62-1.38-1.38v-6.34c0-.76,.62-1.38,1.38-1.38h7.31c.76,0,1.38,.62,1.38,1.38v6.34c0,.76-.62,1.38-1.38,1.38Z"/><path class="cls-3" d="M52.79,54.67H27.29c-.35,0-.63-.28-.63-.63s.28-.63,.63-.63h25.49c.35,0,.63,.28,.63,.63s-.28,.63-.63,.63Z"/><path class="cls-3" d="M36.98,57.62h-9.68c-.35,0-.63-.28-.63-.63s.28-.63,.63-.63h9.68c.35,0,.63,.28,.63,.63s-.28,.63-.63,.63h0Z"/><path class="cls-4" d="M22.62,78.82h-7.31c-.76,0-1.38-.62-1.38-1.38v-6.34c0-.76,.62-1.38,1.38-1.38h7.31c.76,0,1.38,.62,1.38,1.38v6.34c0,.76-.62,1.38-1.38,1.38Z"/><path class="cls-3" d="M52.79,73.43H27.29c-.35,0-.63-.28-.63-.63s.28-.63,.63-.63h25.49c.35,0,.63,.28,.63,.63s-.28,.63-.63,.63Z"/><path class="cls-3" d="M36.98,76.37h-9.68c-.35,0-.63-.28-.63-.63s.28-.63,.63-.63h9.68c.35,0,.63,.28,.63,.63s-.28,.63-.63,.63h0Z"/></svg>