<?xml version="1.0" encoding="UTF-8"?><svg id="Disenoweb-03" xmlns="http://www.w3.org/2000/svg" width="166.42" height="97.56" viewBox="0 0 166.42 97.56"><defs><style>.cls-1{fill:#fff;}.cls-2{fill:#f7c36f;}.cls-3{stroke:#fff;stroke-miterlimit:10;stroke-width:.5px;}.cls-4{fill:#e6e6e6;}.cls-5{fill:#169dec;}.cls-6{fill:#231f20;}</style></defs><path class="cls-1" d="M136.81,10.46c0-.35-.29-.64-.64-.64H22.56c-.35,0-.64,.29-.64,.64v3.74c0,.16,.06,.31,.16,.42-.1,2.54-.16,5.89-.16,9.56v42.86c0,7.92,.29,14.37,.64,14.37h113.62c.35,0,.64-6.44,.64-14.37V24.19c0-3.67-.06-7.02-.16-9.56,.11-.11,.16-.27,.16-.42v-3.74Z"/><path class="cls-6" d="M136.17,81.72H22.56c-.35,0-.56,0-.76-4.51-.12-2.72-.19-6.33-.19-10.17V24.19c0-3.54,.06-6.94,.16-9.57,.2-5.1,.43-5.1,.78-5.1h113.62c.35,0,.58,0,.78,5.1h0c.11,2.63,.16,6.03,.16,9.57v42.86c0,3.84-.07,7.45-.19,10.17-.2,4.51-.41,4.51-.76,4.51Zm-113.44-.61h113.26c.25-.96,.51-6.37,.51-14.06V24.19c0-3.53-.06-6.92-.16-9.55h0c-.13-3.23-.28-4.21-.35-4.51H22.74c-.07,.3-.22,1.28-.35,4.51-.1,2.63-.16,6.02-.16,9.55v42.86c0,7.68,.26,13.09,.51,14.06Z"/><path class="cls-6" d="M136.17,9.82H22.56c-.35,0-.64,.29-.64,.64v3.74c0,.16,.06,.31,.16,.42,.12,.14,.29,.21,.47,.22h113.62c.18,0,.35-.08,.47-.22,.11-.11,.16-.27,.16-.42v-3.74c0-.35-.29-.64-.64-.64Z"/><circle id="b7005a6f-2f7f-4001-b097-d8b6c117468f" class="cls-1" cx="25.62" cy="12.15" r=".9"/><circle id="a0adf4f5-8105-4330-a35a-c3adb8f4e7bc" class="cls-1" cx="29.05" cy="12.15" r=".9"/><circle id="a64b73a5-7207-44c1-bcaf-f99ab7b9c6dc" class="cls-1" cx="32.48" cy="12.15" r=".9"/><path class="cls-1" d="M132.81,10.94h-3.95c-.16,0-.29,.13-.29,.29,0,.16,.13,.29,.29,.29h3.95c.16,0,.29-.13,.29-.29,0-.16-.13-.29-.29-.29h0Z"/><path class="cls-1" d="M132.81,12.04h-3.95c-.16,0-.29,.13-.29,.29,0,.16,.13,.29,.29,.29h3.95c.16,0,.29-.13,.29-.29,0-.16-.13-.29-.29-.29h0Z"/><path class="cls-1" d="M132.81,13.14h-3.95c-.16,0-.29,.13-.29,.29,0,.16,.13,.29,.29,.29h3.95c.16,0,.29-.13,.29-.29,0-.16-.13-.29-.29-.29h0Z"/><path class="cls-4" d="M34.54,36.03c-.2,0-.36,.16-.36,.36v18.38c0,.2,.16,.36,.36,.36h21.23c.2,0,.36-.16,.36-.36v-18.38c0-.2-.16-.36-.36-.36h-21.23Z"/><path class="cls-4" d="M68.63,36.09c-.2,0-.36,.16-.36,.36v18.33c0,.2,.16,.36,.36,.36h21.16c.2,0,.36-.16,.36-.36v-18.33c0-.2-.16-.36-.36-.36h-21.16Z"/><path class="cls-4" d="M102.36,35.9c-.2,0-.36,.16-.36,.36v18.52c0,.2,.16,.36,.36,.36h21.38c.2,0,.36-.16,.36-.36v-18.52c0-.2-.16-.36-.36-.36h-21.38Z"/><path class="cls-4" d="M34.93,64.24c-.42,0-.75,.34-.75,.75,0,.41,.34,.75,.75,.75h19.96c.42,0,.75-.34,.75-.75,0-.41-.34-.75-.75-.75h-19.96Z"/><path class="cls-5" d="M34.93,67.82c-.42,0-.75,.34-.75,.75,0,.41,.34,.75,.75,.75h8.99c.42,0,.75-.34,.75-.75,0-.41-.34-.75-.75-.75h-8.99Z"/><path class="cls-4" d="M69.39,64.24c-.42,0-.75,.34-.75,.75,0,.41,.34,.75,.75,.75h19.96c.42,0,.75-.34,.75-.75,0-.41-.34-.75-.75-.75h-19.96Z"/><path class="cls-5" d="M69.39,67.82c-.42,0-.75,.34-.75,.75,0,.41,.34,.75,.75,.75h8.99c.42,0,.75-.34,.75-.75,0-.41-.34-.75-.75-.75h-8.99Z"/><path class="cls-4" d="M102.98,64.24c-.42,0-.75,.34-.75,.75,0,.41,.34,.75,.75,.75h19.96c.42,0,.75-.34,.75-.75,0-.41-.34-.75-.75-.75h-19.96Z"/><path class="cls-4" d="M34.93,60.55c-.42,0-.75,.34-.75,.75,0,.41,.34,.75,.75,.75h19.96c.42,0,.75-.34,.75-.75,0-.41-.34-.75-.75-.75h-19.96Z"/><path class="cls-4" d="M69.39,60.55c-.42,0-.75,.34-.75,.75,0,.41,.34,.75,.75,.75h19.96c.42,0,.75-.34,.75-.75,0-.41-.34-.75-.75-.75h-19.96Z"/><path class="cls-4" d="M102.98,60.55c-.42,0-.75,.34-.75,.75,0,.41,.34,.75,.75,.75h19.96c.42,0,.75-.34,.75-.75,0-.41-.34-.75-.75-.75h-19.96Z"/><path class="cls-4" d="M34.93,25.43c-.42,0-.75,.34-.75,.75,0,.41,.34,.75,.75,.75H122c.42,0,.75-.34,.75-.75,0-.41-.34-.75-.75-.75H34.93Z"/><path class="cls-5" d="M102.98,67.82c-.42,0-.75,.34-.75,.75,0,.41,.34,.75,.75,.75h8.99c.42,0,.75-.34,.75-.75,0-.41-.34-.75-.75-.75h-8.99Z"/><g><circle class="cls-5" cx="32.48" cy="49.43" r="5.35"/><path class="cls-1" d="M35.26,46.3c-.26-.15-.64-.07-.78,.21-.64,1.26-1.27,2.52-1.91,3.78-.51-.8-1.17-1.51-1.93-2.09-.25-.19-.64-.04-.78,.21-.17,.3-.04,.59,.21,.78,.89,.69,1.57,1.61,2.03,2.63,.18,.39,.81,.36,.99,0,.79-1.57,1.59-3.15,2.38-4.72,.14-.28,.07-.62-.21-.78h0Z"/></g><path class="cls-4" d="M34.93,29.36c-.42,0-.75,.34-.75,.75,0,.41,.34,.75,.75,.75H122c.42,0,.75-.34,.75-.75,0-.41-.34-.75-.75-.75H34.93Z"/><g><path class="cls-1" d="M128.44,92.3l-48.42-8.86c-.28-.05-.56-.13-.83-.24s-.52-.24-.77-.39c-.24-.16-.47-.34-.68-.54-.21-.2-.39-.42-.56-.66-.16-.24-.3-.49-.42-.75-.11-.26-.2-.54-.26-.82-.06-.28-.09-.57-.1-.85s.02-.58,.07-.86l9.04-49.5c.05-.28,.13-.56,.24-.83,.11-.27,.24-.52,.39-.76,.16-.24,.34-.47,.54-.68s.42-.39,.66-.56,.49-.3,.75-.42,.54-.2,.82-.26c.28-.06,.57-.09,.86-.1,.29,0,.57,.02,.86,.07l48.43,8.85c.28,.05,.56,.13,.83,.24s.52,.24,.77,.4,.47,.34,.67,.54c.21,.2,.39,.42,.56,.66,.16,.24,.3,.49,.42,.75,.12,.26,.2,.54,.26,.82,.06,.28,.1,.57,.1,.85,0,.29-.02,.58-.07,.86l-9.04,49.49c-.05,.29-.13,.56-.23,.83-.11,.27-.24,.53-.39,.77s-.33,.47-.54,.68c-.2,.21-.42,.39-.66,.56-.24,.16-.49,.3-.75,.42-.27,.11-.54,.2-.82,.26s-.57,.09-.86,.1c-.29,0-.58-.02-.86-.07Z"/><path d="M78.43,83.51c-.46-.23-.88-.52-1.24-.88s-.66-.77-.9-1.23c-.23-.46-.38-.94-.46-1.45-.07-.51-.06-1.02,.03-1.52l9.04-49.67c.06-.31,.14-.6,.26-.89,.11-.29,.25-.56,.42-.82s.36-.5,.58-.72c.21-.22,.45-.42,.71-.6,.25-.18,.52-.32,.81-.45s.58-.22,.88-.28c.3-.06,.61-.1,.92-.1,.31,0,.62,.02,.92,.08l48.6,8.89c.31,.05,.6,.14,.89,.25s.56,.26,.82,.43c.26,.17,.5,.36,.72,.58,.22,.21,.42,.45,.6,.71,.18,.25,.32,.52,.45,.81,.12,.28,.21,.58,.28,.88,.06,.3,.1,.61,.1,.92,0,.31-.02,.62-.08,.92l-9.07,49.66c-.06,.31-.14,.6-.26,.89-.11,.29-.26,.56-.42,.82s-.36,.5-.58,.73c-.22,.22-.45,.42-.71,.6-.25,.18-.52,.32-.81,.45-.29,.12-.58,.22-.88,.28-.3,.07-.61,.1-.92,.1-.31,0-.62-.02-.92-.07l-48.6-8.89c-.42-.08-.82-.21-1.2-.4Zm61.54-48.7c-.34-.17-.69-.29-1.07-.36l-48.62-8.89c-.27-.05-.53-.07-.8-.07-.27,0-.54,.03-.8,.09s-.52,.14-.77,.25-.48,.24-.7,.39c-.22,.15-.43,.33-.61,.52-.19,.2-.35,.41-.5,.63-.14,.23-.27,.47-.37,.72s-.17,.51-.22,.77l-9.07,49.66c-.05,.27-.07,.53-.07,.8,0,.27,.03,.54,.09,.8,.06,.26,.14,.52,.25,.77,.11,.25,.24,.48,.39,.71,.15,.22,.33,.43,.52,.61,.19,.19,.4,.36,.63,.5,.23,.15,.46,.27,.72,.37s.51,.17,.78,.22l48.6,8.89c.27,.05,.53,.07,.8,.07,.27,0,.54-.03,.8-.09,.26-.06,.52-.14,.77-.25,.25-.11,.48-.24,.7-.39,.22-.15,.43-.33,.61-.52s.35-.41,.5-.63c.14-.23,.27-.47,.37-.72s.17-.51,.22-.77l9.07-49.68c.08-.44,.09-.88,.02-1.32-.07-.44-.2-.86-.4-1.26-.2-.4-.47-.75-.78-1.07-.32-.31-.68-.57-1.08-.76h.02Z"/><path class="cls-5" d="M85.8,61.87c-.15-.07-.21-.18-.17-.34,.01-.08,.06-.15,.13-.2,.07-.05,.15-.07,.23-.05l44.47,8.14c.1,0,.18,.04,.24,.11,.06,.08,.08,.16,.07,.26-.02,.1-.07,.17-.15,.22-.09,.05-.17,.06-.26,.03l-44.48-8.15-.08-.02Zm.9-4.75l44.47,8.13c.09,.02,.16,0,.23-.05,.07-.05,.11-.12,.13-.2,.02-.08,0-.17-.05-.24-.05-.07-.12-.11-.2-.13l-44.51-8.15c-.07,0-.15,0-.21,.04-.06,.04-.11,.1-.13,.17-.02,.07-.02,.14,0,.21,.03,.07,.08,.13,.14,.16l.12,.04Zm1.19-5.63l44.48,8.14c.08,.01,.16,0,.23-.05,.07-.05,.11-.11,.13-.2,.01-.08,0-.16-.05-.24-.05-.07-.12-.11-.2-.13l-44.47-8.13c-.09-.02-.16,0-.23,.05-.07,.05-.11,.12-.13,.2-.04,.16,.02,.27,.17,.34l.08,.02Zm33.56-2.28l12.4,2.27c.06,.01,.12,0,.17-.03,.05-.04,.08-.09,.09-.15,.01-.06,0-.11-.03-.16-.03-.05-.08-.08-.14-.09l-12.4-2.27c-.05-.01-.1,0-.15,.02-.05,.03-.08,.06-.09,.11-.02,.05-.01,.1,0,.15,.02,.05,.06,.08,.1,.1l.04,.04Zm.39-2.55l12.4,2.27c.06,.01,.11,0,.16-.03,.05-.03,.08-.08,.09-.14,.01-.06,0-.11-.03-.15-.03-.05-.08-.08-.13-.09l-12.4-2.27c-.06,0-.11,0-.16,.04-.05,.03-.08,.08-.09,.13-.02,.1,.02,.18,.11,.22h.05Zm.46-2.67l12.4,2.27c.06,0,.11,0,.15-.03,.05-.03,.08-.08,.09-.13,0-.06,0-.11-.03-.16-.03-.05-.08-.08-.14-.09l-12.4-2.26c-.06-.01-.11,0-.15,.03-.05,.03-.08,.08-.08,.13-.02,.1,.02,.18,.11,.22l.06,.02Zm-37.32,22.92l44.48,8.14c.08,.02,.16,0,.23-.05,.07-.05,.11-.12,.13-.2,.02-.09,0-.16-.05-.23-.05-.07-.12-.12-.2-.13l-44.48-8.14c-.07-.01-.15,0-.21,.04-.07,.04-.11,.1-.13,.17-.02,.07-.02,.14,0,.21,.03,.07,.08,.13,.14,.16l.08,.02Z"/><path class="cls-2" d="M104.53,24.3l-.62,3.38-.7-.12,.6-3.4c.05-.28,.05-.57-.02-.85-.06-.28-.17-.54-.34-.78-.16-.24-.37-.43-.61-.59-.24-.16-.51-.26-.79-.31l-4.17-.78c-.28-.04-.56-.02-.83,.05-.28,.07-.53,.19-.75,.35s-.42,.37-.56,.61c-.15,.24-.25,.5-.29,.78l-3.73,20.41c-.05,.28-.05,.57,.01,.85,.06,.28,.18,.54,.34,.78,.16,.24,.37,.43,.61,.59,.24,.16,.5,.26,.79,.31l2.39,.43c.28,.05,.57,.05,.85-.01s.54-.17,.78-.34c.24-.17,.44-.37,.59-.61,.16-.24,.26-.5,.31-.79l2.27-12.41c.05-.28,.05-.57-.01-.85-.06-.28-.17-.54-.34-.78-.16-.24-.37-.44-.61-.59s-.5-.26-.79-.31c-.28-.05-.57-.05-.85,.02-.28,.06-.54,.17-.78,.34-.24,.17-.43,.37-.59,.61-.16,.24-.26,.51-.31,.79l-1.69,9.19c-.05,.28-.05,.56,.01,.85,.06,.28,.17,.54,.34,.78,.16,.24,.37,.44,.61,.59s.51,.26,.79,.31l.54,.1c.1,.02,.17,.07,.23,.15,.06,.08,.07,.17,.06,.26-.02,.1-.07,.17-.15,.22-.08,.05-.17,.07-.26,.06l-.54-.1c-.18-.04-.36-.09-.54-.16s-.34-.15-.5-.26c-.16-.1-.31-.22-.44-.35-.14-.13-.26-.28-.37-.43s-.2-.32-.27-.49c-.08-.18-.13-.35-.17-.54-.04-.18-.06-.37-.07-.56s0-.38,.04-.56l1.69-9.19c.03-.19,.07-.38,.14-.57s.15-.36,.25-.53,.22-.32,.35-.47c.13-.14,.28-.27,.43-.39s.33-.21,.5-.29,.36-.14,.55-.19c.19-.04,.38-.07,.58-.07,.19,0,.39,0,.58,.05,.19,.03,.38,.09,.56,.16s.35,.16,.52,.27c.16,.11,.31,.23,.45,.37,.14,.14,.26,.29,.37,.45,.11,.16,.2,.34,.27,.52,.07,.18,.13,.37,.16,.56,.03,.19,.05,.38,.04,.58s-.03,.39-.08,.58l-2.27,12.41c-.03,.18-.09,.37-.16,.54-.07,.18-.15,.34-.26,.5-.1,.16-.22,.31-.35,.44-.13,.14-.28,.26-.43,.37-.16,.11-.32,.2-.49,.27-.17,.07-.35,.13-.54,.17s-.37,.06-.56,.07c-.19,0-.38,0-.56-.04l-2.4-.45c-.19-.03-.37-.08-.55-.15-.18-.07-.35-.15-.51-.26-.16-.1-.31-.22-.45-.35-.14-.13-.26-.28-.37-.43-.11-.16-.2-.32-.28-.5-.08-.18-.13-.36-.17-.54-.04-.18-.06-.37-.06-.56s.01-.38,.05-.57l3.73-20.41c.03-.18,.09-.37,.16-.54,.07-.17,.15-.34,.26-.5,.1-.16,.22-.3,.35-.44,.13-.13,.27-.26,.43-.36s.32-.2,.49-.27c.17-.07,.35-.13,.54-.17,.18-.04,.37-.06,.56-.06,.19,0,.37,.01,.56,.05l4.18,.77c.18,.03,.36,.09,.54,.16,.17,.07,.34,.16,.5,.26,.16,.1,.3,.22,.44,.35s.25,.27,.36,.43,.2,.32,.27,.49c.07,.17,.13,.35,.17,.53,.04,.18,.06,.37,.06,.56s-.01,.37-.05,.56Z"/><path d="M127.43,81.79c-.46,.03-.93,.04-1.39,.02-.5-.01-.99-.05-1.49-.12,.07-.09,.14-.18,.2-.28,.2-.32,.47-.76,.3-1.19-.18-.44-.73-.66-1.64-.64-.68,.01-1.3,.2-1.83,.43,.11-.31,.16-.63,.02-.9-.3-.6-1.2-.62-2.66-.45-1.52,.18-3.07,.5-4.61,.95-.2,.06-.31,.26-.25,.46,.04,.12,.13,.21,.25,.25,.07,.02,.14,.02,.21,0,1.49-.44,3-.75,4.49-.92,1.66-.2,1.88-.02,1.91,.04,0,0,.09,.21-.38,.92-.19,.28-.41,.46-.54,.56-.3,.24-.25,.45-.16,.58,.06,.08,.15,.14,.25,.15,.17,.03,.27-.04,.46-.19,.42-.31,1.54-1.12,2.86-1.15,.69-.01,.92,.14,.94,.17,.03,.09-.17,.42-.24,.53-.15,.24-.35,.45-.59,.62-.12,.08-.18,.23-.15,.38s.15,.26,.29,.29c.77,.14,1.56,.23,2.34,.25,.49,.01,.98,0,1.46-.03,.2-.01,.36-.19,.34-.39-.01-.2-.19-.36-.39-.34Z"/><path d="M125.32,84.12l-9.27-1.92c-.2-.04-.4,.09-.44,.29-.04,.19,.07,.37,.25,.43,.01,0,.02,0,.04,0l9.27,1.92c.2,.04,.4-.09,.44-.29,.04-.2-.09-.4-.29-.44Z"/><path class="cls-3" d="M109.84,42.08s0-.02,0-.03c0-.03,0-.06,0-.1s0-.06-.01-.1c0-.01,0-.02,0-.03l-1-2.86,3.04-.45c.16,.33,.42,.61,.75,.78l-1.1,5.22c-1.17-.06-2.31,.56-2.87,1.61-.07,.14-.08,.3-.01,.44,.07,.14,.19,.24,.34,.27l4.88,1.03c.15,.03,.31,0,.42-.11,.12-.1,.18-.25,.17-.41-.09-1.19-.88-2.21-1.97-2.63l1.1-5.22c.37-.03,.72-.18,1-.42l2.6,1.65-2.07,2.21s-.01,.02-.02,.03c-.02,.03-.04,.05-.05,.08s-.03,.06-.04,.09c0,.01-.01,.02-.01,.03-.27,1.27,.55,2.52,1.83,2.79s2.53-.54,2.8-1.81c0-.01,0-.02,0-.03,0-.03,0-.06,0-.1,0-.03,0-.06-.01-.1,0-.01,0-.02,0-.03l-1.19-3.42s-.02-.04-.03-.05c-.01-.03-.03-.05-.04-.07-.03-.03-.06-.06-.09-.09-.01-.01-.02-.03-.04-.04l-3.1-1.96s.03-.07,.04-.12c.2-.93-.4-1.85-1.34-2.05-.94-.2-1.86,.4-2.06,1.33,0,.04,0,.08-.01,.12l-3.63,.54s-.03,.01-.05,.02c-.04,.01-.08,.02-.12,.05-.03,.01-.05,.03-.07,.05-.02,.01-.04,.02-.05,.04l-2.47,2.65s-.01,.02-.02,.03c-.02,.03-.04,.05-.05,.08s-.03,.06-.04,.09c0,.01-.01,.02-.01,.03-.27,1.27,.55,2.52,1.83,2.79,1.27,.27,2.53-.54,2.8-1.81Zm7.9-.53l.64,1.83-1.96-.41,1.32-1.42Zm-.73,3.44c-.58-.12-.99-.58-1.08-1.13l2.52,.53c-.3,.46-.87,.72-1.44,.59Zm-3.72,1.75l-3.36-.71c.49-.45,1.19-.65,1.86-.51s1.23,.61,1.5,1.22Zm.3-9.7c.41,.09,.67,.48,.59,.89s-.49,.66-.9,.58-.67-.49-.59-.89,.49-.66,.9-.58Zm-4.98,4.28l-1.96-.41,1.32-1.42,.64,1.83Zm-2.45,.48l2.52,.53c-.3,.46-.87,.72-1.44,.59s-.99-.58-1.08-1.13Z"/></g></svg>