<?xml version="1.0" encoding="UTF-8"?><svg id="Disenoweb-08" xmlns="http://www.w3.org/2000/svg" width="166.42" height="97.56" viewBox="0 0 166.42 97.56"><defs><style>.cls-1{fill:#fff;}.cls-2{fill:#169dec;}.cls-3{fill:#f7b233;}</style></defs><path d="M128.76,51.56H36.89c-.39,0-.78-.02-1.16-.07-.38-.05-.75-.12-1.11-.21-.36-.09-.7-.21-1.03-.34-.32-.13-.63-.29-.91-.46-.28-.18-.54-.37-.76-.57-.23-.21-.42-.44-.58-.67-.16-.24-.28-.49-.37-.74-.08-.26-.12-.53-.13-.79V12.17c0-.26,.04-.53,.13-.79,.08-.26,.21-.51,.37-.75,.15-.23,.35-.46,.58-.67,.22-.2,.47-.4,.76-.57,.29-.18,.59-.33,.92-.46,.32-.13,.67-.25,1.03-.34,.35-.09,.72-.16,1.11-.21,.39-.05,.77-.07,1.16-.07h91.88c.39,0,.77,.03,1.15,.07,.37,.05,.75,.12,1.11,.21,.36,.09,.71,.21,1.03,.34,.32,.13,.63,.29,.91,.46,.29,.18,.54,.37,.76,.57,.23,.21,.42,.43,.57,.67,.16,.23,.28,.48,.36,.74,.08,.26,.12,.53,.12,.79V47.72c0,.26-.05,.53-.13,.78-.08,.26-.21,.5-.37,.74-.15,.23-.34,.45-.57,.66-.22,.21-.48,.4-.76,.57-.27,.17-.58,.33-.91,.46-.32,.13-.66,.25-1.03,.34-.36,.09-.73,.16-1.11,.21-.38,.05-.76,.07-1.15,.07ZM36.89,9.16c-.34,0-.68,.02-1.01,.06-.33,.04-.66,.1-.97,.18-.32,.08-.61,.18-.89,.29-.28,.11-.54,.25-.77,.39-.23,.14-.44,.3-.62,.47-.17,.16-.33,.34-.45,.52-.12,.17-.21,.36-.27,.54-.06,.18-.09,.37-.09,.55V47.72c0,.18,.03,.37,.09,.55,.06,.19,.15,.37,.27,.55,.12,.18,.27,.35,.45,.52,.18,.16,.39,.32,.62,.47,.23,.15,.49,.28,.77,.39,.27,.11,.57,.21,.89,.29,.32,.08,.64,.14,.97,.18,.33,.04,.67,.06,1.01,.06h91.87c.34,0,.68-.02,1.01-.06,.33-.04,.66-.1,.97-.18,.31-.08,.61-.18,.89-.29,.28-.11,.53-.25,.77-.39,.23-.14,.44-.3,.62-.47,.18-.17,.33-.34,.45-.52,.12-.18,.21-.36,.27-.54,.06-.18,.09-.37,.09-.55V12.17c0-.18-.03-.37-.09-.55-.06-.18-.15-.37-.27-.54-.12-.18-.27-.36-.45-.52-.18-.17-.39-.32-.62-.47-.23-.15-.49-.28-.77-.39-.28-.11-.58-.21-.89-.29-.31-.08-.64-.14-.97-.18-.33-.04-.67-.06-1.01-.06H36.89Z"/><g><path class="cls-3" d="M118.67,70.52l-4.39-8.91-4.39,8.91-9.81,1.43,7.1,6.93-1.68,9.79,8.77-4.62,8.77,4.62-1.68-9.79,7.1-6.93-9.81-1.43Z"/><path class="cls-1" d="M123.47,89.25l-9.19-4.84-9.19,4.84,1.76-10.26-7.44-7.26,10.28-1.49,4.6-9.33,4.6,9.33,10.28,1.49-7.44,7.26,1.76,10.26Zm-22.71-17.08l6.76,6.6-1.6,9.32,8.36-4.4,8.36,4.4-1.6-9.32,6.76-6.6-9.34-1.36-4.18-8.48-4.18,8.48-9.34,1.36Z"/></g><g><path class="cls-3" d="M148.89,70.52l-4.39-8.91-4.39,8.91-9.81,1.43,7.1,6.93-1.68,9.79,8.77-4.62,8.77,4.62-1.68-9.79,7.1-6.93-9.81-1.43Z"/><path class="cls-1" d="M153.69,89.25l-9.19-4.84-9.19,4.84,1.76-10.26-7.44-7.26,10.28-1.49,4.6-9.33,4.6,9.33,10.28,1.49-7.44,7.26,1.76,10.26Zm-22.71-17.08l6.76,6.6-1.6,9.32,8.36-4.4,8.36,4.4-1.6-9.32,6.76-6.6-9.34-1.36-4.18-8.48-4.18,8.48-9.34,1.36Z"/></g><g><path class="cls-3" d="M58.29,70.52l-4.39-8.91-4.39,8.91-9.81,1.43,7.1,6.93-1.68,9.79,8.77-4.62,8.77,4.62-1.68-9.79,7.1-6.93-9.81-1.43Z"/><path class="cls-1" d="M63.1,89.25l-9.19-4.84-9.19,4.84,1.76-10.26-7.44-7.26,10.28-1.49,4.6-9.33,4.6,9.33,10.27,1.49-7.44,7.26,1.76,10.26Zm-22.71-17.08l6.76,6.6-1.6,9.32,8.36-4.4,8.36,4.4-1.6-9.32,6.76-6.6-9.34-1.36-4.18-8.48-4.18,8.48-9.34,1.36Z"/></g><g><path class="cls-3" d="M88.51,70.52l-4.39-8.91-4.39,8.91-9.81,1.43,7.1,6.93-1.68,9.79,8.77-4.62,8.77,4.62-1.68-9.79,7.1-6.93-9.81-1.43Z"/><path class="cls-1" d="M93.32,89.25l-9.19-4.84-9.19,4.84,1.76-10.26-7.44-7.26,10.28-1.49,4.6-9.33,4.6,9.33,10.28,1.49-7.44,7.26,1.76,10.26Zm-22.71-17.08l6.76,6.6-1.6,9.32,8.36-4.4,8.36,4.4-1.6-9.32,6.76-6.6-9.34-1.36-4.18-8.48-4.18,8.48-9.34,1.36Z"/></g><g><path class="cls-3" d="M28.07,70.52l-4.39-8.91-4.39,8.91-9.81,1.43,7.1,6.93-1.68,9.79,8.77-4.62,8.77,4.62-1.68-9.79,7.1-6.93-9.81-1.43Z"/><path class="cls-1" d="M32.87,89.25l-9.19-4.84-9.19,4.84,1.76-10.26-7.44-7.26,10.28-1.49,4.6-9.33,4.6,9.33,10.27,1.49-7.44,7.26,1.76,10.26Zm-22.71-17.08l6.76,6.6-1.6,9.32,8.36-4.4,8.36,4.4-1.6-9.32,6.76-6.6-9.34-1.36-4.18-8.48-4.18,8.48-9.34,1.36Z"/></g><path d="M121.71,87.69l-9.19-4.84-9.19,4.84,1.76-10.26-7.44-7.26,10.28-1.49,4.6-9.33,4.6,9.33,10.27,1.49-7.44,7.26,1.76,10.26Zm-22.71-17.08l6.76,6.6-1.6,9.32,8.36-4.4,8.35,4.4-1.6-9.32,6.76-6.6-9.34-1.36-4.18-8.48-4.18,8.48-9.34,1.36Z"/><path d="M151.93,87.69l-9.19-4.84-9.19,4.84,1.76-10.26-7.44-7.26,10.28-1.49,4.6-9.33,4.6,9.33,10.27,1.49-7.44,7.26,1.76,10.26Zm-22.71-17.08l6.76,6.6-1.6,9.32,8.36-4.4,8.36,4.4-1.6-9.32,6.76-6.6-9.34-1.36-4.18-8.48-4.18,8.48-9.34,1.36Z"/><path d="M61.33,87.69l-9.19-4.84-9.19,4.84,1.76-10.26-7.44-7.26,10.28-1.49,4.6-9.33,4.6,9.33,10.27,1.49-7.44,7.26,1.76,10.26Zm-22.71-17.08l6.76,6.6-1.6,9.32,8.36-4.4,8.35,4.4-1.6-9.32,6.76-6.6-9.34-1.36-4.18-8.48-4.18,8.48-9.34,1.36Z"/><path d="M91.55,87.69l-9.19-4.84-9.19,4.84,1.76-10.26-7.44-7.26,10.28-1.49,4.6-9.33,4.6,9.33,10.27,1.49-7.44,7.26,1.76,10.26Zm-22.71-17.08l6.76,6.6-1.6,9.32,8.36-4.4,8.36,4.4-1.6-9.32,6.76-6.6-9.34-1.36-4.18-8.48-4.18,8.48-9.34,1.36Z"/><path d="M31.11,87.69l-9.19-4.84-9.19,4.84,1.76-10.26-7.44-7.26,10.28-1.49,4.6-9.33,4.6,9.33,10.28,1.49-7.44,7.26,1.76,10.26Zm-22.71-17.08l6.76,6.6-1.6,9.32,8.36-4.4,8.36,4.4-1.6-9.32,6.76-6.6-9.34-1.36-4.18-8.48-4.18,8.48-9.34,1.36Z"/><g><path class="cls-2" d="M59.04,38.16h-3.13v4.08h-6.25v-4.08h-9.68v-4.69l10.84-15.42h5.1v15.26h3.13v4.86Zm-9.38-4.86v-5.71l-3.97,5.71h3.97Z"/><path class="cls-2" d="M67.33,35.92v3.98c0,1.47-.27,2.81-.8,4.01-.53,1.2-1.44,2.42-2.74,3.67l-2.28-1.83c1.25-1.25,2-2.41,2.28-3.5h-2.89v-6.32h6.42Z"/><path class="cls-2" d="M85.66,20.9c1.75,2.11,2.63,5.11,2.63,9,0,2.61-.42,4.86-1.26,6.76-.84,1.9-2.05,3.36-3.64,4.37-1.59,1.01-3.47,1.51-5.64,1.51-1.54,0-3.02-.23-4.45-.68-1.43-.45-2.64-1.09-3.64-1.9l2-4.52c2.02,1.45,3.94,2.17,5.78,2.17,2.72,0,4.21-2,4.48-6.01-.52,.75-1.22,1.33-2.11,1.75-.88,.42-1.86,.63-2.92,.63-1.38,0-2.62-.34-3.72-1.02-1.1-.68-1.96-1.61-2.58-2.8-.62-1.19-.93-2.54-.93-4.06,0-1.61,.36-3.05,1.09-4.32,.72-1.27,1.73-2.26,3.02-2.97,1.29-.71,2.75-1.07,4.38-1.07,3.24,0,5.74,1.05,7.49,3.16Zm-5.03,7.27c.53-.59,.8-1.37,.8-2.34s-.27-1.69-.82-2.29c-.54-.6-1.23-.9-2.07-.9-.88,0-1.59,.29-2.11,.88-.52,.59-.78,1.36-.78,2.31s.25,1.78,.76,2.36c.51,.58,1.22,.87,2.12,.87s1.56-.29,2.09-.88Z"/><path class="cls-2" d="M120.43,27.36c1.18,.66,2.09,1.57,2.75,2.75,.66,1.18,.98,2.54,.98,4.08,0,1.68-.4,3.14-1.21,4.4-.8,1.26-1.95,2.23-3.43,2.9-1.48,.68-3.21,1.02-5.18,1.02-1.56,0-3.11-.24-4.65-.71-1.54-.48-2.77-1.1-3.7-1.87l1.97-4.52c2.08,1.45,4.25,2.17,6.49,2.17,1.27,0,2.21-.25,2.82-.76,.61-.51,.92-1.3,.92-2.36s-.32-1.84-.97-2.4c-.65-.55-1.55-.83-2.7-.83-.63,0-1.32,.11-2.06,.32-.74,.22-1.42,.49-2.06,.83h-3.5v-14.34h15.97v4.82h-9.79v4.15c.93-.43,2.04-.65,3.33-.65,1.49,0,2.83,.33,4.01,.98Z"/></g><path class="cls-2" d="M89.95,44.42l8.94-27.93h4.96l-8.97,27.93h-4.93Z"/></svg>