<?xml version="1.0" encoding="UTF-8"?><svg id="Disenoweb-07" xmlns="http://www.w3.org/2000/svg" width="166.42" height="97.56" viewBox="0 0 166.42 97.56"><defs><style>.cls-1{fill:#fff;}.cls-2{fill:#f7b233;stroke:#fff;stroke-miterlimit:10;}.cls-3{fill:#169dec;}.cls-4{fill:#d1d3d4;}.cls-5{fill:#231f20;}</style></defs><rect class="cls-2" x="41.57" y="56.39" width="34.72" height="36.54"/><path class="cls-5" d="M76.29,92.93H41.57c-.14,0-.25-.09-.25-.19V56.33c0-.11,.11-.19,.25-.2,0,0,0,0,0,0h34.72c.14,0,.26,.09,.26,.2h0v36.4c0,.11-.11,.19-.25,.19,0,0,0,0,0,0Zm-34.47-.38h34.22V56.53H41.83v36.02Z"/><rect class="cls-1" x="38.81" y="53.69" width="40.23" height="11.4" rx="2.77" ry="2.77"/><path class="cls-5" d="M76.28,65.34H41.58c-1.67,0-3.02-1.35-3.02-3.02v-5.87c0-1.67,1.35-3.02,3.02-3.02h34.7c1.67,0,3.02,1.35,3.02,3.02v5.87c0,1.67-1.35,3.02-3.02,3.02Zm-34.7-11.4c-1.39,0-2.51,1.13-2.51,2.51v5.87c0,1.39,1.13,2.51,2.51,2.51h34.7c1.39,0,2.51-1.13,2.51-2.51v-5.87c0-1.39-1.13-2.51-2.51-2.51H41.58Z"/><path class="cls-4" d="M43.58,60.62c-.68,0-1.23-.55-1.23-1.23s.55-1.23,1.23-1.23,1.23,.55,1.23,1.23-.55,1.23-1.23,1.23Zm0-1.97c-.41,0-.74,.33-.74,.74s.33,.74,.74,.74,.74-.33,.74-.74-.33-.74-.74-.74h0Z"/><path class="cls-4" d="M47.74,60.62c-.68,0-1.23-.55-1.23-1.23s.55-1.23,1.23-1.23,1.23,.55,1.23,1.23c0,.68-.55,1.23-1.23,1.23Zm0-1.97c-.41,0-.74,.33-.74,.74s.33,.74,.74,.74,.74-.33,.74-.74c0-.41-.33-.74-.74-.74Z"/><path class="cls-4" d="M75.28,60.2h-23.91c-.14,0-.25-.11-.25-.25v-1.16c0-.14,.11-.25,.25-.25h23.91c.14,0,.25,.11,.25,.25v1.16c0,.14-.11,.24-.25,.25Zm-23.66-.49h23.42v-.67h-23.42v.67Z"/><rect class="cls-1" x="38.81" y="67.73" width="40.23" height="11.4" rx="2.77" ry="2.77"/><path class="cls-5" d="M76.28,79.39H41.58c-1.67,0-3.02-1.35-3.02-3.02v-5.87c0-1.67,1.35-3.02,3.02-3.02h34.7c1.67,0,3.02,1.35,3.02,3.02v5.87c0,1.67-1.35,3.02-3.02,3.02Zm-34.7-11.4c-1.39,0-2.51,1.13-2.51,2.51v5.87c0,1.39,1.13,2.51,2.51,2.51h34.7c1.39,0,2.51-1.13,2.51-2.51v-5.87c0-1.39-1.13-2.51-2.51-2.51H41.58Z"/><path class="cls-4" d="M43.58,74.67c-.68,0-1.23-.55-1.23-1.23s.55-1.23,1.23-1.23,1.23,.55,1.23,1.23-.55,1.23-1.23,1.23Zm0-1.97c-.41,0-.74,.33-.74,.74s.33,.74,.74,.74,.74-.33,.74-.74-.33-.74-.74-.74Z"/><path class="cls-4" d="M47.74,74.67c-.68,0-1.23-.55-1.23-1.23s.55-1.23,1.23-1.23,1.23,.55,1.23,1.23c0,.68-.55,1.23-1.23,1.23Zm0-1.97c-.41,0-.74,.33-.74,.74s.33,.74,.74,.74,.74-.33,.74-.74c0-.41-.33-.74-.74-.74Z"/><path class="cls-4" d="M75.28,74.26h-23.91c-.14,0-.25-.11-.25-.25v-1.16c0-.14,.11-.25,.25-.25h23.91c.14,0,.25,.11,.25,.25v1.15c0,.14-.1,.26-.24,.26,0,0,0,0,0,0Zm-23.66-.49h23.42v-.67h-23.42v.67Z"/><rect class="cls-1" x="38.81" y="81.78" width="40.23" height="11.4" rx="2.77" ry="2.77"/><path class="cls-5" d="M76.28,93.44H41.58c-1.67,0-3.02-1.35-3.02-3.02v-5.87c0-1.67,1.35-3.02,3.02-3.02h34.7c1.67,0,3.02,1.35,3.02,3.02v5.87c0,1.67-1.35,3.02-3.02,3.02Zm-34.7-11.4c-1.39,0-2.51,1.13-2.51,2.51v5.87c0,1.39,1.13,2.51,2.51,2.51h34.7c1.39,0,2.51-1.13,2.51-2.51v-5.87c0-1.39-1.13-2.51-2.51-2.51H41.58Z"/><path class="cls-4" d="M43.58,88.72c-.68,0-1.23-.55-1.23-1.23s.55-1.23,1.23-1.23,1.23,.55,1.23,1.23-.55,1.23-1.23,1.23Zm0-1.97c-.41,0-.74,.33-.74,.74s.33,.74,.74,.74,.74-.33,.74-.74-.33-.74-.74-.74Z"/><path class="cls-4" d="M47.74,88.72c-.68,0-1.23-.55-1.23-1.23s.55-1.23,1.23-1.23,1.23,.55,1.23,1.23c0,.68-.55,1.23-1.23,1.23Zm0-1.97c-.41,0-.74,.33-.74,.74s.33,.74,.74,.74,.74-.33,.74-.74c0-.41-.33-.74-.74-.74Z"/><path class="cls-4" d="M75.28,88.3h-23.91c-.14,0-.25-.11-.25-.25v-1.16c0-.14,.11-.25,.25-.25h23.91c.14,0,.25,.11,.25,.25v1.16c0,.14-.11,.24-.25,.25Zm-23.66-.49h23.42v-.67h-23.42v.67Z"/><rect class="cls-2" x="90.12" y="56.39" width="34.72" height="36.54"/><path class="cls-5" d="M124.85,92.93h-34.72c-.14,0-.25-.09-.25-.19V56.33c0-.11,.11-.19,.25-.2,0,0,0,0,0,0h34.72c.14,0,.26,.09,.26,.2h0v36.4c0,.11-.11,.19-.25,.19,0,0,0,0,0,0Zm-34.47-.38h34.22V56.53h-34.22v36.02Z"/><rect class="cls-1" x="87.37" y="53.69" width="40.23" height="11.4" rx="2.77" ry="2.77"/><path class="cls-5" d="M124.84,65.34h-34.7c-1.67,0-3.02-1.35-3.02-3.02v-5.87c0-1.67,1.35-3.02,3.02-3.02h34.7c1.67,0,3.02,1.35,3.02,3.02v5.87c0,1.67-1.35,3.02-3.02,3.02Zm-34.7-11.4c-1.39,0-2.51,1.13-2.51,2.51v5.87c0,1.39,1.13,2.51,2.51,2.51h34.7c1.39,0,2.51-1.13,2.51-2.51v-5.87c0-1.39-1.13-2.51-2.51-2.51h-34.7Z"/><path class="cls-4" d="M92.13,60.62c-.68,0-1.23-.55-1.23-1.23s.55-1.23,1.23-1.23,1.23,.55,1.23,1.23-.55,1.23-1.23,1.23Zm0-1.97c-.41,0-.74,.33-.74,.74s.33,.74,.74,.74,.74-.33,.74-.74-.33-.74-.74-.74h0Z"/><path class="cls-4" d="M96.29,60.62c-.68,0-1.23-.55-1.23-1.23s.55-1.23,1.23-1.23,1.23,.55,1.23,1.23c0,.68-.55,1.23-1.23,1.23Zm0-1.97c-.41,0-.74,.33-.74,.74s.33,.74,.74,.74,.74-.33,.74-.74c0-.41-.33-.74-.74-.74Z"/><path class="cls-4" d="M123.83,60.2h-23.91c-.14,0-.25-.11-.25-.25v-1.16c0-.14,.11-.25,.25-.25h23.91c.14,0,.25,.11,.25,.25v1.16c0,.14-.11,.24-.25,.25Zm-23.66-.49h23.42v-.67h-23.42v.67Z"/><rect class="cls-1" x="87.37" y="67.73" width="40.23" height="11.4" rx="2.77" ry="2.77"/><path class="cls-5" d="M124.84,79.39h-34.7c-1.67,0-3.02-1.35-3.02-3.02v-5.87c0-1.67,1.35-3.02,3.02-3.02h34.7c1.67,0,3.02,1.35,3.02,3.02v5.87c0,1.67-1.35,3.02-3.02,3.02Zm-34.7-11.4c-1.39,0-2.51,1.13-2.51,2.51v5.87c0,1.39,1.13,2.51,2.51,2.51h34.7c1.39,0,2.51-1.13,2.51-2.51v-5.87c0-1.39-1.13-2.51-2.51-2.51h-34.7Z"/><path class="cls-4" d="M92.13,74.67c-.68,0-1.23-.55-1.23-1.23s.55-1.23,1.23-1.23,1.23,.55,1.23,1.23-.55,1.23-1.23,1.23Zm0-1.97c-.41,0-.74,.33-.74,.74s.33,.74,.74,.74,.74-.33,.74-.74-.33-.74-.74-.74Z"/><path class="cls-4" d="M96.29,74.67c-.68,0-1.23-.55-1.23-1.23s.55-1.23,1.23-1.23,1.23,.55,1.23,1.23c0,.68-.55,1.23-1.23,1.23Zm0-1.97c-.41,0-.74,.33-.74,.74s.33,.74,.74,.74,.74-.33,.74-.74c0-.41-.33-.74-.74-.74Z"/><path class="cls-4" d="M123.83,74.26h-23.91c-.14,0-.25-.11-.25-.25v-1.16c0-.14,.11-.25,.25-.25h23.91c.14,0,.25,.11,.25,.25v1.15c0,.14-.1,.26-.24,.26,0,0,0,0,0,0Zm-23.66-.49h23.42v-.67h-23.42v.67Z"/><rect class="cls-1" x="87.37" y="81.78" width="40.23" height="11.4" rx="2.77" ry="2.77"/><path class="cls-5" d="M124.84,93.44h-34.7c-1.67,0-3.02-1.35-3.02-3.02v-5.87c0-1.67,1.35-3.02,3.02-3.02h34.7c1.67,0,3.02,1.35,3.02,3.02v5.87c0,1.67-1.35,3.02-3.02,3.02Zm-34.7-11.4c-1.39,0-2.51,1.13-2.51,2.51v5.87c0,1.39,1.13,2.51,2.51,2.51h34.7c1.39,0,2.51-1.13,2.51-2.51v-5.87c0-1.39-1.13-2.51-2.51-2.51h-34.7Z"/><path class="cls-4" d="M92.13,88.72c-.68,0-1.23-.55-1.23-1.23s.55-1.23,1.23-1.23,1.23,.55,1.23,1.23-.55,1.23-1.23,1.23Zm0-1.97c-.41,0-.74,.33-.74,.74s.33,.74,.74,.74,.74-.33,.74-.74-.33-.74-.74-.74Z"/><path class="cls-4" d="M96.29,88.72c-.68,0-1.23-.55-1.23-1.23s.55-1.23,1.23-1.23,1.23,.55,1.23,1.23c0,.68-.55,1.23-1.23,1.23Zm0-1.97c-.41,0-.74,.33-.74,.74s.33,.74,.74,.74,.74-.33,.74-.74c0-.41-.33-.74-.74-.74Z"/><path class="cls-4" d="M123.83,88.3h-23.91c-.14,0-.25-.11-.25-.25v-1.16c0-.14,.11-.25,.25-.25h23.91c.14,0,.25,.11,.25,.25v1.16c0,.14-.11,.24-.25,.25Zm-23.66-.49h23.42v-.67h-23.42v.67Z"/><g><path d="M80.72,46.86c-.15-.53-.57-.95-1.1-1.1l-.21-.06v-3.56h-.46v3.56l-.21,.06c-.53,.15-.95,.57-1.1,1.1l-.06,.21h-18.78l-.06-.21c-.12-.41-.39-.75-.76-.96-.37-.21-.8-.26-1.22-.14-.41,.12-.75,.39-.96,.76-.21,.37-.26,.81-.14,1.22,.15,.53,.57,.95,1.1,1.1l.21,.06v4.53h.46v-4.53l.21-.06c.54-.15,.95-.56,1.1-1.1l.06-.21h18.78l.06,.21c.12,.41,.39,.75,.76,.96,.37,.21,.8,.26,1.22,.14,.85-.24,1.34-1.13,1.1-1.98Z"/><path d="M111.5,46.86c-.12-.41-.39-.75-.76-.96-.37-.21-.8-.26-1.22-.14-.54,.15-.95,.57-1.1,1.1l-.06,.21h-18.78l-.06-.21c-.15-.53-.57-.95-1.1-1.1l-.21-.06v-3.56h-.46v3.56l-.21,.06c-.85,.24-1.34,1.13-1.1,1.98,.12,.41,.39,.75,.76,.96,.37,.21,.8,.26,1.22,.14,.54-.15,.95-.56,1.1-1.1l.06-.21h18.78l.06,.21c.15,.54,.56,.95,1.1,1.1l.21,.06v4.53h.46v-4.53l.21-.06c.85-.24,1.34-1.13,1.1-1.98Z"/></g><path class="cls-3" d="M116.85,29.13c-.31-3.19-1.84-6.08-4.32-8.11-2.48-2.04-5.6-2.99-8.79-2.68-.12,.01-.25,.03-.37,.04h-.11s-.02-.1-.02-.1c-.3-1.86-1.3-3.49-2.83-4.59-1.53-1.1-3.39-1.55-5.25-1.25-.9,.14-1.74,.46-2.52,.93l-.13,.08-.04-.14c-1.01-3.31-3.24-6.02-6.29-7.65-3.05-1.63-6.55-1.96-9.85-.96-5.48,1.67-9.16,6.65-9.16,12.38,0,.71,.06,1.42,.18,2.11l.04,.21-.2-.09c-2.93-1.31-6.19-1.4-9.19-.25-3,1.15-5.37,3.39-6.68,6.32-2.7,6.05,.02,13.17,6.07,15.88,1.55,.69,3.19,1.04,4.88,1.05h42.62c.35,0,.74-.02,1.2-.06,6.58-.65,11.41-6.53,10.78-13.12Zm-48.54-8.16c.14-.04,.26-.12,.33-.25,.08-.13,.1-.28,.05-.43-.3-1.04-.45-2.13-.45-3.22,0-6.54,5.31-11.86,11.85-11.86,5.58,0,10.33,3.8,11.56,9.25,.03,.14,.12,.26,.24,.34,.12,.08,.27,.1,.41,.07,.08-.02,.16-.06,.23-.11,.91-.74,2-1.19,3.18-1.31,3.27-.31,6.17,2.08,6.5,5.35v.02c0,.06,.01,.12,0,.19,0,.16,.07,.31,.19,.41,.12,.1,.28,.15,.44,.12,.33-.06,.66-.1,.99-.14,2.9-.28,5.74,.58,7.99,2.44,2.25,1.85,3.65,4.48,3.93,7.38,.58,6-3.82,11.35-9.81,11.93-.4,.04-.76,.06-1.08,.06H62.24c-5.65,0-10.31-4.25-10.83-9.88-.57-5.99,3.84-11.34,9.83-11.93,.36-.04,.72-.05,1.08-.05,1.97,0,3.91,.54,5.59,1.55,.12,.07,.27,.1,.41,.06Z"/></svg>