<?xml version="1.0" encoding="UTF-8"?><svg id="Disenoweb-06" xmlns="http://www.w3.org/2000/svg" width="166.42" height="97.56" viewBox="0 0 166.42 97.56"><defs><style>.cls-1{fill:#f7c36f;}.cls-2{fill:none;stroke-width:.7px;}.cls-2,.cls-3,.cls-4{stroke:#000;stroke-miterlimit:10;}.cls-3{fill:#fff;stroke-width:.5px;}.cls-5{fill:#3f3d56;}.cls-4{stroke-width:.25px;}.cls-6{fill:#152c57;}.cls-7{fill:#169dec;}.cls-8{fill:#ccc;}.cls-9{fill:#f7b233;}</style></defs><path class="cls-1" d="M92.09,34.28c0,1.52-1.23,2.75-2.75,2.75s-2.75-1.23-2.75-2.75,1.23-2.75,2.75-2.75,2.75,1.23,2.75,2.75"/><path class="cls-6" d="M88.82,26.98s-1.04,4.44,.5,6.69c1.54,2.24,1.8-6.69,1.8-6.69h-2.29"/><path class="cls-3" d="M93.15,50.71l.93-8.37c-.64,0-1.26-.12-1.85-.37s-1.11-.6-1.56-1.05c-2.31-2.31-2.85-6.97-1.68-13.86l.05-.28,.28-.07c.37-.09,9.13-2.14,11.85,.08,2.58,2.14,1.94,7.13,1.34,8.41l.95,16.3-10.31-.79Z"/><path d="M100.68,28.46s-4.18-2.69-8.42-.82c-2.31,1.02-5.02,.13-6.71-1.62-1.55-1.61-2.67-5.12-.1-6.38,.65-.32,1.38-.42,2.1-.46,1.05-.06,2.11,.02,3.15,.23,.31,.06,.62,.14,.94,.1,.53-.07,.95-.44,1.42-.69,1.34-.73,3.4-.74,4.78-.12,1.47,.66,2.98,1.87,3.72,3.28,0,0,5.05,2.39,4.38,7.59-.67,5.2-2.31,5.15-4.29,6.21-1.97,1.06-.96-7.31-.96-7.31"/><path class="cls-6" d="M103.83,32.04c-.02,.23-.22,.41-.45,.41-.01,0-.03,0-.04,0-.25-.03-.43-.24-.4-.49,0-.07,.53-5.83-.92-9.46,.36,.22,.79,.51,1.23,.88,1.02,3.72,.6,8.4,.58,8.66"/><path class="cls-1" d="M103.83,32.04c-.02,.23-.22,.41-.45,.41-.01,0-.03,0-.04,0-.25-.03-.43-.24-.4-.49,0-.07,.53-5.83-.92-9.46-.28-.69-.63-1.31-1.07-1.79-.45-.49-.86-.86-1.44-1-.42-.31-.87-.58-1.26-.79,.09-.1,.39-.16,.53-.16,1.19,0,2.02,.45,2.83,1.35,.77,.84,1.28,2,1.63,3.28,1.02,3.72,.6,8.4,.58,8.66"/><path class="cls-1" d="M105.68,34.28c0,1.52-1.23,2.75-2.75,2.75s-2.75-1.23-2.75-2.75,1.23-2.75,2.75-2.75,2.75,1.23,2.75,2.75"/><path class="cls-1" d="M95.79,40.03c-.27-.02-.46-.25-.44-.52s.25-.46,.52-.44c3.73,.3,5.24-.46,5.85-1.16,.59-.67,.45-1.39,.44-1.42-.06-.26,.1-.51,.36-.58,.26-.06,.52,.11,.58,.36,.01,.05,.27,1.21-.64,2.25-1.09,1.27-3.34,1.77-6.67,1.5"/><path class="cls-9" d="M97.21,39.66c-.06,.76-.73,1.32-1.48,1.26s-1.32-.73-1.26-1.48,.73-1.32,1.49-1.26,1.32,.73,1.26,1.48"/><path class="cls-9" d="M81.69,51.4c.74-1.09,1.67-1.99,2.78-2.69,1.11-.71,2.32-1.16,3.62-1.36l5.57-.94c1.12,8.76,9.42,0,9.42,0l8.16,2.55c.84,.26,1.61,.67,2.3,1.22,.69,.55,1.26,1.2,1.72,1.96l7.01,11.69-8.75,6.96-2.14-3.71-.91,26.32s-11.24-1.08-14.74-.07c-12.13-.14-14.05-.35-14.05-.35l1.24-27.03-.94,1.36-7.61-4.39,7.31-11.5Z"/><path class="cls-3" d="M121.39,63.77s5.05,10.07,6.35,12.56c1.29,2.49,2.85,5.49,1.66,7.33-1.19,1.84-13.83,6.96-16.46,7.28-.8,.07-1.57-.06-2.3-.39-.73-.33-1.33-.83-1.8-1.48-.71,.06-1.41-.03-2.09-.26-2.43,1.29-2.95,.78-3.7,.78s.65-.89,.65-.89c0,0-1.74,.15-2.56,.12-.82-.03,.97-1.43,.97-1.43-1.91,.33-1.81-.39-1.81-.39,4.89-4.13,6.88-2.29,6.88-2.29l-1.17-1.32s-4.06-2.49-3.73-3.09c.21-.38,2.53,.17,4.16,.61,1.02,.28,1.9,.8,2.64,1.56l4.14,4.28,8.54-6.27-7.61-10.76,7.24-5.96Z"/><path class="cls-3" d="M69.57,79.88c-1.38-1.74,0-4.86,1.13-7.45,1.15-2.59,6.6-11.9,6.6-11.9l5.54,4.73-5.62,10.82-7.65,3.79Z"/><path d="M55.02,72.15c-.01-.14-.01-.28,0-.42,.02-.14,.05-.28,.1-.41,.05-.13,.12-.26,.2-.37,.08-.12,.18-.22,.28-.31,.11-.09,.22-.17,.35-.24,.13-.07,.26-.11,.4-.15,.14-.03,.28-.05,.42-.04h29.86c.37,0,.7,.1,1.01,.31s.52,.49,.64,.84l7.41,20.24h16.5v2.31H62.94s-7.82-21.35-7.82-21.35c-.05-.13-.08-.27-.1-.41Z"/><path class="cls-3" d="M55.39,72.34c-.02-.13-.02-.27,0-.4,.02-.13,.05-.26,.1-.39,.05-.13,.11-.25,.19-.36,.08-.11,.17-.21,.27-.3,.1-.09,.21-.17,.33-.23,.12-.06,.24-.11,.38-.14,.13-.04,.26-.05,.4-.05h28.7c.35,0,.68,.1,.97,.3,.29,.2,.5,.47,.62,.81l7.95,21.74H63s-7.52-20.58-7.52-20.58c-.05-.13-.08-.26-.09-.39Z"/><path d="M72.96,79.57c1-.48,2.31,.19,2.94,1.5,.63,1.31,.33,2.77-.66,3.24-1,.48-2.31-.2-2.95-1.51-.62-1.31-.33-2.75,.67-3.23Z"/><polygon class="cls-9" points="122.27 63.81 113.52 70.78 111.82 67.18 119.62 61.28 122.27 63.81"/><polygon class="cls-9" points="82.38 67.57 74.38 62.9 76.92 59.23 84.55 64.44 82.38 67.57"/><path class="cls-2" d="M50.46,20.64l-2.06,2.15,1.9,3.39,3-.63c1.5,1.53,3.29,2.54,5.38,3.05l.84,2.97h3.85l.84-3.06c2-.53,3.73-1.53,5.17-3.01l2.99,.62,1.92-3.33-2.08-2.15c.29-1.01,.43-2.03,.43-3.08,0-1-.14-1.99-.4-2.95l2.14-2.42-1.95-3.3-3.02,.77c-1.45-1.49-3.19-2.51-5.2-3.05l-.86-2.95h-3.83l-.95,2.94c-2.04,.52-3.8,1.54-5.27,3.05l-2.96-.75-1.95,3.3,2.08,2.37c-.28,.98-.41,1.98-.41,3.01s.13,2.08,.41,3.08Zm4.64-3.12c0-.41,.04-.83,.12-1.23,.08-.41,.21-.8,.36-1.18s.35-.75,.58-1.09c.23-.34,.49-.66,.78-.95,.3-.29,.61-.55,.96-.78s.71-.42,1.09-.59c.38-.16,.78-.27,1.18-.36,.41-.08,.82-.12,1.23-.12s.83,.04,1.23,.12c.41,.08,.8,.2,1.18,.36,.38,.16,.75,.36,1.09,.59s.66,.49,.96,.78c.29,.29,.55,.61,.78,.95,.23,.35,.42,.71,.58,1.09s.28,.78,.36,1.18c.08,.41,.12,.82,.12,1.23s-.04,.83-.12,1.23c-.08,.41-.21,.8-.36,1.18s-.35,.75-.58,1.09-.49,.66-.78,.95-.61,.56-.96,.79-.71,.42-1.09,.58c-.38,.16-.78,.28-1.18,.36s-.82,.12-1.23,.12-.83-.04-1.23-.12c-.41-.08-.8-.19-1.19-.35-.38-.16-.75-.36-1.09-.58-.35-.23-.66-.49-.96-.79s-.55-.61-.78-.96c-.23-.34-.42-.7-.58-1.09-.16-.38-.28-.78-.36-1.18s-.12-.82-.12-1.23Z"/><path d="M151,67.96h-17.26c-1.11,0-2.02-.9-2.02-2.02v-10.98c0-1.11,.9-2.02,2.02-2.02h17.26c1.11,0,2.02,.9,2.02,2.02v10.98c0,1.11-.9,2.02-2.02,2.02Zm-17.26-14.57c-.87,0-1.57,.7-1.57,1.57v10.98c0,.87,.7,1.57,1.57,1.57h17.26c.87,0,1.57-.7,1.57-1.57v-10.98c0-.87-.7-1.57-1.57-1.57h-17.26Z"/><path d="M142.28,60.36c-.46,0-.91-.14-1.29-.4l-8.66-6.05,.26-.37,8.66,6.05c.61,.42,1.42,.43,2.04,.02l8.91-6.03,.25,.37-8.91,6.03c-.37,.25-.81,.38-1.26,.38Z"/><circle class="cls-7" cx="142.26" cy="60.34" r="2.69"/><path class="cls-8" d="M59.45,44.33H16.92c-1.94,0-3.52,1.57-3.52,3.51s1.57,3.52,3.51,3.52h.57v4.14c0,.3,.19,.57,.49,.65,.07,.02,.13,.03,.2,.03,.23,0,.44-.12,.56-.31l2.93-4.51H59.45c1.94,0,3.51-1.58,3.51-3.52,0-1.94-1.57-3.51-3.51-3.51h0Zm0,6.58H21.42l-3.07,4.72c-.07,.11-.21,.14-.31,.07-.06-.04-.1-.11-.1-.19v-4.59h-1.02c-1.69,0-3.06-1.37-3.06-3.06,0-1.69,1.37-3.06,3.06-3.06H59.45c1.69,0,3.06,1.37,3.06,3.06,0,1.69-1.37,3.06-3.06,3.06h0Z"/><path class="cls-5" d="M65.47,54.8H27.3c-1.94,0-3.52,1.57-3.52,3.51,0,1.94,1.57,3.52,3.51,3.52H60.67l3.67,5.64c.12,.19,.33,.31,.56,.31,.07,0,.14-.01,.2-.03,.29-.08,.49-.35,.49-.65v-5.27c1.94-.06,3.46-1.69,3.4-3.63-.06-1.9-1.62-3.4-3.51-3.4h0Zm0,6.58h-.34v5.73c0,.1-.06,.19-.16,.22-.1,.03-.2,0-.25-.09l-3.8-5.85H27.3c-1.69,0-3.06-1.37-3.06-3.06,0-1.69,1.37-3.06,3.06-3.06h38.17c1.69,0,3.06,1.37,3.06,3.06,0,1.69-1.37,3.06-3.06,3.06h0Z"/><path class="cls-8" d="M57.44,46.94H22.96c-.51,0-.93,.42-.93,.93v.16c0,.51,.42,.93,.93,.93H57.44c.51,0,.93-.42,.93-.93v-.16c0-.51-.42-.93-.93-.93Z"/><path class="cls-7" d="M58.27,57.42H29.46c-.51,0-.93,.42-.93,.93v.16c0,.51,.42,.93,.93,.93h28.81c.51,0,.93-.42,.93-.93v-.16c0-.51-.41-.93-.93-.93Z"/><path class="cls-4" d="M116.31,31.37c-.67,1-.35,2.33,.72,2.98,1.19,.73,2.64,.99,4.02,.71h.03c.99-.21,1.9-.68,2.61-1.36,.26-.25,.49-.52,.69-.81,.04-.05,.07-.11,.1-.16,1.43-2.32,.65-5.32-1.77-6.79-.51-.31-1.13-.42-1.72-.3h-.01c-.59,.12-1.09,.45-1.41,.93l-3.24,4.81h0Zm.92,2.68c-.89-.54-1.15-1.65-.59-2.48l3.24-4.81c.27-.4,.69-.67,1.18-.77h.01c.49-.1,1.01-.01,1.44,.25,2.31,1.41,3,4.3,1.55,6.46-.18,.26-.38,.5-.6,.72-1.63,1.58-4.22,1.84-6.22,.63h0Z"/><path class="cls-4" d="M126.95,15.6s0,0,0,0c-.67,1-.35,2.33,.71,2.98,1.19,.73,2.64,.99,4.02,.71h.03c1.36-.28,2.55-1.06,3.29-2.17,.03-.05,.06-.09,.09-.14,.24-.38,.42-.78,.55-1.2h0c.61-2.13-.32-4.4-2.3-5.61-.51-.31-1.13-.42-1.72-.3h-.01c-.58,.12-1.09,.45-1.41,.93l-3.24,4.81h0Zm.32,.2l3.24-4.81c.56-.83,1.73-1.06,2.62-.52,1.1,.67,1.88,1.72,2.18,2.92,.62,2.52-1.03,5-3.69,5.55h-.03c-1.28,.26-2.62,.03-3.73-.65-.89-.54-1.15-1.65-.6-2.48Z"/><path class="cls-4" d="M123.44,33.42c.35-.23,.69-.46,1.03-.69,6.62-4.55,9.57-8.93,10.63-15.75,.06-.42,.12-.85,.17-1.29,.11-.36,.17-.73,.18-1.1l.31,.03c-.03,.39-.07,.78-.12,1.16h0c-.93,8.02-4.11,12.8-11.96,17.93-.44,.29-.9,.58-1.38,.88l-.18-.25c.49-.23,.94-.54,1.32-.91Z"/><polygon class="cls-4" points="125.18 30 124.86 29.81 132.26 18.84 132.58 19.03 125.18 30"/></svg>