<svg width="125" height="45" viewBox="0 0 125 45" fill="none" xmlns="http://www.w3.org/2000/svg">
<path d="M1.35 0.919998H16.23V5.12H10.86V23H6.51V5.12H1.35V0.919998ZM19.3481 12.17C19.3481 10.67 19.6281 9.26 20.1881 7.94C20.7681 6.6 21.5681 5.42 22.5881 4.4C23.6081 3.36 24.7781 2.55 26.0981 1.97C27.4381 1.37 28.8781 1.07 30.4181 1.07C31.9381 1.07 33.3581 1.37 34.6781 1.97C36.0181 2.55 37.1981 3.36 38.2181 4.4C39.2581 5.42 40.0681 6.6 40.6481 7.94C41.2281 9.26 41.5181 10.67 41.5181 12.17C41.5181 13.71 41.2281 15.15 40.6481 16.49C40.0681 17.83 39.2581 19.01 38.2181 20.03C37.1981 21.03 36.0181 21.82 34.6781 22.4C33.3581 22.96 31.9381 23.24 30.4181 23.24C28.8781 23.24 27.4381 22.96 26.0981 22.4C24.7781 21.84 23.6081 21.06 22.5881 20.06C21.5681 19.06 20.7681 17.89 20.1881 16.55C19.6281 15.21 19.3481 13.75 19.3481 12.17ZM22.3481 12.2C22.3481 13.34 22.5581 14.41 22.9781 15.41C23.3981 16.39 23.9781 17.26 24.7181 18.02C25.4581 18.78 26.3181 19.38 27.2981 19.82C28.2781 20.24 29.3381 20.45 30.4781 20.45C31.5981 20.45 32.6481 20.24 33.6281 19.82C34.6081 19.38 35.4581 18.78 36.1781 18.02C36.8981 17.26 37.4681 16.39 37.8881 15.41C38.3081 14.41 38.5181 13.33 38.5181 12.17C38.5181 11.03 38.3081 9.96 37.8881 8.96C37.4681 7.94 36.8881 7.05 36.1481 6.29C35.4081 5.53 34.5481 4.94 33.5681 4.52C32.5881 4.08 31.5381 3.86 30.4181 3.86C29.2781 3.86 28.2181 4.08 27.2381 4.52C26.2581 4.96 25.3981 5.56 24.6581 6.32C23.9181 7.08 23.3481 7.97 22.9481 8.99C22.5481 9.99 22.3481 11.06 22.3481 12.2ZM46.3308 20.57H58.4808V23H46.3308V20.57Z" fill="white"/>
<path d="M68.7834 8.78L68.6634 9.89L69.3234 9.05L76.5234 0.919998H82.1634L73.0434 10.82L82.1934 23H76.6734L69.8634 13.58L68.7834 14.66V23H64.3734V0.919998H68.7834V8.78ZM85.7665 1.31H99.8665V4.1H88.6765V10.7H98.6665V13.49H88.6765V20.21H100.286V23H85.7665V1.31ZM124.117 23.69L107.347 6.68L108.187 6.89L108.247 23H105.337V0.649998H105.487L122.077 17.72L121.387 17.57L121.327 1.31H124.207V23.69H124.117ZM0.918 41L6.318 27.662H6.39L11.79 41H10.8L6.102 29.066L6.714 28.724L1.8 41H0.918ZM3.528 35.942H9.198L9.45 36.77H3.312L3.528 35.942ZM17.3551 44.438C16.9591 44.438 16.5811 44.39 16.2211 44.294C15.8611 44.21 15.5071 44.06 15.1591 43.844C14.8111 43.628 14.4511 43.346 14.0791 42.998L14.5831 42.422C15.0991 42.914 15.5791 43.244 16.0231 43.412C16.4671 43.592 16.8991 43.682 17.3191 43.682C18.0511 43.682 18.6331 43.562 19.0651 43.322C19.4971 43.094 19.8091 42.782 20.0011 42.386C20.1931 42.002 20.2951 41.57 20.3071 41.09L20.3251 38.804L20.5231 39.02C20.2831 39.644 19.8511 40.154 19.2271 40.55C18.6151 40.946 17.9191 41.144 17.1391 41.144C16.4791 41.144 15.8731 40.982 15.3211 40.658C14.7811 40.322 14.3491 39.878 14.0251 39.326C13.7011 38.762 13.5391 38.138 13.5391 37.454C13.5391 36.722 13.7071 36.08 14.0431 35.528C14.3791 34.976 14.8351 34.544 15.4111 34.232C15.9871 33.908 16.6231 33.746 17.3191 33.746C17.9671 33.746 18.5791 33.914 19.1551 34.25C19.7431 34.586 20.1691 35.03 20.4331 35.582L20.3251 35.978L20.4151 33.962H21.1711V41.108C21.1711 41.684 21.0391 42.224 20.7751 42.728C20.5231 43.244 20.1151 43.658 19.5511 43.97C18.9991 44.282 18.2671 44.438 17.3551 44.438ZM14.3851 37.436C14.3851 37.988 14.5171 38.492 14.7811 38.948C15.0451 39.392 15.3991 39.752 15.8431 40.028C16.2991 40.292 16.8031 40.424 17.3551 40.424C17.8831 40.424 18.3631 40.31 18.7951 40.082C19.2271 39.842 19.5811 39.524 19.8571 39.128C20.1331 38.732 20.2891 38.306 20.3251 37.85V36.806C20.2291 36.35 20.0371 35.948 19.7491 35.6C19.4731 35.252 19.1251 34.976 18.7051 34.772C18.2971 34.568 17.8471 34.466 17.3551 34.466C16.8031 34.466 16.2991 34.592 15.8431 34.844C15.3991 35.096 15.0451 35.444 14.7811 35.888C14.5171 36.332 14.3851 36.848 14.3851 37.436ZM27.4433 41.144C26.7113 41.144 26.0633 40.982 25.4993 40.658C24.9353 40.334 24.4913 39.896 24.1673 39.344C23.8553 38.78 23.6993 38.15 23.6993 37.454C23.6993 36.77 23.8673 36.146 24.2033 35.582C24.5393 35.018 24.9893 34.568 25.5533 34.232C26.1293 33.896 26.7653 33.728 27.4613 33.728C28.3013 33.728 29.0033 33.974 29.5673 34.466C30.1433 34.958 30.5573 35.6 30.8093 36.392L24.6533 38.768L24.4013 38.156L30.0353 35.96L29.8553 36.212C29.6513 35.732 29.3393 35.318 28.9193 34.97C28.5113 34.622 28.0073 34.448 27.4072 34.448C26.8673 34.448 26.3813 34.58 25.9493 34.844C25.5173 35.108 25.1693 35.462 24.9053 35.906C24.6533 36.35 24.5273 36.854 24.5273 37.418C24.5273 37.946 24.6473 38.438 24.8873 38.894C25.1393 39.35 25.4873 39.716 25.9313 39.992C26.3753 40.268 26.8853 40.406 27.4613 40.406C27.8453 40.406 28.2113 40.334 28.5593 40.19C28.9193 40.046 29.2373 39.86 29.5133 39.632L29.9453 40.244C29.6093 40.508 29.2193 40.724 28.7753 40.892C28.3433 41.06 27.8993 41.144 27.4433 41.144ZM33.8927 33.962L33.9827 36.176L33.8747 35.744C34.0787 35.132 34.4627 34.652 35.0267 34.304C35.6027 33.944 36.2387 33.764 36.9347 33.764C37.5947 33.764 38.1287 33.962 38.5367 34.358C38.9447 34.742 39.1547 35.246 39.1667 35.87V41H38.3027V36.104C38.2907 35.648 38.1467 35.27 37.8707 34.97C37.5947 34.67 37.1927 34.514 36.6647 34.502C36.1967 34.502 35.7587 34.616 35.3507 34.844C34.9427 35.072 34.6127 35.39 34.3607 35.798C34.1207 36.206 34.0007 36.68 34.0007 37.22V41H33.1547V33.962H33.8927ZM47.8017 40.316C47.4777 40.58 47.1117 40.784 46.7037 40.928C46.2957 41.072 45.8697 41.144 45.4257 41.144C44.7057 41.144 44.0637 40.988 43.4997 40.676C42.9357 40.352 42.4917 39.914 42.1677 39.362C41.8437 38.81 41.6817 38.18 41.6817 37.472C41.6817 36.764 41.8497 36.134 42.1857 35.582C42.5217 35.03 42.9657 34.598 43.5177 34.286C44.0817 33.962 44.6937 33.8 45.3537 33.8C45.8457 33.8 46.3017 33.872 46.7217 34.016C47.1417 34.16 47.5077 34.364 47.8197 34.628L47.3697 35.204C47.1177 35 46.8237 34.832 46.4877 34.7C46.1517 34.568 45.7917 34.502 45.4077 34.502C44.8797 34.502 44.3937 34.634 43.9497 34.898C43.5177 35.162 43.1697 35.522 42.9057 35.978C42.6537 36.422 42.5277 36.92 42.5277 37.472C42.5277 38.012 42.6537 38.51 42.9057 38.966C43.1697 39.41 43.5237 39.764 43.9677 40.028C44.4237 40.292 44.9277 40.424 45.4797 40.424C45.8397 40.424 46.1757 40.37 46.4877 40.262C46.7997 40.142 47.0817 39.986 47.3337 39.794L47.8017 40.316ZM50.8008 44.384L55.3908 33.962H56.2188L51.6828 44.384H50.8008ZM52.3848 41.072L49.0548 33.962H50.0088L53.0508 40.622L52.3848 41.072ZM65.1486 29.66C64.7766 29.48 64.3206 29.312 63.7806 29.156C63.2406 29 62.7006 28.922 62.1606 28.922C61.3206 28.922 60.6486 29.132 60.1446 29.552C59.6406 29.972 59.3886 30.5 59.3886 31.136C59.3886 31.616 59.5326 32.018 59.8206 32.342C60.1086 32.654 60.4866 32.924 60.9546 33.152C61.4226 33.368 61.9206 33.578 62.4486 33.782C62.8686 33.938 63.2826 34.112 63.6906 34.304C64.1106 34.496 64.4886 34.73 64.8246 35.006C65.1606 35.282 65.4246 35.624 65.6166 36.032C65.8206 36.44 65.9226 36.944 65.9226 37.544C65.9226 38.252 65.7546 38.882 65.4186 39.434C65.0826 39.974 64.6146 40.394 64.0146 40.694C63.4146 40.994 62.7186 41.144 61.9266 41.144C61.2906 41.144 60.7086 41.066 60.1806 40.91C59.6646 40.754 59.2086 40.574 58.8126 40.37C58.4286 40.154 58.1226 39.974 57.8946 39.83L58.3086 39.11C58.5726 39.302 58.8906 39.494 59.2626 39.686C59.6466 39.878 60.0606 40.04 60.5046 40.172C60.9486 40.304 61.3926 40.37 61.8366 40.37C62.3526 40.37 62.8506 40.268 63.3306 40.064C63.8226 39.86 64.2246 39.554 64.5366 39.146C64.8606 38.726 65.0226 38.198 65.0226 37.562C65.0226 36.95 64.8726 36.458 64.5726 36.086C64.2726 35.702 63.8886 35.39 63.4206 35.15C62.9526 34.91 62.4546 34.694 61.9266 34.502C61.5186 34.346 61.1106 34.184 60.7026 34.016C60.2946 33.836 59.9226 33.626 59.5866 33.386C59.2506 33.134 58.9806 32.834 58.7766 32.486C58.5846 32.138 58.4886 31.718 58.4886 31.226C58.4886 30.614 58.6446 30.08 58.9566 29.624C59.2686 29.168 59.6886 28.814 60.2166 28.562C60.7566 28.298 61.3686 28.16 62.0526 28.148C62.6526 28.148 63.2586 28.226 63.8706 28.382C64.4946 28.538 65.0346 28.736 65.4906 28.976L65.1486 29.66ZM68.1016 37.436C68.1016 36.752 68.2636 36.128 68.5876 35.564C68.9236 35 69.3736 34.556 69.9376 34.232C70.5136 33.896 71.1556 33.728 71.8636 33.728C72.5836 33.728 73.2256 33.896 73.7896 34.232C74.3536 34.556 74.7976 35 75.1216 35.564C75.4456 36.128 75.6076 36.752 75.6076 37.436C75.6076 38.12 75.4456 38.744 75.1216 39.308C74.7976 39.872 74.3476 40.322 73.7716 40.658C73.2076 40.982 72.5716 41.144 71.8636 41.144C71.1436 41.144 70.5016 40.988 69.9376 40.676C69.3736 40.352 68.9236 39.914 68.5876 39.362C68.2636 38.798 68.1016 38.156 68.1016 37.436ZM68.9476 37.454C68.9476 38.006 69.0736 38.51 69.3256 38.966C69.5896 39.41 69.9376 39.764 70.3696 40.028C70.8136 40.292 71.3056 40.424 71.8456 40.424C72.3856 40.424 72.8716 40.292 73.3036 40.028C73.7476 39.764 74.0956 39.41 74.3476 38.966C74.6116 38.51 74.7436 38.006 74.7436 37.454C74.7436 36.902 74.6116 36.404 74.3476 35.96C74.0956 35.504 73.7476 35.144 73.3036 34.88C72.8716 34.604 72.3856 34.466 71.8456 34.466C71.2936 34.466 70.7956 34.61 70.3516 34.898C69.9196 35.174 69.5776 35.54 69.3256 35.996C69.0736 36.452 68.9476 36.938 68.9476 37.454ZM78.5876 41V34.754H77.3636V33.98H78.5876V30.434C78.5876 29.306 78.7796 28.496 79.1636 28.004C79.5596 27.5 80.1416 27.248 80.9096 27.248C81.0776 27.248 81.2576 27.272 81.4496 27.32C81.6416 27.356 81.8156 27.422 81.9716 27.518L81.6116 28.13C81.5276 28.07 81.4316 28.028 81.3236 28.004C81.2276 27.968 81.1136 27.95 80.9816 27.95C80.4656 27.95 80.0756 28.13 79.8116 28.49C79.5596 28.85 79.4336 29.492 79.4336 30.416V33.98H81.7916V34.754H79.4336V41H78.5876ZM84.6575 30.866H85.5215V34.052H87.6995V34.736H85.5215V41H84.6575V34.736H83.1635V34.052H84.6575V30.866ZM93.769 33.962L96.433 39.956L96.235 39.974L98.809 33.962H99.673L96.361 41.432L94.093 36.428L92.023 41.432L88.711 33.962H89.557L92.275 40.082L91.969 39.992L93.769 35.636L92.995 33.962H93.769ZM104.573 41.144C103.901 41.144 103.289 40.994 102.737 40.694C102.197 40.382 101.765 39.95 101.441 39.398C101.129 38.846 100.973 38.204 100.973 37.472C100.973 36.692 101.141 36.026 101.477 35.474C101.813 34.91 102.269 34.484 102.845 34.196C103.421 33.896 104.075 33.746 104.807 33.746C105.431 33.746 106.019 33.932 106.571 34.304C107.135 34.676 107.537 35.144 107.777 35.708L107.651 35.96L107.759 33.962H108.515V41H107.669V38.822L107.849 39.146C107.765 39.386 107.621 39.626 107.417 39.866C107.213 40.094 106.961 40.31 106.661 40.514C106.373 40.706 106.049 40.862 105.689 40.982C105.341 41.09 104.969 41.144 104.573 41.144ZM104.753 40.424C105.281 40.424 105.755 40.316 106.175 40.1C106.607 39.872 106.955 39.56 107.219 39.164C107.483 38.768 107.633 38.312 107.669 37.796V36.788C107.573 36.344 107.381 35.948 107.093 35.6C106.817 35.252 106.475 34.976 106.067 34.772C105.659 34.568 105.215 34.466 104.735 34.466C104.207 34.466 103.721 34.592 103.277 34.844C102.833 35.084 102.479 35.426 102.215 35.87C101.951 36.314 101.819 36.836 101.819 37.436C101.819 37.988 101.951 38.492 102.215 38.948C102.479 39.392 102.833 39.752 103.277 40.028C103.733 40.292 104.225 40.424 104.753 40.424ZM112.449 33.962L112.539 36.122L112.431 35.852C112.587 35.42 112.833 35.048 113.169 34.736C113.505 34.424 113.877 34.184 114.285 34.016C114.705 33.848 115.107 33.764 115.491 33.764L115.455 34.592C114.915 34.592 114.423 34.712 113.979 34.952C113.547 35.192 113.199 35.516 112.935 35.924C112.683 36.32 112.557 36.77 112.557 37.274V41H111.711V33.962H112.449ZM120.642 41.144C119.91 41.144 119.262 40.982 118.698 40.658C118.134 40.334 117.69 39.896 117.366 39.344C117.054 38.78 116.898 38.15 116.898 37.454C116.898 36.77 117.066 36.146 117.402 35.582C117.738 35.018 118.188 34.568 118.752 34.232C119.328 33.896 119.964 33.728 120.66 33.728C121.5 33.728 122.202 33.974 122.766 34.466C123.342 34.958 123.756 35.6 124.008 36.392L117.852 38.768L117.6 38.156L123.234 35.96L123.054 36.212C122.85 35.732 122.538 35.318 122.118 34.97C121.71 34.622 121.206 34.448 120.606 34.448C120.066 34.448 119.58 34.58 119.148 34.844C118.716 35.108 118.368 35.462 118.104 35.906C117.852 36.35 117.726 36.854 117.726 37.418C117.726 37.946 117.846 38.438 118.086 38.894C118.338 39.35 118.686 39.716 119.13 39.992C119.574 40.268 120.084 40.406 120.66 40.406C121.044 40.406 121.41 40.334 121.758 40.19C122.118 40.046 122.436 39.86 122.712 39.632L123.144 40.244C122.808 40.508 122.418 40.724 121.974 40.892C121.542 41.06 121.098 41.144 120.642 41.144Z" fill="#16E22A"/>
</svg>
