<svg width="359" height="120" viewBox="0 0 359 120" fill="none" xmlns="http://www.w3.org/2000/svg">
<path d="M0.5 31.5V90L18.5 101V41.5L52 23L84 41.5V79L55 96V118.5L104 90L103 31.5L52 1L0.5 31.5Z" fill="#1CB422" stroke="black"/>
<path d="M24.5 48V104.5L48 118.5V63L24.5 48Z" fill="white" stroke="black"/>
<path d="M54.5 90V63.5L78.5 49V76.5L54.5 90Z" fill="#D9D9D9" stroke="black"/>
<path d="M51 57.5L28 43L52 29.5L75.5 43L51 57.5Z" fill="#D9D9D9" stroke="black"/>
<path d="M149.47 29.5703V90H137.392V29.5703H149.47ZM164.494 29.5703V39.6558H122.658V29.5703H164.494ZM212.846 55.0952V65.1807C212.846 69.4417 212.32 73.1771 211.269 76.3867C210.245 79.5687 208.779 82.2388 206.87 84.397C204.988 86.5275 202.705 88.1323 200.021 89.2114C197.365 90.2905 194.418 90.8301 191.181 90.8301C187.944 90.8301 184.983 90.2905 182.299 89.2114C179.643 88.1323 177.347 86.5275 175.41 84.397C173.5 82.2388 172.02 79.5687 170.969 76.3867C169.917 73.1771 169.392 69.4417 169.392 65.1807V55.0952C169.392 50.7235 169.903 46.9051 170.927 43.6401C171.951 40.3475 173.431 37.6082 175.368 35.4224C177.305 33.2088 179.602 31.5487 182.258 30.4419C184.914 29.3075 187.861 28.7402 191.098 28.7402C194.335 28.7402 197.282 29.3075 199.938 30.4419C202.595 31.5487 204.891 33.2088 206.828 35.4224C208.765 37.6082 210.245 40.3475 211.269 43.6401C212.32 46.9051 212.846 50.7235 212.846 55.0952ZM200.769 65.1807V55.0122C200.769 52.1346 200.561 49.6859 200.146 47.666C199.731 45.6185 199.108 43.9445 198.278 42.644C197.448 41.3436 196.438 40.389 195.249 39.7803C194.059 39.1715 192.675 38.8672 191.098 38.8672C189.521 38.8672 188.124 39.1715 186.906 39.7803C185.716 40.389 184.707 41.3436 183.876 42.644C183.074 43.9445 182.465 45.6185 182.05 47.666C181.663 49.6859 181.469 52.1346 181.469 55.0122V65.1807C181.469 67.9476 181.677 70.3133 182.092 72.2778C182.507 74.2424 183.129 75.8472 183.959 77.0923C184.79 78.3374 185.799 79.2643 186.989 79.873C188.207 80.4541 189.604 80.7446 191.181 80.7446C192.731 80.7446 194.1 80.4541 195.29 79.873C196.507 79.2643 197.517 78.3374 198.32 77.0923C199.122 75.8472 199.731 74.2424 200.146 72.2778C200.561 70.3133 200.769 67.9476 200.769 65.1807Z" fill="white"/>
<path d="M233.847 29.5703V90H221.687V29.5703H233.847ZM263.854 29.5703L244.265 59.5776L232.27 74.519L229.946 62.3584L237.707 49.4092L249.079 29.5703H263.854ZM249.826 90L236.628 62.2339L245.551 54.3481L264.145 90H249.826ZM303.408 79.9561V90H277.136V79.9561H303.408ZM280.913 29.5703V90H268.752V29.5703H280.913ZM299.88 54.0576V63.811H277.136V54.0576H299.88ZM303.325 29.5703V39.6558H277.136V29.5703H303.325ZM352.756 29.5703V90H341.01L322.043 52.1899V90H310.505V29.5703H322.084L341.218 67.7954V29.5703H352.756Z" fill="#1CB422"/>
</svg>
