<svg width="369" height="686" viewBox="0 0 369 686" fill="none" xmlns="http://www.w3.org/2000/svg">
<path d="M338 155.9H339.3L340.6 156C340.935 156.092 341.24 156.269 341.485 156.515C341.731 156.76 341.908 157.065 342 157.4L342.1 158.7V200.3L342 201.6C341.908 201.935 341.731 202.24 341.485 202.485C341.24 202.731 340.935 202.908 340.6 203L339.3 203.1H338V155.9ZM338 243H339.3L340.6 243.1C340.935 243.192 341.24 243.369 341.485 243.615C341.731 243.86 341.908 244.165 342 244.5L342.1 245.8V334.4L342 335.7C341.908 336.035 341.731 336.34 341.485 336.585C341.24 336.831 340.935 337.008 340.6 337.1L339.3 337.2H338V243Z" fill="#DADCE0"/>
<path d="M44 1H310C317.161 1 324.028 3.84464 329.092 8.90812C334.155 13.9716 337 20.8392 337 28V658C337 665.161 334.155 672.028 329.092 677.092C324.028 682.155 317.161 685 310 685H44C36.8392 685 29.9716 682.155 24.9081 677.092C19.8446 672.028 17 665.161 17 658V28C17 20.8392 19.8446 13.9716 24.9081 8.90812C29.9716 3.84464 36.8392 1 44 1Z" fill="#F8F9FA" stroke="#ACACAC" stroke-width="2"/>
<path d="M21 29C21 22.6348 23.5286 16.5303 28.0294 12.0294C32.5303 7.52856 38.6348 5 45 5H309C315.365 5 321.47 7.52856 325.971 12.0294C330.471 16.5303 333 22.6348 333 29V657C333 663.365 330.471 669.47 325.971 673.971C321.47 678.471 315.365 681 309 681H45C38.6348 681 32.5303 678.471 28.0294 673.971C23.5286 669.47 21 663.365 21 657V29Z" fill="#F8F9FA" stroke="#DADCE0" stroke-width="2"/>
<path d="M124 36.6C125.591 36.6 127.117 35.9678 128.243 34.8426C129.368 33.7174 130 32.1913 130 30.6C130 27.3 127.3 24.6 124 24.6C120.7 24.6 118 27.3 118 30.6C118 32.1913 118.632 33.7174 119.757 34.8426C120.883 35.9678 122.409 36.6 124 36.6ZM162 28.4H192C192.53 28.4 193.039 28.6107 193.414 28.9858C193.789 29.3608 194 29.8695 194 30.4C194 30.9304 193.789 31.4391 193.414 31.8142C193.039 32.1893 192.53 32.4 192 32.4H162C161.47 32.4 160.961 32.1893 160.586 31.8142C160.211 31.4391 160 30.9304 160 30.4C160 29.3 160.9 28.4 162 28.4Z" fill="#8B8B8B" stroke="#DADCE0" stroke-width="2"/>
<path d="M50 60H304C308.774 60 313.352 61.8964 316.728 65.2721C320.104 68.6477 322 73.2261 322 78V652C322 656.774 320.104 661.352 316.728 664.728C313.352 668.104 308.774 670 304 670H50C45.2261 670 40.6477 668.104 37.2721 664.728C33.8964 661.352 32 656.774 32 652V78C32 73.2261 33.8964 68.6477 37.2721 65.2721C40.6477 61.8964 45.2261 60 50 60Z" fill="white"/>
<path d="M50 60.5H304C313.7 60.5 321.5 68.3 321.5 78V652C321.5 661.7 313.7 669.5 304 669.5H50C40.3 669.5 32.5 661.7 32.5 652V78C32.5 68.3 40.3 60.5 50 60.5Z" fill="white" stroke="#8A8A8A"/>
<path d="M60 108.5H294C302.6 108.5 309.5 115.4 309.5 124C309.5 132.6 302.6 139.5 294 139.5H60C51.4 139.5 44.5 132.6 44.5 124C44.5 115.4 51.4 108.5 60 108.5Z" fill="white" stroke="#DADCE0"/>
<path d="M278 108H294C302.8 108 310 115.2 310 124C310 132.8 302.8 140 294 140H278V108Z" fill="#DADCE0"/>
<path fill-rule="evenodd" clip-rule="evenodd" d="M296.3 125.1L301.1 129.9L299.9 131.1L295.1 126.3C294.292 126.866 293.345 127.2 292.361 127.266C291.377 127.332 290.394 127.127 289.518 126.674C288.642 126.221 287.907 125.536 287.392 124.694C286.878 123.853 286.604 122.886 286.6 121.9C286.6 118.9 289 116.5 292 116.5C295 116.5 297.4 118.9 297.4 121.9C297.309 123.042 296.931 124.143 296.3 125.1ZM291.9 118.2C290.892 118.2 289.926 118.6 289.213 119.313C288.5 120.026 288.1 120.992 288.1 122C288.1 123.008 288.5 123.974 289.213 124.687C289.926 125.4 290.892 125.8 291.9 125.8C292.908 125.8 293.874 125.4 294.587 124.687C295.3 123.974 295.7 123.008 295.7 122C295.7 120.992 295.3 120.026 294.587 119.313C293.874 118.6 292.908 118.2 291.9 118.2Z" fill="white"/>
<mask id="mask0_133_93" style="mask-type:luminance" maskUnits="userSpaceOnUse" x="33" y="152" width="288" height="20">
<path d="M33 152H321V172H33V152Z" fill="#C4C4C4"/>
</mask>
<g mask="url(#mask0_133_93)">
<path d="M32.5 152H417.5V172H32.5V152Z" fill="white"/>
<path d="M48.5 152H93.5C94.5609 152 95.5783 152.421 96.3284 153.172C97.0786 153.922 97.5 154.939 97.5 156C97.5 157.061 97.0786 158.078 96.3284 158.828C95.5783 159.579 94.5609 160 93.5 160H48.5C47.4391 160 46.4217 159.579 45.6716 158.828C44.9214 158.078 44.5 157.061 44.5 156C44.5 154.939 44.9214 153.922 45.6716 153.172C46.4217 152.421 47.4391 152 48.5 152ZM53.5 171C53.5 169.9 54.4 169 55.5 169H87.5C88.0304 169 88.5391 169.211 88.9142 169.586C89.2893 169.961 89.5 170.47 89.5 171H53.5ZM125.5 152H170.5C171.561 152 172.578 152.421 173.328 153.172C174.079 153.922 174.5 154.939 174.5 156C174.5 157.061 174.079 158.078 173.328 158.828C172.578 159.579 171.561 160 170.5 160H125.5C124.439 160 123.422 159.579 122.672 158.828C121.921 158.078 121.5 157.061 121.5 156C121.5 154.939 121.921 153.922 122.672 153.172C123.422 152.421 124.439 152 125.5 152ZM202.5 152H247.5C248.561 152 249.578 152.421 250.328 153.172C251.079 153.922 251.5 154.939 251.5 156C251.5 157.061 251.079 158.078 250.328 158.828C249.578 159.579 248.561 160 247.5 160H202.5C201.439 160 200.422 159.579 199.672 158.828C198.921 158.078 198.5 157.061 198.5 156C198.5 154.939 198.921 153.922 199.672 153.172C200.422 152.421 201.439 152 202.5 152ZM279.5 152H324.5C325.561 152 326.578 152.421 327.328 153.172C328.079 153.922 328.5 154.939 328.5 156C328.5 157.061 328.079 158.078 327.328 158.828C326.578 159.579 325.561 160 324.5 160H279.5C278.439 160 277.422 159.579 276.672 158.828C275.921 158.078 275.5 157.061 275.5 156C275.5 154.939 275.921 153.922 276.672 153.172C277.422 152.421 278.439 152 279.5 152Z" fill="#DADCE0"/>
<path d="M33 171.5H321" stroke="#DADCE0"/>
</g>
<path d="M53 184H168C170.122 184 172.157 184.843 173.657 186.343C175.157 187.843 176 189.878 176 192C176 194.122 175.157 196.157 173.657 197.657C172.157 199.157 170.122 200 168 200H53C50.8783 200 48.8434 199.157 47.3431 197.657C45.8429 196.157 45 194.122 45 192C45 189.878 45.8429 187.843 47.3431 186.343C48.8434 184.843 50.8783 184 53 184ZM55 222.4L60.1 225.5L58.7 219.6L63.2 215.7L57.2 215.2L54.9 209.7L52.6 215.2L46.6 215.7L51.1 219.6L49.7 225.5L55 222.4ZM75 222.4L80.2 225.5L78.8 219.6L83.4 215.7L77.4 215.2L75.1 209.7L72.8 215.2L66.8 215.7L71.4 219.6L70 225.5L75 222.4ZM95 222.4L100.1 225.5L98.7 219.6L103.3 215.7L97.3 215.2L95 209.7L92.7 215.2L86.7 215.7L91.3 219.6L89.9 225.5L95 222.4ZM115 222.4L120.2 225.5L118.8 219.6L123.4 215.7L117.4 215.2L115.1 209.7L112.8 215.2L106.8 215.7L111.4 219.6L110 225.5L115 222.4ZM135 222.4L140.1 225.5L138.7 219.6L143.3 215.7L137.3 215.2L135 209.7L132.7 215.2L126.7 215.7L131.2 219.6L129.8 225.5L135 222.4ZM49 236H147C148.061 236 149.078 236.421 149.828 237.172C150.579 237.922 151 238.939 151 240C151 241.061 150.579 242.078 149.828 242.828C149.078 243.579 148.061 244 147 244H49C47.9391 244 46.9217 243.579 46.1716 242.828C45.4214 242.078 45 241.061 45 240C45 238.939 45.4214 237.922 46.1716 237.172C46.9217 236.421 47.9391 236 49 236ZM255.4 187.9H297.1V247H255.4V187.9Z" fill="#DADCE0"/>
<path d="M255.4 193.1H297.1V247.1H255.4V193.1Z" fill="url(#paint0_linear_133_93)"/>
<path d="M255.4 193.1H297.1L286.7 216.2H245L255.4 193.1Z" fill="#DADCE0"/>
<path d="M260.7 226.5H273.7V247.1H260.7V226.5ZM278.9 226.5H291.9V236.8H278.9V226.5Z" fill="#F8F9FA"/>
<path d="M245 216.2H250.2V218.7C250.2 220.1 249 221.3 247.6 221.3C246.91 221.3 246.249 221.026 245.762 220.538C245.274 220.051 245 219.39 245 218.7V216.2ZM250.2 216.2H255.4V218.7C255.4 220.1 254.2 221.3 252.8 221.3C252.11 221.3 251.449 221.026 250.962 220.538C250.474 220.051 250.2 219.39 250.2 218.7V216.2ZM255.4 216.2H260.6V218.7C260.6 220.1 259.4 221.3 258 221.3C257.31 221.3 256.649 221.026 256.162 220.538C255.674 220.051 255.4 219.39 255.4 218.7V216.2ZM260.7 216.2H265.9V218.7C265.9 220.1 264.7 221.3 263.3 221.3C262.61 221.3 261.949 221.026 261.462 220.538C260.974 220.051 260.7 219.39 260.7 218.7V216.2Z" fill="#E8EAED"/>
<path d="M265.9 216.2H271.1V218.7C271.1 220.1 269.9 221.3 268.5 221.3C267.1 221.3 265.9 220.1 265.9 218.7V216.2ZM271.1 216.2H276.3V218.7C276.3 220.1 275.1 221.3 273.7 221.3C273.358 221.3 273.02 221.233 272.705 221.102C272.389 220.971 272.103 220.78 271.861 220.538C271.62 220.297 271.428 220.01 271.298 219.695C271.167 219.379 271.1 219.041 271.1 218.7V216.2Z" fill="#E8EAED"/>
<path d="M276.3 216.2H281.5V218.7C281.5 220.1 280.3 221.3 278.9 221.3C278.21 221.3 277.549 221.026 277.062 220.538C276.574 220.051 276.3 219.39 276.3 218.7V216.2Z" fill="#E8EAED"/>
<path d="M281.5 216.2H286.7V218.7C286.7 220.1 285.5 221.3 284.1 221.3C282.7 221.3 281.5 220.1 281.5 218.7V216.2Z" fill="#E8EAED"/>
<path d="M297.2 187.9H297.9C303.3 187.9 307.6 192.2 307.6 197.6V247H297.2V187.9Z" fill="#BDC1C6"/>
<path d="M33 262.5H321" stroke="#DADCE0"/>
<mask id="mask1_133_93" style="mask-type:luminance" maskUnits="userSpaceOnUse" x="33" y="263" width="288" height="56">
<path d="M33 263H321V319H33V263Z" fill="white"/>
</mask>
<g mask="url(#mask1_133_93)">
<path d="M81 307C89.8366 307 97 299.837 97 291C97 282.163 89.8366 275 81 275C72.1634 275 65 282.163 65 291C65 299.837 72.1634 307 81 307Z" fill="#DADCE0"/>
<path d="M84.3999 293L82.1999 295.2C79.8924 293.991 78.0085 292.108 76.7999 289.8L78.9999 287.6C79.1999 287.4 79.2999 287.1 79.1999 286.8L78.6999 284.1C78.5999 283.7 78.2999 283.4 77.8999 283.4H74.3999C73.8999 283.4 73.4999 283.8 73.5999 284.3C73.6999 286.7 74.4999 289 75.5999 291C76.8999 293.2 78.7999 295.1 80.9999 296.4C82.9999 297.6 85.1999 298.3 87.6999 298.4C88.1999 298.4 88.5999 298 88.5999 297.6V294.1C88.5999 293.7 88.2999 293.4 87.8999 293.3L85.1999 292.8L84.3999 293Z" fill="white"/>
<path d="M145 307C153.837 307 161 299.837 161 291C161 282.163 153.837 275 145 275C136.163 275 129 282.163 129 291C129 299.837 136.163 307 145 307Z" fill="#DADCE0"/>
<path fill-rule="evenodd" clip-rule="evenodd" d="M152.8 289.8L146.1 283.1C145.8 282.8 145.3 282.6 144.9 282.6C144.5 282.6 144 282.8 143.7 283.1L137 289.8C136.3 290.4 136.3 291.5 137 292.2L143.7 298.9C144 299.2 144.5 299.4 144.9 299.4C145.3 299.4 145.8 299.2 146.1 298.9L152.8 292.2C153.5 291.5 153.5 290.5 152.8 289.8ZM145 297.7L138.3 291L145 284.3L151.7 291L145 297.7ZM146 290.2L143.8 288L145 286.8L149.2 291L145 295.2L143.8 294L146 291.8H140.9V290.1H146V290.2Z" fill="white"/>
<path d="M209 307C217.837 307 225 299.837 225 291C225 282.163 217.837 275 209 275C200.163 275 193 282.163 193 291C193 299.837 200.163 307 209 307Z" fill="#DADCE0"/>
<path fill-rule="evenodd" clip-rule="evenodd" d="M204.8 283.5H213.1C214 283.5 214.8 284.3 214.8 285.2V298.5L209 296L203.2 298.5V285.2C203.2 284.2 203.9 283.5 204.8 283.5ZM209 294.2L213.2 296V285.2H204.9V296L209 294.2Z" fill="white"/>
<path d="M273 307C281.837 307 289 299.837 289 291C289 282.163 281.837 275 273 275C264.163 275 257 282.163 257 291C257 299.837 264.163 307 273 307Z" fill="#DADCE0"/>
<path fill-rule="evenodd" clip-rule="evenodd" d="M273 282.7C270.799 282.7 268.688 283.574 267.131 285.131C265.574 286.688 264.7 288.799 264.7 291C264.7 293.201 265.574 295.312 267.131 296.869C268.688 298.425 270.799 299.3 273 299.3C275.201 299.3 277.312 298.425 278.869 296.869C280.425 295.312 281.3 293.201 281.3 291C281.3 288.799 280.425 286.688 278.869 285.131C277.312 283.574 275.201 282.7 273 282.7ZM266.3 291L266.5 289.5L270.5 293.5V294.3C270.5 295.2 271.3 296 272.2 296V297.6C270.582 297.405 269.091 296.628 268.005 295.413C266.919 294.198 266.313 292.629 266.3 291ZM276.3 294.3C277.1 294.3 277.7 294.8 277.9 295.5C278.647 294.714 279.188 293.757 279.477 292.712C279.765 291.667 279.792 290.567 279.555 289.51C279.318 288.452 278.824 287.469 278.117 286.648C277.409 285.826 276.511 285.192 275.5 284.8V285.1C275.5 286 274.7 286.8 273.8 286.8H272.1V288.5C272.1 289 271.7 289.3 271.3 289.3H269.6V291H274.6C275.1 291 275.4 291.4 275.4 291.8V294.3H276.3Z" fill="white"/>
<path d="M33 318.5H321" stroke="#DADCE0"/>
</g>
<path d="M33 390.5H321" stroke="#DADCE0"/>
<path d="M49 331H166C167.061 331 168.078 331.421 168.828 332.172C169.579 332.922 170 333.939 170 335C170 336.061 169.579 337.078 168.828 337.828C168.078 338.579 167.061 339 166 339H49C47.9391 339 46.9217 338.579 46.1716 337.828C45.4214 337.078 45 336.061 45 335C45 333.939 45.4214 332.922 46.1716 332.172C46.9217 331.421 47.9391 331 49 331ZM49 351H199C200.061 351 201.078 351.421 201.828 352.172C202.579 352.922 203 353.939 203 355C203 356.061 202.579 357.078 201.828 357.828C201.078 358.579 200.061 359 199 359H49C47.9391 359 46.9217 358.579 46.1716 357.828C45.4214 357.078 45 356.061 45 355C45 353.939 45.4214 352.922 46.1716 352.172C46.9217 351.421 47.9391 351 49 351ZM49 371H120C121.061 371 122.078 371.421 122.828 372.172C123.579 372.922 124 373.939 124 375C124 376.061 123.579 377.078 122.828 377.828C122.078 378.579 121.061 379 120 379H49C47.9391 379 46.9217 378.579 46.1716 377.828C45.4214 377.078 45 376.061 45 375C45 373.939 45.4214 372.922 46.1716 372.172C46.9217 371.421 47.9391 371 49 371Z" fill="#DADCE0"/>
<path d="M297.1 360.6L295.9 359.4L300.3 355L295.9 350.6L297.1 349.4L302.7 355L297.1 360.6Z" fill="#5F6368"/>
<path fill-rule="evenodd" clip-rule="evenodd" d="M57 430C55.1435 430 53.363 430.738 52.0503 432.05C50.7375 433.363 50 435.143 50 437C50 442.2 57 450 57 450C57 450 64 442.2 64 437C64 435.143 63.2625 433.363 61.9497 432.05C60.637 430.738 58.8565 430 57 430ZM52 437C52 434.2 54.2 432 57 432C59.8 432 62 434.2 62 437C62 439.9 59.1 444.2 57 446.9C54.9 444.2 52 439.9 52 437ZM57 439.5C58.4 439.5 59.5 438.4 59.5 437C59.5 435.6 58.4 434.5 57 434.5C55.6 434.5 54.5 435.6 54.5 437C54.5 438.4 55.6 439.5 57 439.5Z" fill="#DADCE0"/>
<path d="M85 416H199C200.061 416 201.078 416.421 201.828 417.172C202.579 417.922 203 418.939 203 420C203 421.061 202.579 422.078 201.828 422.828C201.078 423.579 200.061 424 199 424H85C83.9391 424 82.9217 423.579 82.1716 422.828C81.4214 422.078 81 421.061 81 420C81 418.939 81.4214 417.922 82.1716 417.172C82.9217 416.421 83.9391 416 85 416ZM85 436H176.8C177.861 436 178.878 436.421 179.628 437.172C180.379 437.922 180.8 438.939 180.8 440C180.8 441.061 180.379 442.078 179.628 442.828C178.878 443.579 177.861 444 176.8 444H85C83.9391 444 82.9217 443.579 82.1716 442.828C81.4214 442.078 81 441.061 81 440C81 438.939 81.4214 437.922 82.1716 437.172C82.9217 436.421 83.9391 436 85 436ZM85 456H176.8C177.861 456 178.878 456.421 179.628 457.172C180.379 457.922 180.8 458.939 180.8 460C180.8 461.061 180.379 462.078 179.628 462.828C178.878 463.579 177.861 464 176.8 464H85C83.9391 464 82.9217 463.579 82.1716 462.828C81.4214 462.078 81 461.061 81 460C81 458.939 81.4214 457.922 82.1716 457.172C82.9217 456.421 83.9391 456 85 456Z" fill="#DADCE0"/>
<mask id="mask2_133_93" style="mask-type:luminance" maskUnits="userSpaceOnUse" x="221" y="391" width="100" height="100">
<path d="M221 391H321V491H221V391Z" fill="#DADCE0"/>
</mask>
<g mask="url(#mask2_133_93)">
<path d="M221 391H321V491H221V391Z" fill="#F1F3F4"/>
<path d="M271.9 496.3L263.7 497.6C263.039 496.421 262.643 495.113 262.54 493.766C262.436 492.419 262.627 491.066 263.1 489.8C263.801 488.072 264.981 486.581 266.5 485.5L271.8 496.1L271.9 496.3Z" fill="#DADCE0"/>
<path d="M266.5 485.6C268.9 483.9 272 483 275.5 481.7L282 494.7C281.232 493.312 279.989 492.247 278.5 491.7C275.6 490.5 272.5 491.3 271.7 493.4C271.3 494.3 271.4 495.3 271.9 496.3L266.5 485.6ZM290.7 501.1C290 502.8 288.8 504.1 287.2 505.1L282 494.7V494.6L275.5 481.6L278.9 480.1C283 478.1 282.9 475.8 284.7 476.6C286.5 477.3 284.9 478.9 286.4 483.2C288.9 490.4 293.2 495 290.7 501.1Z" fill="#DADCE0"/>
<path d="M307.4 371.8L209.4 506.8M275 418H176M383 406H284" stroke="#BDC1C6" stroke-width="6"/>
</g>
<path d="M280.5 445.2L273.4 439.3C271.123 441.979 269.881 445.384 269.9 448.9C269.9 451.7 270.5 454 271.4 456L280.3 445.4L280.5 445.2ZM284.9 434C282.73 434.006 280.586 434.483 278.618 435.398C276.65 436.313 274.904 437.644 273.5 439.3L280.6 445.2L280.7 445.1L289.5 434.6C288 434.2 286.5 434 284.9 434Z" fill="#DADCE0"/>
<path d="M289.3 452.5L298.1 442C297.206 440.267 295.977 438.729 294.483 437.476C292.99 436.223 291.262 435.279 289.4 434.7L280.5 445.2C281.5 444 283.1 443.2 284.9 443.2C285.976 443.204 287.03 443.512 287.938 444.089C288.846 444.667 289.573 445.489 290.033 446.462C290.493 447.435 290.669 448.519 290.539 449.587C290.409 450.656 289.98 451.665 289.3 452.5ZM271.5 456C273.1 459.4 275.6 462.2 278.3 465.6L289.3 452.5C288.549 453.412 287.534 454.068 286.395 454.377C285.255 454.687 284.048 454.635 282.939 454.229C281.83 453.823 280.875 453.082 280.205 452.11C279.535 451.137 279.184 449.981 279.2 448.8C279.2 447.5 279.7 446.2 280.4 445.2L271.5 456Z" fill="#DADCE0"/>
<path d="M299.8 448.9C299.8 446.4 299.2 444.1 298.1 442L289.3 452.5L289.2 452.6L278.2 465.7L280.8 469.3C283.8 474 282.9 476.8 284.8 476.8C286.8 476.8 285.9 474 288.9 469.3C294 461.5 299.8 458 299.8 448.9Z" fill="#DADCE0"/>
<path d="M33 490.5H321" stroke="#DADCE0"/>
<path fill-rule="evenodd" clip-rule="evenodd" d="M57 509C51.5 509 47 513.5 47 519C47 524.5 51.5 529 57 529C62.5 529 67 524.5 67 519C67 513.5 62.5 509 57 509ZM57 527C52.6 527 49 523.4 49 519C49 514.6 52.6 511 57 511C61.4 511 65 514.6 65 519C65 523.4 61.4 527 57 527ZM58 513V519L62.2 521.9L60.9 523.4L55.9 519.9V512.9H58V513Z" fill="#DADCE0"/>
<path d="M85 515H200C201.061 515 202.078 515.421 202.828 516.172C203.579 516.922 204 517.939 204 519C204 520.061 203.579 521.078 202.828 521.828C202.078 522.579 201.061 523 200 523H85C83.9391 523 82.9217 522.579 82.1716 521.828C81.4214 521.078 81 520.061 81 519C81 517.939 81.4214 516.922 82.1716 516.172C82.9217 515.421 83.9391 515 85 515Z" fill="#DADCE0"/>
<path d="M33 546.5H321" stroke="#DADCE0"/>
<path fill-rule="evenodd" clip-rule="evenodd" d="M57 621C51.5 621 47 625.5 47 631C47 636.5 51.5 641 57 641C62.5 641 67 636.5 67 631C67 625.5 62.5 621 57 621ZM49 631L49.2 629.2L54 634V635C54 636.1 54.9 637 56 637V638.9C54.0731 638.657 52.3003 637.722 51.0123 636.268C49.7243 634.815 49.009 632.942 49 631ZM61 635C61.4242 635.002 61.837 635.138 62.1785 635.39C62.5201 635.642 62.7727 635.995 62.9 636.4C64.2501 634.926 64.9993 632.999 65 631C65 627.7 62.9 624.8 60 623.6V624C60 624.53 59.7893 625.039 59.4142 625.414C59.0391 625.789 58.5304 626 58 626H56V628C56 628.5 55.5 629 55 629H53V631H59C59.5 631 60 631.5 60 632V635H61Z" fill="#DADCE0"/>
<path d="M85 627H200C201.061 627 202.078 627.421 202.828 628.172C203.579 628.922 204 629.939 204 631C204 632.061 203.579 633.078 202.828 633.828C202.078 634.579 201.061 635 200 635H85C83.9391 635 82.9217 634.579 82.1716 633.828C81.4214 633.078 81 632.061 81 631C81 629.939 81.4214 628.922 82.1716 628.172C82.9217 627.421 83.9391 627 85 627ZM61 577.5L58.4 580.1C55.6 578.6 53.4 576.3 51.9 573.6L54.5 571C54.7 570.8 54.8 570.4 54.8 570.1L54.2 566.8C54.1532 566.571 54.0276 566.365 53.8449 566.219C53.6621 566.073 53.4339 565.995 53.2 566H49C48.7348 566 48.4804 566.105 48.2929 566.293C48.1054 566.48 48 566.735 48 567C48.1901 569.959 49.1003 572.827 50.6514 575.354C52.2025 577.881 54.3476 579.991 56.9 581.5C59.3256 582.953 62.0752 583.778 64.9 583.9C65.5 583.9 65.9 583.5 65.9 582.9V578.8C65.9047 578.566 65.8272 578.338 65.6811 578.155C65.5349 577.972 65.3293 577.847 65.1 577.8L61.8 577.1C61.6 577.1 61.3 577.2 61 577.5ZM85 571H200C201.061 571 202.078 571.421 202.828 572.172C203.579 572.922 204 573.939 204 575C204 576.061 203.579 577.078 202.828 577.828C202.078 578.579 201.061 579 200 579H85C83.9391 579 82.9217 578.579 82.1716 577.828C81.4214 577.078 81 576.061 81 575C81 573.939 81.4214 572.922 82.1716 572.172C82.9217 571.421 83.9391 571 85 571Z" fill="#DADCE0"/>
<path d="M33 602.5H321" stroke="#DADCE0"/>
<g clip-path="url(#clip0_133_93)">
<path d="M135.422 83.6998L143.944 78.9258L135.422 74.1518V73.6971L144.73 78.9258L135.422 84.1545V83.6998ZM148.863 83.4518H157.384V83.8445H148.863V83.4518ZM160.456 68.6338H170.996V71.5271H167.193V83.8445H164.111V71.5271H160.456V68.6338ZM173.205 76.3838C173.205 75.3505 173.403 74.3791 173.8 73.4698C174.211 72.5467 174.778 71.7338 175.5 71.0311C176.223 70.3147 177.051 69.7567 177.986 69.3571C178.935 68.9438 179.955 68.7371 181.046 68.7371C182.123 68.7371 183.129 68.9438 184.064 69.3571C185.013 69.7567 185.849 70.3147 186.571 71.0311C187.308 71.7338 187.882 72.5467 188.293 73.4698C188.703 74.3791 188.909 75.3505 188.909 76.3838C188.909 77.4447 188.703 78.4367 188.293 79.3598C187.882 80.2829 187.308 81.0958 186.571 81.7985C185.849 82.4873 185.013 83.0316 184.064 83.4311C183.129 83.8169 182.123 84.0098 181.046 84.0098C179.955 84.0098 178.935 83.8169 177.986 83.4311C177.051 83.0453 176.223 82.508 175.5 81.8191C174.778 81.1302 174.211 80.3242 173.8 79.4011C173.403 78.478 173.205 77.4722 173.205 76.3838ZM175.33 76.4045C175.33 77.1898 175.479 77.9269 175.776 78.6158C176.074 79.2909 176.485 79.8902 177.009 80.4138C177.533 80.9373 178.142 81.3507 178.836 81.6538C179.53 81.9431 180.281 82.0878 181.089 82.0878C181.882 82.0878 182.626 81.9431 183.32 81.6538C184.014 81.3507 184.616 80.9373 185.126 80.4138C185.636 79.8902 186.04 79.2909 186.338 78.6158C186.635 77.9269 186.784 77.1829 186.784 76.3838C186.784 75.5985 186.635 74.8613 186.338 74.1725C186.04 73.4698 185.629 72.8567 185.105 72.3331C184.581 71.8096 183.972 71.4031 183.278 71.1138C182.583 70.8107 181.84 70.6591 181.046 70.6591C180.239 70.6591 179.488 70.8107 178.794 71.1138C178.1 71.4169 177.49 71.8302 176.966 72.3538C176.442 72.8773 176.038 73.4905 175.755 74.1931C175.472 74.882 175.33 75.6191 175.33 76.4045Z" fill="#484848"/>
<path d="M195.314 74.0484L195.229 74.8131L195.697 74.2344L200.797 68.6338H204.792L198.332 75.4538L204.813 83.8444H200.903L196.079 77.3551L195.314 78.0991V83.8444H192.191V68.6338H195.314V74.0484ZM207.344 68.9024H217.331V70.8244H209.405V75.3711H216.481V77.2931H209.405V81.9224H217.629V83.8444H207.344V68.9024ZM234.509 84.3198L222.63 72.6018L223.225 72.7464L223.267 83.8444H221.206V68.4478H221.312L233.064 80.2071L232.575 80.1038L232.532 68.9024H234.572V84.3198H234.509ZM133.65 96.2444L137.475 87.056H137.526L141.351 96.2444H140.65L137.322 88.0232L137.756 87.7876L134.275 96.2444H133.65ZM135.499 92.76H139.515L139.694 93.3304H135.346L135.499 92.76ZM145.293 98.6128C145.013 98.6128 144.745 98.5798 144.49 98.5136C144.235 98.4558 143.984 98.3524 143.738 98.2036C143.491 98.0548 143.236 97.8606 142.973 97.6208L143.33 97.224C143.695 97.563 144.035 97.7903 144.35 97.906C144.664 98.03 144.97 98.092 145.268 98.092C145.786 98.092 146.199 98.0094 146.505 97.844C146.811 97.687 147.032 97.472 147.168 97.1992C147.304 96.9347 147.376 96.6371 147.384 96.3064L147.397 94.7316L147.537 94.8804C147.367 95.3103 147.061 95.6616 146.619 95.9344C146.186 96.2072 145.693 96.3436 145.14 96.3436C144.673 96.3436 144.244 96.232 143.853 96.0088C143.47 95.7774 143.164 95.4715 142.935 95.0912C142.705 94.7027 142.59 94.2728 142.59 93.8016C142.59 93.2974 142.709 92.8551 142.947 92.4748C143.185 92.0946 143.508 91.797 143.916 91.582C144.324 91.3588 144.775 91.2472 145.268 91.2472C145.727 91.2472 146.16 91.363 146.568 91.5944C146.985 91.8259 147.287 92.1318 147.474 92.512L147.397 92.7848L147.461 91.396H147.996V96.3188C147.996 96.7156 147.903 97.0876 147.716 97.4348C147.537 97.7903 147.248 98.0755 146.849 98.2904C146.458 98.5054 145.939 98.6128 145.293 98.6128ZM143.19 93.7892C143.19 94.1695 143.283 94.5167 143.47 94.8308C143.657 95.1367 143.908 95.3847 144.222 95.5748C144.545 95.7567 144.902 95.8476 145.293 95.8476C145.667 95.8476 146.007 95.7691 146.313 95.612C146.619 95.4467 146.87 95.2276 147.066 94.9548C147.261 94.682 147.372 94.3886 147.397 94.0744V93.3552C147.329 93.0411 147.193 92.7642 146.989 92.5244C146.794 92.2847 146.547 92.0946 146.25 91.954C145.961 91.8135 145.642 91.7432 145.293 91.7432C144.902 91.7432 144.545 91.83 144.222 92.0036C143.908 92.1772 143.657 92.417 143.47 92.7228C143.283 93.0287 143.19 93.3842 143.19 93.7892ZM152.439 96.3436C151.921 96.3436 151.462 96.232 151.062 96.0088C150.663 95.7856 150.348 95.4839 150.119 95.1036C149.898 94.7151 149.787 94.2811 149.787 93.8016C149.787 93.3304 149.906 92.9006 150.144 92.512C150.382 92.1235 150.701 91.8135 151.1 91.582C151.508 91.3506 151.959 91.2348 152.452 91.2348C153.047 91.2348 153.544 91.4043 153.944 91.7432C154.352 92.0822 154.645 92.5244 154.823 93.07L150.463 94.7068L150.284 94.2852L154.275 92.7724L154.148 92.946C154.003 92.6154 153.782 92.3302 153.485 92.0904C153.196 91.8507 152.839 91.7308 152.414 91.7308C152.031 91.7308 151.687 91.8218 151.381 92.0036C151.075 92.1855 150.828 92.4294 150.641 92.7352C150.463 93.0411 150.374 93.3883 150.374 93.7768C150.374 94.1406 150.459 94.4795 150.629 94.7936C150.807 95.1078 151.054 95.3599 151.368 95.55C151.683 95.7402 152.044 95.8352 152.452 95.8352C152.724 95.8352 152.983 95.7856 153.23 95.6864C153.485 95.5872 153.71 95.4591 153.905 95.302L154.211 95.7236C153.973 95.9055 153.697 96.0543 153.383 96.17C153.077 96.2858 152.762 96.3436 152.439 96.3436ZM157.007 91.396L157.071 92.9212L156.995 92.6236C157.139 92.202 157.411 91.8714 157.811 91.6316C158.219 91.3836 158.669 91.2596 159.162 91.2596C159.63 91.2596 160.008 91.396 160.297 91.6688C160.586 91.9334 160.735 92.2806 160.743 92.7104V96.2444H160.131V92.8716C160.123 92.5575 160.021 92.2971 159.825 92.0904C159.63 91.8838 159.345 91.7763 158.971 91.768C158.639 91.768 158.329 91.8466 158.04 92.0036C157.751 92.1607 157.517 92.3798 157.339 92.6608C157.169 92.9419 157.084 93.2684 157.084 93.6404V96.2444H156.485V91.396H157.007ZM166.86 95.7732C166.63 95.9551 166.371 96.0956 166.082 96.1948C165.793 96.294 165.491 96.3436 165.177 96.3436C164.667 96.3436 164.212 96.2362 163.812 96.0212C163.413 95.798 163.098 95.4963 162.869 95.116C162.639 94.7358 162.525 94.3018 162.525 93.814C162.525 93.3263 162.644 92.8923 162.882 92.512C163.12 92.1318 163.434 91.8342 163.825 91.6192C164.225 91.396 164.658 91.2844 165.126 91.2844C165.474 91.2844 165.797 91.334 166.095 91.4332C166.392 91.5324 166.651 91.673 166.872 91.8548L166.554 92.2516C166.375 92.1111 166.167 91.9954 165.929 91.9044C165.691 91.8135 165.436 91.768 165.164 91.768C164.79 91.768 164.446 91.859 164.131 92.0408C163.825 92.2227 163.579 92.4707 163.392 92.7848C163.213 93.0907 163.124 93.4338 163.124 93.814C163.124 94.186 163.213 94.5291 163.392 94.8432C163.579 95.1491 163.829 95.393 164.144 95.5748C164.467 95.7567 164.824 95.8476 165.215 95.8476C165.47 95.8476 165.708 95.8104 165.929 95.736C166.15 95.6534 166.35 95.5459 166.528 95.4136L166.86 95.7732ZM168.984 98.5756L172.235 91.396H172.822L169.609 98.5756H168.984ZM170.106 96.294L167.747 91.396H168.423L170.578 95.984L170.106 96.294ZM179.147 88.4324C178.884 88.3084 178.561 88.1927 178.178 88.0852C177.796 87.9778 177.413 87.924 177.031 87.924C176.436 87.924 175.96 88.0687 175.603 88.358C175.246 88.6474 175.067 89.0111 175.067 89.4492C175.067 89.7799 175.169 90.0568 175.373 90.28C175.577 90.495 175.845 90.681 176.176 90.838C176.508 90.9868 176.861 91.1315 177.235 91.272C177.532 91.3795 177.825 91.4994 178.114 91.6316C178.412 91.7639 178.68 91.9251 178.918 92.1152C179.156 92.3054 179.343 92.541 179.479 92.822C179.623 93.1031 179.695 93.4503 179.695 93.8636C179.695 94.3514 179.576 94.7854 179.338 95.1656C179.1 95.5376 178.769 95.827 178.344 96.0336C177.919 96.2403 177.426 96.3436 176.865 96.3436C176.414 96.3436 176.002 96.2899 175.628 96.1824C175.263 96.075 174.94 95.951 174.659 95.8104C174.387 95.6616 174.17 95.5376 174.009 95.4384L174.302 94.9424C174.489 95.0747 174.714 95.207 174.978 95.3392C175.25 95.4715 175.543 95.5831 175.858 95.674C176.172 95.765 176.487 95.8104 176.801 95.8104C177.167 95.8104 177.519 95.7402 177.859 95.5996C178.208 95.4591 178.493 95.2483 178.714 94.9672C178.943 94.6779 179.058 94.3142 179.058 93.876C179.058 93.4544 178.952 93.1155 178.739 92.8592C178.527 92.5947 178.255 92.3798 177.923 92.2144C177.592 92.0491 177.239 91.9003 176.865 91.768C176.576 91.6606 176.287 91.549 175.998 91.4332C175.709 91.3092 175.445 91.1646 175.207 90.9992C174.969 90.8256 174.778 90.619 174.634 90.3792C174.498 90.1395 174.43 89.8502 174.43 89.5112C174.43 89.0896 174.54 88.7218 174.761 88.4076C174.982 88.0935 175.28 87.8496 175.654 87.676C176.036 87.4942 176.47 87.3991 176.954 87.3908C177.379 87.3908 177.808 87.4446 178.242 87.552C178.684 87.6595 179.066 87.7959 179.389 87.9612L179.147 88.4324ZM181.239 93.7892C181.239 93.318 181.354 92.8882 181.583 92.4996C181.821 92.1111 182.14 91.8052 182.539 91.582C182.947 91.3506 183.402 91.2348 183.904 91.2348C184.414 91.2348 184.868 91.3506 185.268 91.582C185.667 91.8052 185.982 92.1111 186.211 92.4996C186.441 92.8882 186.556 93.318 186.556 93.7892C186.556 94.2604 186.441 94.6903 186.211 95.0788C185.982 95.4674 185.663 95.7774 185.255 96.0088C184.856 96.232 184.405 96.3436 183.904 96.3436C183.394 96.3436 182.939 96.2362 182.539 96.0212C182.14 95.798 181.821 95.4963 181.583 95.116C181.354 94.7275 181.239 94.2852 181.239 93.7892ZM181.838 93.8016C181.838 94.1819 181.927 94.5291 182.106 94.8432C182.293 95.1491 182.539 95.393 182.845 95.5748C183.16 95.7567 183.508 95.8476 183.891 95.8476C184.273 95.8476 184.618 95.7567 184.924 95.5748C185.238 95.393 185.485 95.1491 185.663 94.8432C185.85 94.5291 185.944 94.1819 185.944 93.8016C185.944 93.4214 185.85 93.0783 185.663 92.7724C185.485 92.4583 185.238 92.2103 184.924 92.0284C184.618 91.8383 184.273 91.7432 183.891 91.7432C183.5 91.7432 183.147 91.8424 182.833 92.0408C182.527 92.231 182.284 92.4831 182.106 92.7972C181.927 93.1114 181.838 93.4462 181.838 93.8016ZM188.666 96.2444V91.9416H187.799V91.4084H188.666V88.9656C188.666 88.1886 188.802 87.6306 189.074 87.2916C189.355 86.9444 189.767 86.7708 190.311 86.7708C190.43 86.7708 190.558 86.7874 190.694 86.8204C190.83 86.8452 190.953 86.8907 191.063 86.9568L190.808 87.3784C190.749 87.3371 190.681 87.3082 190.604 87.2916C190.536 87.2668 190.456 87.2544 190.362 87.2544C189.997 87.2544 189.72 87.3784 189.533 87.6264C189.355 87.8744 189.266 88.3167 189.266 88.9532V91.4084H190.936V91.9416H189.266V96.2444H188.666ZM192.966 89.2632H193.578V91.458H195.121V91.9292H193.578V96.2444H192.966V91.9292H191.908V91.458H192.966V89.2632ZM199.42 91.396L201.307 95.5252L201.167 95.5376L202.99 91.396H203.602L201.256 96.542L199.649 93.0948L198.183 96.542L195.837 91.396H196.436L198.362 95.612L198.145 95.55L199.42 92.5492L198.872 91.396H199.42ZM207.073 96.3436C206.597 96.3436 206.163 96.2403 205.772 96.0336C205.39 95.8187 205.084 95.5211 204.854 95.1408C204.633 94.7606 204.523 94.3183 204.523 93.814C204.523 93.2767 204.642 92.8179 204.88 92.4376C205.118 92.0491 205.441 91.7556 205.849 91.5572C206.257 91.3506 206.72 91.2472 207.238 91.2472C207.68 91.2472 208.097 91.3754 208.488 91.6316C208.887 91.8879 209.172 92.2103 209.342 92.5988L209.253 92.7724L209.329 91.396H209.865V96.2444H209.266V94.744L209.393 94.9672C209.334 95.1326 209.232 95.2979 209.087 95.4632C208.943 95.6203 208.764 95.7691 208.552 95.9096C208.348 96.0419 208.118 96.1494 207.863 96.232C207.617 96.3064 207.353 96.3436 207.073 96.3436ZM207.2 95.8476C207.574 95.8476 207.91 95.7732 208.207 95.6244C208.513 95.4674 208.76 95.2524 208.947 94.9796C209.134 94.7068 209.24 94.3927 209.266 94.0372V93.3428C209.198 93.037 209.062 92.7642 208.858 92.5244C208.662 92.2847 208.42 92.0946 208.131 91.954C207.842 91.8135 207.527 91.7432 207.187 91.7432C206.813 91.7432 206.469 91.83 206.155 92.0036C205.84 92.169 205.589 92.4046 205.402 92.7104C205.215 93.0163 205.122 93.3759 205.122 93.7892C205.122 94.1695 205.215 94.5167 205.402 94.8308C205.589 95.1367 205.84 95.3847 206.155 95.5748C206.478 95.7567 206.826 95.8476 207.2 95.8476ZM212.652 91.396L212.715 92.884L212.639 92.698C212.749 92.4004 212.924 92.1442 213.162 91.9292C213.4 91.7143 213.663 91.549 213.952 91.4332C214.25 91.3175 214.534 91.2596 214.806 91.2596L214.781 91.83C214.398 91.83 214.05 91.9127 213.735 92.078C213.429 92.2434 213.183 92.4666 212.996 92.7476C212.817 93.0204 212.728 93.3304 212.728 93.6776V96.2444H212.129V91.396H212.652ZM218.455 96.3436C217.936 96.3436 217.477 96.232 217.078 96.0088C216.678 95.7856 216.364 95.4839 216.134 95.1036C215.913 94.7151 215.803 94.2811 215.803 93.8016C215.803 93.3304 215.922 92.9006 216.16 92.512C216.398 92.1235 216.717 91.8135 217.116 91.582C217.524 91.3506 217.975 91.2348 218.468 91.2348C219.063 91.2348 219.56 91.4043 219.959 91.7432C220.367 92.0822 220.661 92.5244 220.839 93.07L216.479 94.7068L216.3 94.2852L220.291 92.7724L220.163 92.946C220.019 92.6154 219.798 92.3302 219.5 92.0904C219.211 91.8507 218.854 91.7308 218.429 91.7308C218.047 91.7308 217.703 91.8218 217.397 92.0036C217.091 92.1855 216.844 92.4294 216.657 92.7352C216.479 93.0411 216.389 93.3883 216.389 93.7768C216.389 94.1406 216.474 94.4795 216.644 94.7936C216.823 95.1078 217.069 95.3599 217.384 95.55C217.698 95.7402 218.06 95.8352 218.468 95.8352C218.74 95.8352 218.999 95.7856 219.245 95.6864C219.5 95.5872 219.726 95.4591 219.921 95.302L220.227 95.7236C219.989 95.9055 219.713 96.0543 219.398 96.17C219.092 96.2858 218.778 96.3436 218.455 96.3436Z" fill="#16E22A"/>
</g>
<defs>
<linearGradient id="paint0_linear_133_93" x1="276.3" y1="213.6" x2="276.3" y2="256" gradientUnits="userSpaceOnUse">
<stop stop-color="#9AA0A6"/>
<stop offset="1" stop-color="#BDC1C6"/>
</linearGradient>
<clipPath id="clip0_133_93">
<rect width="102" height="31" fill="white" transform="translate(133 68)"/>
</clipPath>
</defs>
</svg>
