<svg width="6680" height="5092" viewBox="0 0 6680 5092" fill="none" xmlns="http://www.w3.org/2000/svg">
<rect x="1909.5" y="1858.5" width="2510" height="1927" fill="#A7B8F6" stroke="white" stroke-width="59"/>
<rect x="471.5" y="28.5" width="6180" height="4042" stroke="white" stroke-width="57"/>
<rect x="1022.5" y="2430.5" width="2510" height="1927" fill="#435EBA" stroke="white" stroke-width="59"/>
<rect x="29.5" y="3135.5" width="2510" height="1927" fill="#0C1B4F" stroke="white" stroke-width="59"/>
<path d="M904.947 4157.31L1097.38 4253.02V4320.01L863.59 4190.47V4151.16L904.947 4157.31ZM1097.38 4078.7L905.289 4175.77L863.59 4180.55V4140.91L1097.38 4011.71V4078.7ZM1385.17 3889.34L1210.86 4429.72H1159.93L1334.59 3889.34H1385.17ZM1654.85 4170.98L1455.24 4076.31V4011.02L1701.68 4140.22V4180.21L1654.85 4170.98ZM1455.24 4254.38L1655.19 4157.65L1701.68 4150.48V4190.12L1455.24 4319.67V4254.38Z" fill="white"/>
</svg>
