<svg width="32" height="42" viewBox="0 0 32 42" fill="none" xmlns="http://www.w3.org/2000/svg">
<g clip-path="url(#clip0_4_31)">
<path d="M16 20.9937C21.05 20.9937 25.1429 16.3684 25.1429 10.6614C25.1429 4.95442 21.05 0.329102 16 0.329102C10.95 0.329102 6.85714 4.95442 6.85714 10.6614C6.85714 16.3684 10.95 20.9937 16 20.9937ZM12.7357 24.8683C5.7 24.8683 0 31.3098 0 39.2608C0 40.5847 0.95 41.6583 2.12143 41.6583H29.8786C31.05 41.6583 32 40.5847 32 39.2608C32 31.3098 26.3 24.8683 19.2643 24.8683H12.7357Z" fill="#16E22A"/>
</g>
<defs>
<clipPath id="clip0_4_31">
<rect width="32" height="41.3292" fill="white" transform="translate(0 0.329102)"/>
</clipPath>
</defs>
</svg>
