<svg xmlns="http://www.w3.org/2000/svg" fill="none" viewBox="0 0 56 56"><path stroke="#171D20" stroke-linecap="round" stroke-linejoin="round" stroke-width="1.333" d="M6.865 35.392c-.48-.04-1.596-.089-2.026-.37-1.312-.86-.891-9.13.28-10.315 1.154-1.164 3.289-1.54 4.663-1.986 1.548-.505 5.669-5.005 9.79-6.205 2.678-.78 6.561-.83 9.065.836 2.923 1.945 5.238 3.946 8.644 4.268 2.41.227 4.333.215 6.654.673 2.992.589 4.488 1.29 6.353 2.633A6.74 6.74 0 0 1 52.9 28.61c.343 1.194.104 2.99.05 4.609a1.643 1.643 0 0 1-1.514 1.669c-.848.018-1.569.042-1.694.056l-42.877.447Z"/><path stroke="#171D20" stroke-linecap="round" stroke-linejoin="round" stroke-width="1.333" d="M25.893 19.25a9.687 9.687 0 0 0-5.005-.267v3.738h10.237c-1.737-1.55-2.963-2.651-5.232-3.47Zm-7.52.41v3.061h-4.21"/><path fill="#89F3AD" stroke="#171D20" stroke-linecap="round" stroke-linejoin="round" stroke-width="1.333" d="M12.733 38.5a5.14 5.14 0 1 0 0-10.28 5.14 5.14 0 0 0 0 10.28Zm30.448 0a5.14 5.14 0 1 0 0-10.28 5.14 5.14 0 0 0 0 10.28Z"/></svg>