<svg xmlns="http://www.w3.org/2000/svg" fill="none" viewBox="0 0 56 57"><path stroke="#171D20" stroke-linecap="round" stroke-linejoin="round" stroke-width="1.362" d="m28.601 30.81 5.928 5.927a2.308 2.308 0 0 1 0 3.255v0a2.308 2.308 0 0 1-3.254 0L21.01 29.728"/><path stroke="#171D20" stroke-linecap="round" stroke-linejoin="round" stroke-width="1.362" d="m20.921 29.819 10.263 10.263a2.308 2.308 0 0 1 0 3.255v0a2.308 2.308 0 0 1-3.254 0L7.659 23.248a2.226 2.226 0 0 1-.013-3.15l6.768-6.811a2.225 2.225 0 0 1 3.15-.008L37.81 33.454a2.308 2.308 0 0 1 0 3.255v0a2.308 2.308 0 0 1-3.255 0l-5.954-5.9"/><path fill="#89F3AD" stroke="#171D20" stroke-linecap="round" stroke-linejoin="round" stroke-width="1.362" d="m32.036 23.203-3.983 3.984a2.307 2.307 0 0 1-3.255 0 2.308 2.308 0 0 1 0-3.255l11.847-12.046a2.183 2.183 0 0 1 3.095-.017l7.145 7.103a2.182 2.182 0 0 1-.01 3.107l-10.278 10.08-6.771-6.675 2.21-2.28ZM18.797 36.709l3.912-3.912a2.301 2.301 0 0 0 0-3.255h0a2.301 2.301 0 0 0-3.254 0l-3.912 3.912a2.301 2.301 0 0 0 0 3.254h0a2.301 2.301 0 0 0 3.255 0Zm3.426 3.097 3.912-3.912a2.301 2.301 0 0 0 0-3.254h0a2.301 2.301 0 0 0-3.255 0l-3.91 3.91a2.301 2.301 0 0 0 0 3.255h0a2.301 2.301 0 0 0 3.254 0Zm3.263 3.262 3.911-3.912a2.301 2.301 0 0 0 0-3.254h0a2.301 2.301 0 0 0-3.254 0l-3.912 3.912a2.301 2.301 0 0 0 0 3.254h0a2.301 2.301 0 0 0 3.255 0Z"/></svg>