<svg xmlns="http://www.w3.org/2000/svg" fill="none" viewBox="0 0 32 32"><path fill="#89F3AD" stroke="#171D20" stroke-linecap="round" stroke-linejoin="round" stroke-width=".796" d="M16.243 20.699a3.003 3.003 0 1 0 0-6.006 3.003 3.003 0 0 0 0 6.006Z"/><path stroke="#171D20" stroke-linecap="round" stroke-linejoin="round" stroke-width=".796" d="M9.434 15.905a6.607 6.607 0 0 1 2.02-2.268c.183-.13.372-.255.57-.37a8.288 8.288 0 0 1 4.187-1.111 8.194 8.194 0 0 1 4.554 1.343 6.881 6.881 0 0 1 .691.52 6.438 6.438 0 0 1 1.597 2.014"/><path fill="#89F3AD" stroke="#171D20" stroke-linecap="round" stroke-linejoin="round" stroke-width=".796" d="M16.243 12.006a3.003 3.003 0 1 0 0-6.006 3.003 3.003 0 0 0 0 6.006Z"/><path stroke="#171D20" stroke-linecap="round" stroke-linejoin="round" stroke-width=".796" d="M20.246 21.8a6.554 6.554 0 0 1 1.547-2.33c.14-.134.285-.261.437-.38a5.087 5.087 0 0 1 6.695.238c.136.12.266.247.392.382.046.05.093.1.137.151a6.68 6.68 0 0 1 1.222 2.07"/><path fill="#89F3AD" stroke="#171D20" stroke-linecap="round" stroke-linejoin="round" stroke-width=".796" d="M25.462 17.844a3.003 3.003 0 1 0 0-6.006 3.003 3.003 0 0 0 0 6.006Z"/><path stroke="#171D20" stroke-linecap="round" stroke-linejoin="round" stroke-width=".796" d="M2 21.8a6.544 6.544 0 0 1 1.548-2.33c.139-.134.285-.261.436-.38a5.088 5.088 0 0 1 6.695.238c.137.12.267.247.393.382.046.05.093.1.136.151.53.61.944 1.312 1.223 2.07"/><path fill="#89F3AD" stroke="#171D20" stroke-linecap="round" stroke-linejoin="round" stroke-width=".796" d="M7.216 17.844a3.003 3.003 0 1 0 0-6.006 3.003 3.003 0 0 0 0 6.006Z"/><path stroke="#171D20" stroke-linecap="round" stroke-linejoin="round" stroke-width=".796" d="M10.275 24.87a6.56 6.56 0 0 1 2.27-2.711 6.466 6.466 0 0 1 7.662.238c.156.12.305.247.45.382.052.05.105.1.155.151a6.557 6.557 0 0 1 1.4 2.07"/></svg>