<svg xmlns="http://www.w3.org/2000/svg" fill="none" viewBox="0 0 56 56"><path stroke="#171D20" stroke-linecap="round" stroke-linejoin="round" stroke-width="1.362" d="M12.25 45.624V12.71a2.21 2.21 0 0 1 2.21-2.209h26.997a2.21 2.21 0 0 1 2.21 2.21V37.79l-7.938 7.809-23.479.026Zm20.018-28.747h6.72m-6.72 7.498h6.72m-6.72 7.498h6.72m-21.911 6.748h14.536"/><path fill="#89F3AD" stroke="#171D20" stroke-linecap="round" stroke-linejoin="round" stroke-width="1.362" d="M35.73 37.789v7.809l7.937-7.81h-7.938Zm-7.88-5.581H16.91v-5.413a5.487 5.487 0 0 1 5.47-5.471 5.487 5.487 0 0 1 5.472 5.47v5.414ZM22.38 21.32a2.529 2.529 0 1 0 0-5.058 2.529 2.529 0 0 0 0 5.057Z"/></svg>