<svg xmlns="http://www.w3.org/2000/svg" fill="none" viewBox="0 0 56 56"><path stroke="#171D20" stroke-linecap="round" stroke-linejoin="round" stroke-width="1.362" d="M11.441 17.423V42.07a1.683 1.683 0 0 0 1.683 1.683h30.963a1.682 1.682 0 0 0 1.684-1.683V16.91"/><path fill="#89F3AD" stroke="#171D20" stroke-linecap="round" stroke-linejoin="round" stroke-width="1.362" d="M9.005 15.743a.77.77 0 0 0 .515 1.343h38.15a.77.77 0 0 0 .515-1.343l-6.4-4.335a5.275 5.275 0 0 0-2.96-.908h-20.46a5.274 5.274 0 0 0-2.96.908l-6.4 4.335Z"/><path stroke="#171D20" stroke-linecap="round" stroke-linejoin="round" stroke-width="1.362" d="M25.973 32.609h-10.05v6.835h10.05V32.61Zm0-11.453h-10.05v6.835h10.05v-6.835Zm14.927 0H30.85v6.835H40.9v-6.835Z"/><path fill="#89F3AD" stroke="#171D20" stroke-linecap="round" stroke-linejoin="round" stroke-width="1.362" d="M32.879 35.741v6.794a1.156 1.156 0 0 0 1.155 1.155h3.673a1.156 1.156 0 0 0 1.155-1.155V35.74a2.993 2.993 0 0 0-5.983 0Z"/></svg>