<svg xmlns="http://www.w3.org/2000/svg" fill="none" viewBox="0 0 56 56"><path fill="#89F3AD" stroke="#171D20" stroke-linecap="round" stroke-linejoin="round" stroke-width="1.362" d="M32.581 16.862c0-3.05-2.185-3.096-2.671-4.432-.691-1.9.31-4.487-1.772-5.274a2.443 2.443 0 0 0-1.718 0c-2.082.787-1.08 3.374-1.771 5.274-.486 1.336-2.672 1.382-2.672 4.432h10.604Z"/><path stroke="#171D20" stroke-linecap="round" stroke-linejoin="round" stroke-width="1.362" d="M34.595 21.53a2.473 2.473 0 0 1 2.465 2.465s-.616 8.304-.616 11.757c0 3.066.616 10.825.616 10.825a2.472 2.472 0 0 1-2.465 2.465h-14.63a2.472 2.472 0 0 1-2.465-2.465s.616-7.76.616-10.825c0-3.453-.616-11.757-.616-11.757a2.472 2.472 0 0 1 2.465-2.465h14.63Zm-1.417 10.414h3.194m-3.194-3.753h3.194m-3.4 7.506h3.4m-3.4 3.753h3.4m-3.194 3.752h3.605"/><path fill="#89F3AD" stroke="#171D20" stroke-linecap="round" stroke-linejoin="round" stroke-width="1.362" d="M32.697 16.901H21.862c-.675 0-1.222.547-1.222 1.222v2.102c0 .675.547 1.222 1.222 1.222h10.835c.675 0 1.222-.547 1.222-1.222v-2.102c0-.675-.547-1.222-1.222-1.222Z"/></svg>