<svg xmlns="http://www.w3.org/2000/svg" fill="none" viewBox="0 0 144 104"><path fill="#E2E2E2" d="M61.958 14.88C75.024-2.65 94.81-.368 101.137.766c15.363 2.748 32.21 12.078 34.251 37.38.532 6.718-.028 13.277-2.122 19.782a25.046 25.046 0 0 0 5.394 8.904c1.162 1.226 2.456 2.371 3.859 3.318.533.373 1.43.625 1.481 1.308v.12c-.148 1.759-6.607 2.612-7.89 2.814-2.522.4-5.658.373-8.437.055a27.02 27.02 0 0 1-2.176-.319c-.587-.104-1.333-.24-2.111-.36a350.599 350.599 0 0 0-4.539-.668s-2.27.613-4.994 1.374c-1.628.454-3.432.959-4.994 1.413-.268.081-.521.159-.773.225-.44.132-.867.252-1.256.372-.548.175-1.08.319-1.616.466-3.525.959-6.837 1.572-9.957 1.867a47.568 47.568 0 0 1-4.7.202 38.518 38.518 0 0 1-7.088-.707c-4.485-.892-8.542-2.573-12.308-4.906a39.302 39.302 0 0 1-2.215-1.478c-.187-.148-.373-.28-.56-.412-.28-.201-.548-.411-.828-.624a58.143 58.143 0 0 1-5.5-4.868 28.976 28.976 0 0 1-4.538-5.837c-8.236-13.852-4.645-33.138 4.43-45.297l.008-.008Z"/><path fill="#1ED86C" d="M101.856 69.576c6.718-52.91-75.147-66.59-87.982-17.907-2.673 10.234-3.33 21.621-9.42 30.442-2.735 3.913-8.033 7.32-.829 8.067 4.029.433 8.212-1.94 11.983.48 11.067 7.18 26.025 12.694 39.072 13.28 20.011.907 43.805-8.073 47.176-34.355v-.007Z"/><path stroke="#fff" stroke-width="2.872" d="M92.903 68.367c5.335-44.634-57.55-51.547-68.327-17.576-2.122 8.634-.095 14.335-4.93 21.775-1.87 2.843-4.524 4.126-6.64 8.754-.478 1.048.532 2.132 1.678 2.011 4.95-.522 9.563 1.323 12.106 3.058 8.788 6.057 19.162 9.675 29.522 10.17 15.889.765 33.915-6.015 36.591-28.186v-.006Z"/><path fill="#fff" d="M40.57 50.502c.463-3.718 3.51-7.983 7.088-8.32.255-.025.513-.03.772-.007 1.861.291 3.114 1.934 3.478 3.753.044.166.088.332.13.503.787 3.083 1.434 7.13.708 7.692-.961 1.67-4.12 2.506-3.416 4.774.449 1.359 1.379 3.325 2.598 5.356.08.134.164.269.248.404 1.032 2.003 2.341 3.872 4.066 5.297.212.212.425.414.64.605 1.72 1.541 3.502 2.438 5.118 2.013 1.094-.96 2.24-1.859 3.262-2.888 1.25-1.639 3.99.692 6.3 2.677.12.102.244.206.358.308 1.282 1.243 3.491 2.51 2.844 4.77a4.673 4.673 0 0 1-.266.737c-.602 1.336-1.797 2.579-3.164 3.472a8.453 8.453 0 0 1-.7.412c-.191.083-.387.16-.582.233-2.096.588-4.346-.011-6.515-.194a15.242 15.242 0 0 0-1.347-.295c-.188-.055-.37-.108-.557-.168a29.24 29.24 0 0 1-1.114-.378 24.38 24.38 0 0 1-2.082-1.031 24.723 24.723 0 0 1-.744-.424c-1.23-.692-2.467-1.519-3.548-2.471l-.677-.563c-7.593-6.474-12.807-16.875-12.913-26.275l.014.008Z"/></svg>