<svg width="312" height="160" fill="none" xmlns="http://www.w3.org/2000/svg"><path d="M232.507 101.189c-.898-3.323-8-25.6-9.354-33.221 3.627-.563 12.926-2.916 14.203-8.655 1.569-7.058-5.423-16.295-16.677-26.113-4.521-3.944-8.744-5.405-10.677-5.888-2.349-.592-4.85-1.324-6.344-3.228-1.153-1.468-1.533-3.406-2.767-4.818-1.173-1.326-2.955-1.926-4.412-2.867-2.357-1.52-4.715-3.124-6.594-5.235-.383-.429-.774-.987-.601-1.534.205-.68 1.083-.843 1.791-.799 3.674.244 7.584 2.235 10.658 4.144-2.647-1.642-5.012-4.59-6.893-7.035-.73-.954-3.426-4.007-2.156-5.177.744-.684 2.46.159 3.194.505a18.676 18.676 0 0 1 3.298 2.116 72.778 72.778 0 0 1 5.539 4.694.478.478 0 0 0 .347.174.456.456 0 0 0 .238-.128c1.168-.99 1.657-2.015 2.63-3.205 13.907 2.244 52.839 28.135 55.508 55.873 3.015 31.335-23.93 39.258-30.931 40.397z" fill="#fff"/><path d="M232.506 101.694a.51.51 0 0 1-.307-.104.507.507 0 0 1-.18-.269c-.227-.839-.873-2.966-1.692-5.658-2.49-8.19-6.657-21.897-7.672-27.607a.498.498 0 0 1 .005-.2.492.492 0 0 1 .081-.182.506.506 0 0 1 .146-.136.502.502 0 0 1 .188-.07c4.596-.712 12.673-3.255 13.787-8.264 1.386-6.232-4.171-14.853-16.516-25.623-4.583-3.998-8.847-5.373-10.467-5.78-2.49-.627-5.051-1.407-6.619-3.405a11.937 11.937 0 0 1-1.353-2.4c-.409-.88-.795-1.71-1.397-2.399-.725-.82-1.714-1.343-2.76-1.898a20.553 20.553 0 0 1-1.545-.876c-2.328-1.501-4.762-3.149-6.698-5.324-.426-.478-.963-1.207-.705-2.023.239-.793 1.102-1.226 2.304-1.15 1.992.132 4.182.754 6.625 1.885-1.186-1.268-2.284-2.656-3.292-3.964-.075-.1-.174-.222-.286-.363-1.151-1.443-3.293-4.13-1.811-5.494.975-.896 2.809-.025 3.691.392l.061.03a19.23 19.23 0 0 1 3.388 2.171 73.362 73.362 0 0 1 5.552 4.703 9.817 9.817 0 0 0 1.609-1.89c.271-.38.552-.775.896-1.196a.504.504 0 0 1 .212-.152.504.504 0 0 1 .259-.027c7.734 1.248 21.283 9.025 32.219 18.492 8.178 7.08 22.132 21.41 23.712 37.83.704 7.318-.177 13.919-2.615 19.618a32.813 32.813 0 0 1-9.273 12.34c-8.24 6.88-17.661 8.693-19.465 8.986a.555.555 0 0 1-.082.007zm-8.764-33.314c1.147 5.923 5.138 19.053 7.552 26.989a421.7 421.7 0 0 1 1.576 5.244c2.526-.465 11.03-2.421 18.535-8.688 8.919-7.446 12.799-17.905 11.53-31.085-1.546-16.07-15.304-30.181-23.367-37.163-12.069-10.449-24.848-17.018-31.429-18.21a24.82 24.82 0 0 0-.673.915 10.542 10.542 0 0 1-1.84 2.128.918.918 0 0 1-.525.246.95.95 0 0 1-.735-.313 72.65 72.65 0 0 0-5.496-4.657 18.335 18.335 0 0 0-3.208-2.061l-.062-.03c-1.394-.661-2.26-.85-2.574-.561-.789.727 1.247 3.281 1.917 4.12.117.147.219.275.298.38 1.939 2.518 4.221 5.34 6.758 6.911a.501.501 0 0 1 .225.314.501.501 0 0 1-.062.382.507.507 0 0 1-.314.226.507.507 0 0 1-.382-.063c-4.099-2.545-7.508-3.876-10.425-4.069-.559-.035-1.167.087-1.273.44-.079.25.083.592.494 1.053 1.852 2.08 4.222 3.683 6.491 5.146.46.298.95.558 1.47.834 1.08.572 2.197 1.164 3.046 2.124.698.798 1.133 1.734 1.554 2.64.325.778.738 1.516 1.232 2.2 1.372 1.75 3.654 2.441 6.07 3.05 1.691.424 6.138 1.856 10.886 5.998 12.645 11.032 18.31 19.982 16.838 26.604-1.396 6.273-11.459 8.48-14.106 8.956h-.001z" fill="#2A3439"/><path d="M91.393 115.712c-.08.7-2.677 5.034-7.737 7.301-2.892 1.296-6.88-.538-9.478-2.614-9.233-7.382-6.349-38.206-5.538-39.882.985-2.035 1.959-4.271 1.492-6.482-.36-1.705-1.526-3.14-1.793-4.869-.253-1.635.39-3.272.589-4.881.32-2.603.587-5.252.197-7.863-.08-.533-.243-1.145-.74-1.353-.61-.256-1.254.275-1.644.808-2.029 2.778-2.945 6.772-3.417 10.123.406-2.882-.285-6.344-.914-9.155-.245-1.099-.819-4.86-2.42-4.65-.935.122-1.36 1.86-1.549 2.589a17.433 17.433 0 0 0-.459 3.635 67.335 67.335 0 0 0 .043 6.784.448.448 0 0 1-.08.352.427.427 0 0 1-.234.095c-1.414.244-2.438-.022-3.873-.035-6.726 11.31-9.227 60.173 3.86 77.637 15.647 20.878 33.612 14.469 43.055 7.987 4.843-3.324 8.153-6.007 11.668-12.534l-21.028-22.993z" fill="#fff"/><path d="M82.234 158.019c-.231 0-.463-.003-.695-.008-9.075-.235-17.232-5.098-24.244-14.455-5.814-7.757-9.263-22.855-9.462-41.423-.17-15.85 2.121-30.973 5.57-36.775a.517.517 0 0 1 .44-.247c.511.004.966.04 1.404.074a9.22 9.22 0 0 0 2.27-.015 67.939 67.939 0 0 1-.04-6.772c.027-1.26.186-2.514.475-3.74l.017-.064c.23-.888.709-2.736 1.955-2.9 1.897-.252 2.546 2.924 2.893 4.629.032.16.06.301.086.413.339 1.515.653 3.064.847 4.575.648-2.36 1.504-4.254 2.583-5.731.662-.906 1.523-1.28 2.247-.977.75.314.956 1.146 1.045 1.745.398 2.675.122 5.418-.196 8-.068.55-.186 1.104-.3 1.639-.23 1.078-.446 2.096-.291 3.103.13.838.493 1.61.878 2.43.397.765.702 1.574.91 2.41.494 2.34-.486 4.646-1.532 6.807-.308.649-1.286 8.56-.947 17.578.295 7.816 1.635 17.924 6.346 21.69 2.618 2.093 6.403 3.692 8.956 2.548 4.9-2.196 7.342-6.329 7.442-6.903a.501.501 0 0 1 .112-.261.498.498 0 0 1 .236-.159.5.5 0 0 1 .284-.007.508.508 0 0 1 .242.149l21.027 22.993a.507.507 0 0 1 .072.581c-3.642 6.764-7.197 9.535-11.826 12.711-4.267 2.928-10.948 6.362-18.804 6.362zM54.126 66.127c-3.283 5.84-5.45 20.54-5.283 35.994.197 18.358 3.573 33.239 9.26 40.828 16.504 22.023 35.125 12.842 42.364 7.873 4.577-3.141 7.859-5.694 11.338-12.042l-20.256-22.15c-.89 1.661-3.482 4.958-7.686 6.843-3.145 1.409-7.353-.564-10.002-2.681-5.011-4.007-6.423-14.423-6.724-22.456-.332-8.861.586-17.086 1.048-18.04.97-2.004 1.88-4.13 1.452-6.158a10.142 10.142 0 0 0-.836-2.19c-.398-.847-.81-1.723-.963-2.706-.183-1.188.063-2.347.302-3.467.115-.538.223-1.045.285-1.553.322-2.616.58-5.175.2-7.726-.084-.56-.228-.875-.436-.962-.302-.127-.75.243-1.04.64-1.61 2.203-2.698 5.44-3.326 9.896a.505.505 0 0 1-1-.14c.373-2.653-.215-5.881-.907-8.975a35.442 35.442 0 0 1-.09-.433c-.534-2.623-1.128-3.912-1.773-3.827-.378.05-.75.773-1.108 2.15l-.016.066a17.01 17.01 0 0 0-.443 3.53 67.065 67.065 0 0 0 .042 6.733.922.922 0 0 1-.227.74.899.899 0 0 1-.505.233 9.852 9.852 0 0 1-2.627.043c-.334-.024-.677-.05-1.043-.063z" fill="#2A3439"/><path d="m201.334 106.061 3.808 51.54s-86.003 2.157-85.974 2.399c0 0 1.88-29.245 1.885-30.988-2.537 4.109-14.895 18.551-21.155 23.084-.19 0-18.36-29.372-18.471-29.441 8.943-4.296 16.6-25.106 25.54-35.1 12.26-13.71 25.858-21.969 43.449-26.306 13.37-3.291 43.017 3.763 49.941 4.8 7.778 1.162 13.6 2.12 21.401 1.157 1.345-.167 2.712-.338 4.079-.548 1.355 7.622 3.105 16.858 4.784 24.413.746 3.356 1.533 6.718 2.431 10.041-11.894 1.924-28.679 4.87-31.718 4.949z" fill="#8BF5AF"/><path d="M58.48 65.867c.575 2.48.654 5.639.52 6.702-.184 1.468-1.28 1.92-2.45 1.05-1.208-.9-2.06-2.971-2.47-4.42-.557-1.966-.66-4.47.797-5.855 1.915-1.82 3.017-.002 3.603 2.523z" fill="#fff"/><path d="M57.691 74.566a2.449 2.449 0 0 1-1.442-.542c-1.56-1.16-2.427-3.88-2.655-4.687-.367-1.295-1.01-4.509.934-6.359.788-.748 1.546-1.02 2.253-.808.983.295 1.7 1.467 2.19 3.583.602 2.594.664 5.809.53 6.88-.112.89-.522 1.53-1.155 1.8a1.657 1.657 0 0 1-.655.133zm-1.38-11.454c-.303 0-.667.2-1.086.599-1.591 1.511-.906 4.478-.659 5.35.426 1.502 1.25 3.382 2.286 4.152.413.307.813.413 1.098.291.286-.121.485-.485.55-.998.122-.978.055-4.082-.512-6.525-.38-1.635-.925-2.672-1.497-2.843a.625.625 0 0 0-.18-.026z" fill="#2A3439"/><path d="M153.001 33.12c-1.677-3.024-8.701-10.132-13.875-10.294-4.596-.143-8.342 3.642-11.728 6.276-6.842 5.322-4.992 17.284 1.871 27.425 1.757 2.595 4.118 4.837 6.709 5.528 4.016 1.072 2.659 7.44 6.289 9.257 4.43 2.218 11.204-2.382 13.505-5.89a2.377 2.377 0 0 0 .451-1.061 2.591 2.591 0 0 0-.291-1.196c-.644-1.526-1.32-2.945-2.014-4.455a2.586 2.586 0 0 1-.286-.902c-.041-.7.473-1.29.915-1.834a13.464 13.464 0 0 0 2.616-5.328c.465-1.949.49-3.977.072-5.936a41.576 41.576 0 0 0-4.234-11.59z" fill="#fff"/><path d="M144.875 72.394a6.275 6.275 0 0 1-2.835-.632c-1.922-.962-2.557-2.983-3.17-4.937-.613-1.954-1.191-3.794-3.022-4.283-2.453-.654-4.938-2.69-6.996-5.733-3.501-5.173-5.689-10.768-6.16-15.755-.514-5.443 1.006-9.714 4.397-12.352.524-.407 1.049-.837 1.606-1.292 2.991-2.445 6.382-5.219 10.448-5.09 3.026.095 6.323 2.331 8.556 4.19 2.425 2.02 4.786 4.636 5.745 6.365a42.153 42.153 0 0 1 4.288 11.731 13.948 13.948 0 0 1-.072 6.16 13.944 13.944 0 0 1-2.721 5.526l-.067.082c-.375.46-.763.935-.736 1.403.038.252.12.496.241.721.159.347.318.69.475 1.029.538 1.161 1.046 2.258 1.545 3.44.226.444.339.937.329 1.435a2.833 2.833 0 0 1-.531 1.296c-1.257 1.918-3.669 3.984-6.144 5.265-1.838.95-3.601 1.43-5.176 1.43zm-5.997-49.067c-3.593 0-6.751 2.582-9.545 4.866-.561.459-1.091.892-1.625 1.307-6.933 5.394-4.252 17.536 1.979 26.743 1.923 2.841 4.204 4.732 6.421 5.324 2.369.632 3.059 2.83 3.726 4.957.576 1.833 1.119 3.565 2.658 4.336 2.457 1.23 5.499.03 7.093-.795 2.332-1.206 4.595-3.138 5.764-4.92.186-.244.313-.527.37-.828a2.233 2.233 0 0 0-.253-.956 108.675 108.675 0 0 0-1.531-3.41c-.158-.34-.317-.684-.476-1.032a3.036 3.036 0 0 1-.332-1.083c-.05-.861.511-1.548.962-2.1l.066-.082a12.932 12.932 0 0 0 2.587-10.843 41.123 41.123 0 0 0-4.183-11.446c-1.61-2.905-8.538-9.882-13.449-10.035a11.964 11.964 0 0 0-.232-.002z" fill="#2A3439"/><path d="M146.593 47.106a.508.508 0 0 1-.322-.114.51.51 0 0 1-.175-.293.513.513 0 0 1 .051-.338.51.51 0 0 1 .254-.228c1.034-.422 1.597-1.31 1.603-1.932.006-.76-.816-1.25-1.521-1.44a17.122 17.122 0 0 0-.593-.144c-.788-.183-1.533-.355-2.314-1.04a9.18 9.18 0 0 1-1.766-2.14l-.194-.294a.491.491 0 0 1-.078-.182.511.511 0 0 1-.002-.199.495.495 0 0 1 .076-.184.498.498 0 0 1 .14-.14.5.5 0 0 1 .184-.076.5.5 0 0 1 .198.001.5.5 0 0 1 .183.078.503.503 0 0 1 .139.142l.197.296a8.267 8.267 0 0 0 1.589 1.938c.59.518 1.158.65 1.876.816.2.046.408.094.626.151 1.054.282 2.281 1.086 2.27 2.425-.008.94-.71 2.236-2.23 2.859a.509.509 0 0 1-.191.038zm-1.008-8.249a.507.507 0 0 1-.44-.257.502.502 0 0 1-.047-.383c.496-1.79 2.521-2.285 4.305-1.983a.501.501 0 0 1 .334.203.49.49 0 0 1 .083.182.497.497 0 0 1 .007.2.508.508 0 0 1-.21.33.51.51 0 0 1-.183.08.508.508 0 0 1-.2.001c-.997-.168-2.788-.095-3.163 1.257a.502.502 0 0 1-.181.267.502.502 0 0 1-.305.103zm-9.896 4.58a.503.503 0 0 1-.135-.02.502.502 0 0 1-.176-.088.5.5 0 0 1-.129-.15.502.502 0 0 1-.047-.383c.497-1.79 2.52-2.286 4.305-1.982a.504.504 0 0 1 .32.208.507.507 0 0 1 .083.372.505.505 0 0 1-.571.415c-.999-.168-2.789-.094-3.163 1.257a.507.507 0 0 1-.181.267.507.507 0 0 1-.306.103z" fill="#2A3439"/><path d="M68.621 71.052c-.979-2.55-3.877-4.054-5.767-5.085-1.092-.595-2.255-1.164-3.506-1.192-.633-.014-1.366.187-1.619.762-.428.972.131 2.09.648 2.91 1.044 1.652 5.617 5.544 7.288 6.559" fill="#fff"/><path d="M65.665 75.511a.504.504 0 0 1-.262-.073c-1.636-.994-6.333-4.95-7.453-6.722-.55-.87-1.218-2.167-.683-3.382.356-.81 1.313-1.08 2.092-1.064 1.382.03 2.652.663 3.737 1.254l.198.108c1.906 1.037 4.787 2.604 5.799 5.24a.505.505 0 0 1-.944.362c-.878-2.289-3.456-3.69-5.338-4.715l-.199-.108c-1.024-.558-2.12-1.105-3.275-1.13-.465-.013-1 .127-1.146.46-.34.774.187 1.76.613 2.436.976 1.545 5.428 5.367 7.123 6.397a.505.505 0 0 1 .224.568.505.505 0 0 1-.487.37z" fill="#2A3439"/><path d="M205.366 8.85c1.642 2.174 4.181 4.408 5.146 5.029 1.332.856 2.455.265 2.544-1.291.092-1.61-1.026-3.732-1.933-5.063-1.232-1.808-3.216-3.612-5.354-3.366-2.811.323-2.074 2.476-.403 4.69z" fill="#fff"/><path d="M211.673 14.78a2.685 2.685 0 0 1-1.434-.476c-.969-.624-3.561-2.878-5.276-5.15-1.392-1.845-1.861-3.226-1.434-4.223.306-.714 1.04-1.142 2.181-1.273 1.972-.228 4.147 1.113 5.831 3.582.503.739 2.137 3.31 2.02 5.376-.054.945-.439 1.646-1.084 1.974-.249.126-.525.191-.804.19zm-5.506-10.138c-.114 0-.228.006-.342.02-.755.086-1.215.31-1.368.667-.257.6.222 1.771 1.313 3.217 1.619 2.147 4.126 4.336 5.016 4.908.476.306.926.393 1.232.236.307-.157.502-.569.534-1.131.08-1.39-.901-3.364-1.845-4.75-.524-.767-2.339-3.167-4.539-3.167h-.001z" fill="#2A3439"/><path d="M202.452 19.2c0-3.5.211-4.748.656-6.97.257-1.284.581-2.608 1.405-3.637.416-.521 1.073-.978 1.709-.794 1.073.311 1.599 1.517 1.911 2.488.632 1.96.685 8.282.377 10.316" fill="#fff"/><path d="M208.509 21.109a.512.512 0 0 1-.261-.073.511.511 0 0 1-.146-.133.511.511 0 0 1-.083-.179.502.502 0 0 1-.009-.197c.313-2.067.232-8.25-.358-10.085-.259-.806-.704-1.906-1.572-2.157-.405-.117-.885.263-1.173.623-.764.955-1.063 2.213-1.304 3.42-.436 2.184-.646 3.388-.646 6.872a.504.504 0 0 1-.148.357.505.505 0 0 1-.862-.357c0-3.572.227-4.88.665-7.07.253-1.27.601-2.721 1.505-3.853.505-.633 1.362-1.218 2.244-.963 1.33.385 1.922 1.793 2.253 2.819.674 2.098.696 8.555.395 10.546a.508.508 0 0 1-.17.307.507.507 0 0 1-.33.123z" fill="#2A3439"/><path d="M97.525 148.421a62.307 62.307 0 0 1 7.246-.564c-.369.357-.732.703-1.088 1.038a62.316 62.316 0 0 0-5.57.46l-.588-.934zm106.007-12.608c-6.612-.571-12.684-.664-19.914 2.263-4.347 1.758-8.193 4.412-11.914 6.981-3.614 2.495-7.349 5.074-11.597 6.892-11.229 4.806-22.887 2.263-34.161-.197-2.038-.444-4.099-.894-6.17-1.3.02-.336.043-.675.063-1.018 2.124.414 4.235.876 6.321 1.331 11.121 2.427 22.617 4.935 33.548.255 4.157-1.778 7.849-4.329 11.423-6.794 3.766-2.599 7.66-5.286 12.108-7.087 7.387-2.988 13.537-2.914 20.217-2.346l.076 1.02zm-84.322 23.493c.641.187 1.311.381 2.008.578-1.324.053-2.051.091-2.051.114l.043-.692zm85.13-12.535c-5.657-.493-11.075-.339-17.298 2.119-4.361 1.722-8.195 4.399-11.9 6.986-1.243.866-2.496 1.74-3.784 2.591-.646.018-1.295.033-1.947.05 1.771-1.111 3.475-2.298 5.152-3.47 3.753-2.621 7.638-5.331 12.108-7.097 6.365-2.513 11.87-2.692 17.596-2.199l.073 1.02zm-90.762-8.314c-.258.298-.523.599-.788.899a88.691 88.691 0 0 0-21.337-.639l-.598-.959a89.673 89.673 0 0 1 22.723.699zm88.941-16.356c-9.001 1.955-16.742 6.301-24.877 10.865-4.036 2.266-8.213 4.609-12.537 6.62a.186.186 0 0 0-.025.01c-14.141 5.665-29.578 3.664-44.693 1.078.02-.341.043-.679.063-1.015 15.002 2.571 30.322 4.574 44.241-.995 4.286-1.993 8.44-4.324 12.459-6.579 4.505-2.531 9.167-5.147 13.964-7.246a59.594 59.594 0 0 1 11.329-3.748l.076 1.01z" fill="#fff"/><path d="M201.782 112.1c-9.269 1.886-17.182 6.326-25.501 10.996-4.039 2.266-8.213 4.609-12.537 6.62a.186.186 0 0 0-.025.01c-6.686 2.677-13.661 3.642-20.753 3.642-7.274 0-14.671-1.016-22.011-2.24-.409-.066-.818-.137-1.227-.205-1.67-.283-3.334-.576-4.993-.866a88.664 88.664 0 0 0-29.108-.695c-.2-.318-.394-.631-.583-.934a89.571 89.571 0 0 1 29.872.636c1.819.318 3.642.639 5.471.947.207.033.414.068.621.104 14.386 2.402 28.994 4.01 42.322-1.321 4.286-1.993 8.44-4.324 12.456-6.579 4.508-2.531 9.17-5.147 13.966-7.246a58.88 58.88 0 0 1 11.954-3.882l.076 1.013zm26.834-30.62c-8.738-1.907-17.709-3.657-26.503-2.776-10.82 1.233-19.695 6.056-29.09 11.163-4.064 2.208-8.269 4.493-12.618 6.44a.195.195 0 0 0-.025.013c-6.388 2.455-13.02 3.362-19.756 3.362-9.675 0-19.565-1.87-29.261-3.703a86.576 86.576 0 0 0-9.575-1.427c.205-.323.415-.641.624-.957 3.071.302 6.124.767 9.145 1.391 16.298 3.082 33.159 6.269 48.446.394 4.312-1.932 8.494-4.205 12.537-6.402 9.067-4.927 18.442-10.024 29.464-11.28 8.807-.88 17.72.814 26.4 2.7l.212 1.082z" fill="#fff"/><path d="M230.836 101.473c-.949.154-1.924.315-2.909.477-6.842-1.245-13.762-2.058-20.564-1.293-10.799 1.364-19.621 6.296-28.963 11.519-4.041 2.258-8.221 4.594-12.55 6.597a.109.109 0 0 1-.025.01c-15.495 6.175-32.52 3.162-48.984.248a88.69 88.69 0 0 0-30.31-.569c.326-.373.654-.762.98-1.167a89.705 89.705 0 0 1 29.514.743c16.313 2.887 33.189 5.875 48.413-.187 4.289-1.985 8.449-4.309 12.469-6.556 4.511-2.523 9.178-5.132 13.979-7.224 5.393-2.348 10.416-3.793 15.359-4.417 7.844-.881 15.795.288 23.591 1.819z" fill="#fff"/><path d="M230.947 92.514c-8.054-1.879-16.287-3.468-24.412-2.811-10.837 1.023-19.806 5.675-29.302 10.6-4.107 2.132-8.355 4.334-12.744 6.198a.077.077 0 0 1-.025.01c-5.981 2.169-12.149 2.995-18.394 2.995-10.123 0-20.46-2.164-30.588-4.286a87.776 87.776 0 0 0-18.828-2.167l.588-1.007a88.74 88.74 0 0 1 18.457 2.187c16.225 3.399 33.007 6.915 48.408 1.333 4.35-1.848 8.575-4.041 12.661-6.16 9.163-4.753 18.639-9.668 29.679-10.708 8.114-.657 16.275.874 24.253 2.722.081.367.164.73.247 1.094zm-3.977-19.632c-7.792-1.796-15.742-3.258-23.592-2.621-10.837 1.02-19.806 5.672-29.302 10.597-4.109 2.132-8.357 4.334-12.744 6.2a.105.105 0 0 0-.025.01c-15.674 5.683-32.608 2.137-48.982-1.293a88.539 88.539 0 0 0-3.121-.649c.28-.293.559-.582.838-.869.834.165 1.666.342 2.498.53 16.224 3.4 33.009 6.916 48.411 1.334 4.346-1.848 8.571-4.038 12.66-6.16 9.163-4.753 18.639-9.667 29.679-10.708 7.852-.634 15.744.778 23.478 2.543.065.359.133.722.202 1.086z" fill="#fff"/><path d="M177.458 61.974c-6.557 7.428-14.479 12.997-22.741 15.914-5.329 1.882-11.16 2.218-17.164 2.42-.621.02-1.247.033-1.869.033a58.633 58.633 0 0 1-18.189-2.935c.313-.258.626-.511.94-.76a57.221 57.221 0 0 0 19.083 2.651c6.15-.204 11.663-.525 16.861-2.36 7.918-2.797 15.525-8.083 21.879-15.134.402.055.801.113 1.2.171z" fill="#fff"/><path d="M149.618 22.46a9.41 9.41 0 0 1 1.179 1.878c.429.913.711 1.947.49 2.933-.253 1.12-1.105 1.997-1.949 2.778a47.046 47.046 0 0 1-11.907 8.025c-.677.319-1.54.602-2.117.127a2.059 2.059 0 0 1-.549-.99l-2.37-7.195c.244.742-.854 3.264-.975 4.162a25.651 25.651 0 0 0-.171 4.75 16.71 16.71 0 0 0 2.778 8.581c3.242 5.05 8.67 8.882 10.208 14.926 1.453 5.714.856 11.673 2.641 17.395 1.796 5.759 4.781 11.098 6.155 16.998.624 2.677.897 5.466.483 8.184-.926 6.087-5.597 11.482-11.532 13.114-5.936 1.631-12.798-.692-16.391-5.69-1.516-2.107-2.45-4.581-3.067-7.101-1.081-4.428-1.191-9.008-.959-13.54.196-3.85 1.183-7.73.227-11.518-1.339-5.293-3.904-9.087-6.135-14.07-2.326-5.195-2.796-9.997-1.769-15.369.89-4.658.648-9.482 1.911-14.115 2.98-10.931 16.307-21.474 28.019-18.043a11.688 11.688 0 0 1 5.8 3.78zm-50.58 130.392a.504.504 0 0 1-.309-.106.505.505 0 0 1 .065-.841c11.11-6.131 24.458-25.644 28.284-31.478a.512.512 0 0 1 .137-.145.518.518 0 0 1 .183-.081.518.518 0 0 1 .2-.003.508.508 0 0 1 .186.074.515.515 0 0 1 .142.141.499.499 0 0 1 .075.384.493.493 0 0 1-.078.184c-3.859 5.884-17.328 25.565-28.64 31.808a.495.495 0 0 1-.244.063zm95.601-45.532a.501.501 0 0 1-.345-.138.506.506 0 0 1-.157-.337.504.504 0 0 1 .442-.531c.231-.028 23.273-2.839 40.19-6.043a.477.477 0 0 1 .199 0 .516.516 0 0 1 .183.076.511.511 0 0 1 .214.325.527.527 0 0 1-.002.198.502.502 0 0 1-.079.182.504.504 0 0 1-.142.138.495.495 0 0 1-.185.073c-16.951 3.211-40.025 6.026-40.256 6.054a.628.628 0 0 1-.062.003z" fill="#2A3439"/><path d="M148.951 50.323a.965.965 0 0 0-.536.163.965.965 0 0 0-.411.992.964.964 0 0 0 .759.759.966.966 0 0 0 .558-.055.969.969 0 0 0 .434-.356.966.966 0 0 0 .162-.537.963.963 0 0 0-.283-.683.964.964 0 0 0-.683-.283z" fill="#2A3439"/></svg>